{
  "accessors": [
    {
      "bufferView": 3,
      "componentType": 5126,
      "count": 7671,
      "max": [
        0.5787657499313354,
        1.482399582862854,
        0.8526979088783264
      ],
      "min": [
        -0.5782124996185303,
        0.4434923827648163,
        0.5518553853034973
      ],
      "type": "VEC3"
    },
    {
      "bufferView": 3,
      "byteOffset": 92052,
      "componentType": 5126,
      "count": 7671,
      "max": [
        0.9999904632568359,
        0.9999979734420776,
        0.9999557733535767
      ],
      "min": [
        -0.9999904632568359,
        -0.9999961853027344,
        -0.9999967813491821
      ],
      "type": "VEC3"
    },
    {
      "bufferView": 4,
      "componentType": 5126,
      "count": 7671,
      "max": [
        1.0,
        0.9999151825904846,
        0.9998941421508789,
        1.0
      ],
      "min": [
        -1.0,
        -0.9999260306358337,
        -0.9999994039535522,
        -1.0
      ],
      "type": "VEC4"
    },
    {
      "bufferView": 4,
      "byteOffset": 122736,
      "componentType": 5126,
      "count": 7671,
      "max": [
        0.501960813999176,
        0.501960813999176,
        0.8470588326454163,
        1.0
      ],
      "min": [
        0.15294118225574493,
        0.14509804546833038,
        0.501960813999176,
        1.0
      ],
      "type": "VEC4"
    },
    {
      "bufferView": 2,
      "componentType": 5126,
      "count": 7671,
      "max": [
        0.9984801411628723,
        0.9934999942779541
      ],
      "min": [
        0.003700000001117587,
        0.005299999378621578
      ],
      "type": "VEC2"
    },
    {
      "bufferView": 1,
      "componentType": 5125,
      "count": 24258,
      "type": "SCALAR"
    },
    {
      "bufferView": 3,
      "byteOffset": 184104,
      "componentType": 5126,
      "count": 2816,
      "max": [
        0.09315966069698334,
        1.6552191972732544,
        0.09885569661855698
      ],
      "min": [
        -0.09315966069698334,
        1.4118976593017578,
        -0.10237076878547668
      ],
      "type": "VEC3"
    },
    {
      "bufferView": 3,
      "byteOffset": 217896,
      "componentType": 5126,
      "count": 2816,
      "max": [
        0.9996846914291382,
        0.9994238615036011,
        0.9995843768119812
      ],
      "min": [
        -0.9996846914291382,
        -0.99991774559021,
        -0.99992835521698
      ],
      "type": "VEC3"
    },
    {
      "bufferView": 2,
      "byteOffset": 61368,
      "componentType": 5126,
      "count": 2816,
      "max": [
        0.9961353540420532,
        0.9876918792724609
      ],
      "min": [
        0.014810331165790558,
        0.009342247620224953
      ],
      "type": "VEC2"
    },
    {
      "bufferView": 1,
      "byteOffset": 97032,
      "componentType": 5125,
      "count": 10248,
      "type": "SCALAR"
    },
    {
      "bufferView": 3,
      "byteOffset": 251688,
      "componentType": 5126,
      "count": 1124,
      "max": [
        0.15148335695266724,
        0.5856320858001709,
        0.16805464029312134
      ],
      "min": [
        -0.15093010663986206,
        0.0033994722180068493,
        -0.07716984301805496
      ],
      "type": "VEC3"
    },
    {
      "bufferView": 3,
      "byteOffset": 265176,
      "componentType": 5126,
      "count": 1124,
      "max": [
        0.9999383687973022,
        0.9924432635307312,
        0.9979227185249329
      ],
      "min": [
        -0.9999383687973022,
        -1.0,
        -0.9934402108192444
      ],
      "type": "VEC3"
    },
    {
      "bufferView": 4,
      "byteOffset": 245472,
      "componentType": 5126,
      "count": 1124,
      "max": [
        0.9999195337295532,
        0.9999170899391174,
        0.9999998807907104,
        1.0
      ],
      "min": [
        -0.999919593334198,
        -0.9302600622177124,
        -0.9998421669006348,
        -1.0
      ],
      "type": "VEC4"
    },
    {
      "bufferView": 4,
      "byteOffset": 263456,
      "componentType": 5126,
      "count": 1124,
      "max": [
        0.501960813999176,
        0.501960813999176,
        0.501960813999176,
        1.0
      ],
      "min": [
        0.501960813999176,
        0.501960813999176,
        0.501960813999176,
        1.0
      ],
      "type": "VEC4"
    },
    {
      "bufferView": 2,
      "byteOffset": 83896,
      "componentType": 5126,
      "count": 1124,
      "max": [
        0.9975262880325317,
        0.9977335929870605
      ],
      "min": [
        0.6118997931480408,
        0.6619037389755249
      ],
      "type": "VEC2"
    },
    {
      "bufferView": 1,
      "byteOffset": 138024,
      "componentType": 5125,
      "count": 4536,
      "type": "SCALAR"
    },
    {
      "bufferView": 3,
      "byteOffset": 278664,
      "componentType": 5126,
      "count": 1513,
      "max": [
        0.11110777407884598,
        1.7014433145523071,
        0.10113868117332458
      ],
      "min": [
        -0.11207979172468185,
        1.4424961805343628,
        -0.13534565269947052
      ],
      "type": "VEC3"
    },
    {
      "bufferView": 3,
      "byteOffset": 296820,
      "componentType": 5126,
      "count": 1513,
      "max": [
        0.998458743095398,
        0.9992862343788147,
        0.9989694356918335
      ],
      "min": [
        -0.9997832179069519,
        -0.9740856289863586,
        -0.9981853365898132
      ],
      "type": "VEC3"
    },
    {
      "bufferView": 2,
      "byteOffset": 92888,
      "componentType": 5126,
      "count": 1513,
      "max": [
        0.995760977268219,
        0.9958829879760742
      ],
      "min": [
        0.0029239999130368233,
        0.006006999872624874
      ],
      "type": "VEC2"
    },
    {
      "bufferView": 1,
      "byteOffset": 156168,
      "componentType": 5125,
      "count": 5628,
      "type": "SCALAR"
    },
    {
      "bufferView": 3,
      "byteOffset": 314976,
      "componentType": 5126,
      "count": 367,
      "max": [
        0.0615059994161129,
        1.5824780464172363,
        0.08561199903488159
      ],
      "min": [
        -0.0615059994161129,
        1.5378109216690063,
        0.058827999979257584
      ],
      "type": "VEC3"
    },
    {
      "bufferView": 3,
      "byteOffset": 319380,
      "componentType": 5126,
      "count": 367,
      "max": [
        0.878867506980896,
        0.9986928105354309,
        0.9892035126686096
      ],
      "min": [
        -0.8788673877716064,
        -0.9948731064796448,
        -0.9994938373565674
      ],
      "type": "VEC3"
    },
    {
      "bufferView": 2,
      "byteOffset": 104992,
      "componentType": 5126,
      "count": 367,
      "max": [
        0.6735000014305115,
        0.9789999723434448
      ],
      "min": [
        0.022700000554323196,
        0.2402999997138977
      ],
      "type": "VEC2"
    },
    {
      "bufferView": 1,
      "byteOffset": 178680,
      "componentType": 5125,
      "count": 1077,
      "type": "SCALAR"
    },
    {
      "bufferView": 3,
      "byteOffset": 323784,
      "componentType": 5126,
      "count": 1554,
      "max": [
        0.7293959259986877,
        1.3934305906295776,
        0.04064568504691124
      ],
      "min": [
        -0.728842556476593,
        1.2972291707992554,
        -0.08803579211235046
      ],
      "type": "VEC3"
    },
    {
      "bufferView": 3,
      "byteOffset": 342432,
      "componentType": 5126,
      "count": 1554,
      "max": [
        0.9997431635856628,
        0.9998470544815063,
        0.9998654127120972
      ],
      "min": [
        -0.9997434020042419,
        -0.9993336796760559,
        -0.9993870258331299
      ],
      "type": "VEC3"
    },
    {
      "bufferView": 4,
      "byteOffset": 281440,
      "componentType": 5126,
      "count": 1554,
      "max": [
        0.501960813999176,
        0.501960813999176,
        0.501960813999176,
        1.0
      ],
      "min": [
        0.501960813999176,
        0.501960813999176,
        0.501960813999176,
        1.0
      ],
      "type": "VEC4"
    },
    {
      "bufferView": 2,
      "byteOffset": 107928,
      "componentType": 5126,
      "count": 1554,
      "max": [
        0.9972988963127136,
        0.5445354580879211
      ],
      "min": [
        0.48562660813331604,
        0.05563445761799812
      ],
      "type": "VEC2"
    },
    {
      "bufferView": 1,
      "byteOffset": 182988,
      "componentType": 5125,
      "count": 6576,
      "type": "SCALAR"
    },
    {
      "bufferView": 3,
      "byteOffset": 361080,
      "componentType": 5126,
      "count": 1054,
      "max": [
        0.10051918029785156,
        0.017512619495391846,
        0.9547540545463562
      ],
      "min": [
        -0.0445738211274147,
        -0.017512453719973564,
        -0.12242192775011063
      ],
      "type": "VEC3"
    },
    {
      "bufferView": 3,
      "byteOffset": 373728,
      "componentType": 5126,
      "count": 1054,
      "max": [
        1.0,
        1.0,
        1.0
      ],
      "min": [
        -1.0,
        -0.9999988079071045,
        -1.0
      ],
      "type": "VEC3"
    },
    {
      "bufferView": 4,
      "byteOffset": 306304,
      "componentType": 5126,
      "count": 1054,
      "max": [
        1.0,
        1.0,
        0.9999993443489075,
        1.0
      ],
      "min": [
        -1.0,
        -1.0,
        -0.9999974370002747,
        -1.0
      ],
      "type": "VEC4"
    },
    {
      "bufferView": 4,
      "byteOffset": 323168,
      "componentType": 5126,
      "count": 1054,
      "max": [
        0.501960813999176,
        0.501960813999176,
        0.501960813999176,
        1.0
      ],
      "min": [
        0.501960813999176,
        0.501960813999176,
        0.501960813999176,
        1.0
      ],
      "type": "VEC4"
    },
    {
      "bufferView": 2,
      "byteOffset": 120360,
      "componentType": 5126,
      "count": 1054,
      "max": [
        0.48011887073516846,
        0.7284037470817566
      ],
      "min": [
        0.012846251018345356,
        0.06456148624420166
      ],
      "type": "VEC2"
    },
    {
      "bufferView": 1,
      "byteOffset": 209292,
      "componentType": 5125,
      "count": 2769,
      "type": "SCALAR"
    },
    {
      "bufferView": 3,
      "byteOffset": 386376,
      "componentType": 5126,
      "count": 1053,
      "max": [
        0.10103335976600647,
        0.017512043938040733,
        0.9546762704849243
      ],
      "min": [
        -0.04405971243977547,
        -0.017512788996100426,
        -0.1224999651312828
      ],
      "type": "VEC3"
    },
    {
      "bufferView": 3,
      "byteOffset": 399012,
      "componentType": 5126,
      "count": 1053,
      "max": [
        1.0,
        1.0,
        1.0
      ],
      "min": [
        -1.0,
        -0.999998927116394,
        -1.0
      ],
      "type": "VEC3"
    },
    {
      "bufferView": 4,
      "byteOffset": 340032,
      "componentType": 5126,
      "count": 1053,
      "max": [
        1.0,
        1.0,
        0.9999992847442627,
        1.0
      ],
      "min": [
        -1.0,
        -1.0,
        -0.9999974370002747,
        -1.0
      ],
      "type": "VEC4"
    },
    {
      "bufferView": 4,
      "byteOffset": 356880,
      "componentType": 5126,
      "count": 1053,
      "max": [
        0.501960813999176,
        0.501960813999176,
        0.501960813999176,
        1.0
      ],
      "min": [
        0.501960813999176,
        0.501960813999176,
        0.501960813999176,
        1.0
      ],
      "type": "VEC4"
    },
    {
      "bufferView": 2,
      "byteOffset": 128792,
      "componentType": 5126,
      "count": 1053,
      "max": [
        0.48011887073516846,
        0.7284037470817566
      ],
      "min": [
        0.012846251018345356,
        0.06456148624420166
      ],
      "type": "VEC2"
    },
    {
      "bufferView": 1,
      "byteOffset": 220368,
      "componentType": 5125,
      "count": 2769,
      "type": "SCALAR"
    },
    {
      "bufferView": 3,
      "byteOffset": 411648,
      "componentType": 5126,
      "count": 9863,
      "max": [
        0.25951749086380005,
        1.1731736660003662,
        0.2980960011482239
      ],
      "min": [
        -0.25963595509529114,
        0.5575429201126099,
        -0.6100288033485413
      ],
      "type": "VEC3"
    },
    {
      "bufferView": 3,
      "byteOffset": 530004,
      "componentType": 5126,
      "count": 9863,
      "max": [
        1.0,
        1.0,
        1.0
      ],
      "min": [
        -1.0,
        -1.0,
        -1.0
      ],
      "type": "VEC3"
    },
    {
      "bufferView": 4,
      "byteOffset": 373728,
      "componentType": 5126,
      "count": 9863,
      "max": [
        1.0,
        1.0,
        1.0,
        1.0
      ],
      "min": [
        -1.0,
        -1.0,
        -1.0,
        -1.0
      ],
      "type": "VEC4"
    },
    {
      "bufferView": 4,
      "byteOffset": 531536,
      "componentType": 5126,
      "count": 9863,
      "max": [
        0.501960813999176,
        0.501960813999176,
        0.501960813999176,
        1.0
      ],
      "min": [
        0.501960813999176,
        0.501960813999176,
        0.501960813999176,
        1.0
      ],
      "type": "VEC4"
    },
    {
      "bufferView": 2,
      "byteOffset": 137216,
      "componentType": 5126,
      "count": 9863,
      "max": [
        0.996141791343689,
        0.9944256544113159
      ],
      "min": [
        0.008299843408167362,
        0.0025859735906124115
      ],
      "type": "VEC2"
    },
    {
      "bufferView": 1,
      "byteOffset": 231444,
      "componentType": 5125,
      "count": 24330,
      "type": "SCALAR"
    },
    {
      "bufferView": 3,
      "byteOffset": 648360,
      "componentType": 5126,
      "count": 111,
      "max": [
        2.578714370727539,
        1.4654042720794678,
        0.006579178851097822
      ],
      "min": [
        2.567232131958008,
        3.267288047936745e-05,
        -0.0034958708565682173
      ],
      "type": "VEC3"
    },
    {
      "bufferView": 3,
      "byteOffset": 649692,
      "componentType": 5126,
      "count": 111,
      "max": [
        0.8698604702949524,
        0.5554167628288269,
        0.9998360872268677
      ],
      "min": [
        -0.8594959378242493,
        -0.5554167628288269,
        -0.5111426711082458
      ],
      "type": "VEC3"
    },
    {
      "bufferView": 4,
      "byteOffset": 689344,
      "componentType": 5126,
      "count": 111,
      "max": [
        0.501960813999176,
        0.501960813999176,
        0.501960813999176,
        1.0
      ],
      "min": [
        0.501960813999176,
        0.501960813999176,
        0.501960813999176,
        1.0
      ],
      "type": "VEC4"
    },
    {
      "bufferView": 2,
      "byteOffset": 216120,
      "componentType": 5126,
      "count": 111,
      "max": [
        0.3157590329647064,
        0.2764541506767273
      ],
      "min": [
        0.2950129806995392,
        0.21260370314121246
      ],
      "type": "VEC2"
    },
    {
      "bufferView": 1,
      "byteOffset": 328764,
      "componentType": 5125,
      "count": 366,
      "type": "SCALAR"
    },
    {
      "bufferView": 3,
      "byteOffset": 651024,
      "componentType": 5126,
      "count": 111,
      "max": [
        2.081942081451416,
        1.4654042720794678,
        0.006579178851097822
      ],
      "min": [
        2.0704598426818848,
        3.267288047936745e-05,
        -0.0034958708565682173
      ],
      "type": "VEC3"
    },
    {
      "bufferView": 3,
      "byteOffset": 652356,
      "componentType": 5126,
      "count": 111,
      "max": [
        0.8698604702949524,
        0.5554167628288269,
        0.9998360872268677
      ],
      "min": [
        -0.8594959378242493,
        -0.5554167628288269,
        -0.5111426711082458
      ],
      "type": "VEC3"
    },
    {
      "bufferView": 4,
      "byteOffset": 691120,
      "componentType": 5126,
      "count": 111,
      "max": [
        0.501960813999176,
        0.501960813999176,
        0.501960813999176,
        1.0
      ],
      "min": [
        0.501960813999176,
        0.501960813999176,
        0.501960813999176,
        1.0
      ],
      "type": "VEC4"
    },
    {
      "bufferView": 2,
      "byteOffset": 217008,
      "componentType": 5126,
      "count": 111,
      "max": [
        0.3157590329647064,
        0.2764541506767273
      ],
      "min": [
        0.2950129806995392,
        0.21260370314121246
      ],
      "type": "VEC2"
    },
    {
      "bufferView": 1,
      "byteOffset": 330228,
      "componentType": 5125,
      "count": 366,
      "type": "SCALAR"
    },
    {
      "bufferView": 5,
      "componentType": 5126,
      "count": 153,
      "max": [
        1.0000001192092896,
        1.0,
        1.0,
        0.0,
        0.9999998807907104,
        1.0000001192092896,
        1.0000001192092896,
        0.0,
        1.0000001192092896,
        1.0000001192092896,
        1.0,
        0.0,
        1.6188734769821167,
        1.4191213846206665,
        2.5728745460510254,
        1.0
      ],
      "min": [
        -0.9999994039535522,
        -0.2805747091770172,
        -1.0000001192092896,
        0.0,
        -1.0,
        -0.9998741745948792,
        -0.9959982633590698,
        0.0,
        -0.5312244296073914,
        -1.0,
        -0.9999998807907104,
        0.0,
        -1.5477439165115356,
        -1.5841015577316284,
        -1.4125999212265015,
        1.0
      ],
      "type": "MAT4"
    },
    {
      "bufferView": 0,
      "componentType": 5123,
      "count": 7671,
      "type": "VEC4"
    },
    {
      "bufferView": 4,
      "byteOffset": 692896,
      "componentType": 5126,
      "count": 7671,
      "max": [
        1.0,
        0.4995070993900299,
        0.3032810091972351,
        0.030578244477510452
      ],
      "min": [
        0.37884530425071716,
        0.0,
        0.0,
        0.0
      ],
      "type": "VEC4"
    },
    {
      "bufferView": 0,
      "byteOffset": 61368,
      "componentType": 5123,
      "count": 2816,
      "type": "VEC4"
    },
    {
      "bufferView": 4,
      "byteOffset": 815632,
      "componentType": 5126,
      "count": 2816,
      "max": [
        1.0,
        0.5,
        0.30000001192092896,
        0.10000000149011612
      ],
      "min": [
        0.3374999761581421,
        0.0,
        0.0,
        0.0
      ],
      "type": "VEC4"
    },
    {
      "bufferView": 0,
      "byteOffset": 83896,
      "componentType": 5123,
      "count": 1124,
      "type": "VEC4"
    },
    {
      "bufferView": 4,
      "byteOffset": 860688,
      "componentType": 5126,
      "count": 1124,
      "max": [
        1.0,
        0.5,
        0.047857094556093216,
        0.0
      ],
      "min": [
        0.5,
        0.0,
        0.0,
        0.0
      ],
      "type": "VEC4"
    },
    {
      "bufferView": 0,
      "byteOffset": 92888,
      "componentType": 5123,
      "count": 1513,
      "type": "VEC4"
    },
    {
      "bufferView": 4,
      "byteOffset": 878672,
      "componentType": 5126,
      "count": 1513,
      "max": [
        1.0,
        0.5,
        0.2593967914581299,
        0.13355788588523865
      ],
      "min": [
        0.390603244304657,
        0.0,
        0.0,
        0.0
      ],
      "type": "VEC4"
    },
    {
      "bufferView": 0,
      "byteOffset": 104992,
      "componentType": 5123,
      "count": 367,
      "type": "VEC4"
    },
    {
      "bufferView": 4,
      "byteOffset": 902880,
      "componentType": 5126,
      "count": 367,
      "max": [
        1.0,
        0.4500000476837158,
        0.0,
        0.0
      ],
      "min": [
        0.5499999523162842,
        0.0,
        0.0,
        0.0
      ],
      "type": "VEC4"
    },
    {
      "bufferView": 0,
      "byteOffset": 107928,
      "componentType": 5123,
      "count": 1554,
      "type": "VEC4"
    },
    {
      "bufferView": 4,
      "byteOffset": 908752,
      "componentType": 5126,
      "count": 1554,
      "max": [
        1.0,
        0.5,
        0.09000000357627869,
        0.0
      ],
      "min": [
        0.5,
        0.0,
        0.0,
        0.0
      ],
      "type": "VEC4"
    },
    {
      "bufferView": 0,
      "byteOffset": 120360,
      "componentType": 5123,
      "count": 1054,
      "type": "VEC4"
    },
    {
      "bufferView": 4,
      "byteOffset": 933616,
      "componentType": 5126,
      "count": 1054,
      "max": [
        1.0,
        0.0,
        0.0,
        0.0
      ],
      "min": [
        1.0,
        0.0,
        0.0,
        0.0
      ],
      "type": "VEC4"
    },
    {
      "bufferView": 0,
      "byteOffset": 128792,
      "componentType": 5123,
      "count": 1053,
      "type": "VEC4"
    },
    {
      "bufferView": 4,
      "byteOffset": 950480,
      "componentType": 5126,
      "count": 1053,
      "max": [
        1.0,
        0.0,
        0.0,
        0.0
      ],
      "min": [
        1.0,
        0.0,
        0.0,
        0.0
      ],
      "type": "VEC4"
    },
    {
      "bufferView": 0,
      "byteOffset": 137216,
      "componentType": 5123,
      "count": 9863,
      "type": "VEC4"
    },
    {
      "bufferView": 4,
      "byteOffset": 967328,
      "componentType": 5126,
      "count": 9863,
      "max": [
        1.0,
        0.47788870334625244,
        0.18113744258880615,
        0.0
      ],
      "min": [
        0.49921268224716187,
        0.0,
        0.0,
        0.0
      ],
      "type": "VEC4"
    },
    {
      "bufferView": 0,
      "byteOffset": 216120,
      "componentType": 5123,
      "count": 111,
      "type": "VEC4"
    },
    {
      "bufferView": 4,
      "byteOffset": 1125136,
      "componentType": 5126,
      "count": 111,
      "max": [
        1.0,
        0.42719605565071106,
        0.14579184353351593,
        0.0
      ],
      "min": [
        0.5083651542663574,
        0.0,
        0.0,
        0.0
      ],
      "type": "VEC4"
    },
    {
      "bufferView": 0,
      "byteOffset": 217008,
      "componentType": 5123,
      "count": 111,
      "type": "VEC4"
    },
    {
      "bufferView": 4,
      "byteOffset": 1126912,
      "componentType": 5126,
      "count": 111,
      "max": [
        1.0,
        0.4271385967731476,
        0.14578858017921448,
        0.0
      ],
      "min": [
        0.508479118347168,
        0.0,
        0.0,
        0.0
      ],
      "type": "VEC4"
    }
  ],
  "asset": {
    "extras": {
      "author": "Prime Slayer3D (https://sketchfab.com/ianadrielbravo)",
      "license": "CC-BY-4.0 (http://creativecommons.org/licenses/by/4.0/)",
      "source": "https://sketchfab.com/3d-models/aotwa-mikasa-ackerman-20d55c7c03a447e2876212ef34cccc1b",
      "title": "Aotwa mikasa ackerman"
    },
    "generator": "Sketchfab-17.8.0",
    "version": "2.0"
  },
  "bufferViews": [
    {
      "buffer": 0,
      "byteLength": 217896,
      "byteStride": 8,
      "name": "shortBufferViews",
      "target": 34962
    },
    {
      "buffer": 0,
      "byteLength": 331692,
      "byteOffset": 217896,
      "name": "floatBufferViews",
      "target": 34963
    },
    {
      "buffer": 0,
      "byteLength": 217896,
      "byteOffset": 549588,
      "byteStride": 8,
      "name": "floatBufferViews",
      "target": 34962
    },
    {
      "buffer": 0,
      "byteLength": 653688,
      "byteOffset": 767484,
      "byteStride": 12,
      "name": "floatBufferViews",
      "target": 34962
    },
    {
      "buffer": 0,
      "byteLength": 1128688,
      "byteOffset": 1421172,
      "byteStride": 16,
      "name": "floatBufferViews",
      "target": 34962
    },
    {
      "buffer": 0,
      "byteLength": 9792,
      "byteOffset": 2549860,
      "name": "floatBufferViews"
    }
  ],
  "buffers": [
    {
      "byteLength": 2559652,
      "uri": "scene.bin"
    }
  ],
  "images": [
    {
      "uri": "textures/role_sanli_diaocha_body_mat_01_baseColor.png"
    },
    {
      "uri": "textures/role_sanli_diaocha_body_mat_01_normal.png"
    },
    {
      "uri": "textures/role_sanli_diaocha_face_mat_01_baseColor.png"
    },
    {
      "uri": "textures/role_sanli_diaocha_hair_mat_01_baseColor.png"
    },
    {
      "uri": "textures/role_ailun_diaocha_wuqi_mat_01_baseColor.png"
    },
    {
      "uri": "textures/role_ailun_diaocha_wuqi_mat_01_normal.png"
    }
  ],
  "materials": [
    {
      "doubleSided": true,
      "name": "role_sanli_diaocha_body_mat_01",
      "normalTexture": {
        "index": 1
      },
      "pbrMetallicRoughness": {
        "baseColorTexture": {
          "index": 0
        },
        "metallicFactor": 0.0,
        "roughnessFactor": 0.9577051494623774
      }
    },
    {
      "doubleSided": true,
      "name": "role_sanli_diaocha_face_mat_01",
      "pbrMetallicRoughness": {
        "baseColorTexture": {
          "index": 2
        },
        "metallicFactor": 0.0,
        "roughnessFactor": 0.9577051494623774
      }
    },
    {
      "doubleSided": true,
      "name": "role_sanli_diaocha_foot_mat_01",
      "normalTexture": {
        "index": 1
      },
      "pbrMetallicRoughness": {
        "baseColorTexture": {
          "index": 0
        },
        "metallicFactor": 0.0,
        "roughnessFactor": 0.9577051494623774
      }
    },
    {
      "doubleSided": true,
      "name": "role_sanli_diaocha_hair_mat_01",
      "pbrMetallicRoughness": {
        "baseColorTexture": {
          "index": 3
        },
        "metallicFactor": 0.0,
        "roughnessFactor": 0.9577051494623774
      }
    },
    {
      "doubleSided": true,
      "name": "role_sanli_diaocha_skin_mat_01",
      "pbrMetallicRoughness": {
        "baseColorTexture": {
          "index": 0
        },
        "metallicFactor": 0.0,
        "roughnessFactor": 0.9577051494623774
      }
    },
    {
      "doubleSided": true,
      "name": "role_ailun_diaocha_wuqi_mat_01",
      "normalTexture": {
        "index": 5
      },
      "pbrMetallicRoughness": {
        "baseColorTexture": {
          "index": 4
        },
        "metallicFactor": 0.0,
        "roughnessFactor": 0.9577051494623774
      }
    },
    {
      "doubleSided": true,
      "name": "role_ailun_diaocha_zhuangbei_mat_01",
      "normalTexture": {
        "index": 5
      },
      "pbrMetallicRoughness": {
        "baseColorTexture": {
          "index": 4
        },
        "metallicFactor": 0.0,
        "roughnessFactor": 0.9577051494623774
      }
    },
    {
      "doubleSided": true,
      "name": "role_ailun_diaocha_gangsheng_mat_01",
      "pbrMetallicRoughness": {
        "metallicFactor": 0.0,
        "roughnessFactor": 0.9577051494623774
      }
    }
  ],
  "meshes": [
    {
      "name": "role_sanli_diaocha_body_role_sanli_diaocha_body_mat_01_0",
      "primitives": [
        {
          "attributes": {
            "COLOR_0": 3,
            "JOINTS_0": 58,
            "NORMAL": 1,
            "POSITION": 0,
            "TANGENT": 2,
            "TEXCOORD_0": 4,
            "WEIGHTS_0": 59
          },
          "indices": 5,
          "material": 0,
          "mode": 4
        }
      ]
    },
    {
      "name": "role_sanli_diaocha_face_role_sanli_diaocha_face_mat_01_0",
      "primitives": [
        {
          "attributes": {
            "JOINTS_0": 60,
            "NORMAL": 7,
            "POSITION": 6,
            "TEXCOORD_0": 8,
            "WEIGHTS_0": 61
          },
          "indices": 9,
          "material": 1,
          "mode": 4
        }
      ]
    },
    {
      "name": "role_sanli_diaocha_foot_role_sanli_diaocha_foot_mat_01_0",
      "primitives": [
        {
          "attributes": {
            "COLOR_0": 13,
            "JOINTS_0": 62,
            "NORMAL": 11,
            "POSITION": 10,
            "TANGENT": 12,
            "TEXCOORD_0": 14,
            "WEIGHTS_0": 63
          },
          "indices": 15,
          "material": 2,
          "mode": 4
        }
      ]
    },
    {
      "name": "role_sanli_diaocha_hair_role_sanli_diaocha_hair_mat_01_0",
      "primitives": [
        {
          "attributes": {
            "JOINTS_0": 64,
            "NORMAL": 17,
            "POSITION": 16,
            "TEXCOORD_0": 18,
            "WEIGHTS_0": 65
          },
          "indices": 19,
          "material": 3,
          "mode": 4
        }
      ]
    },
    {
      "name": "role_sanli_diaocha_heixian_role_sanli_diaocha_face_mat_01_0",
      "primitives": [
        {
          "attributes": {
            "JOINTS_0": 66,
            "NORMAL": 21,
            "POSITION": 20,
            "TEXCOORD_0": 22,
            "WEIGHTS_0": 67
          },
          "indices": 23,
          "material": 1,
          "mode": 4
        }
      ]
    },
    {
      "name": "role_sanli_diaocha_skin_role_sanli_diaocha_skin_mat_01_0",
      "primitives": [
        {
          "attributes": {
            "COLOR_0": 26,
            "JOINTS_0": 68,
            "NORMAL": 25,
            "POSITION": 24,
            "TEXCOORD_0": 27,
            "WEIGHTS_0": 69
          },
          "indices": 28,
          "material": 4,
          "mode": 4
        }
      ]
    },
    {
      "name": "role_sanli_diaocha_wuqi01_role_ailun_diaocha_wuqi_mat_01_0",
      "primitives": [
        {
          "attributes": {
            "COLOR_0": 32,
            "JOINTS_0": 70,
            "NORMAL": 30,
            "POSITION": 29,
            "TANGENT": 31,
            "TEXCOORD_0": 33,
            "WEIGHTS_0": 71
          },
          "indices": 34,
          "material": 5,
          "mode": 4
        }
      ]
    },
    {
      "name": "role_sanli_diaocha_wuqi02_role_ailun_diaocha_wuqi_mat_01_0",
      "primitives": [
        {
          "attributes": {
            "COLOR_0": 38,
            "JOINTS_0": 72,
            "NORMAL": 36,
            "POSITION": 35,
            "TANGENT": 37,
            "TEXCOORD_0": 39,
            "WEIGHTS_0": 73
          },
          "indices": 40,
          "material": 5,
          "mode": 4
        }
      ]
    },
    {
      "name": "role_sanli_diaocha_zhuangbei_role_ailun_diaocha_zhuangbei_mat_01_0",
      "primitives": [
        {
          "attributes": {
            "COLOR_0": 44,
            "JOINTS_0": 74,
            "NORMAL": 42,
            "POSITION": 41,
            "TANGENT": 43,
            "TEXCOORD_0": 45,
            "WEIGHTS_0": 75
          },
          "indices": 46,
          "material": 6,
          "mode": 4
        }
      ]
    },
    {
      "name": "role_sanli_xunlian_gangshengL_role_ailun_diaocha_gangsheng_mat_01_0",
      "primitives": [
        {
          "attributes": {
            "COLOR_0": 49,
            "JOINTS_0": 76,
            "NORMAL": 48,
            "POSITION": 47,
            "TEXCOORD_0": 50,
            "WEIGHTS_0": 77
          },
          "indices": 51,
          "material": 7,
          "mode": 4
        }
      ]
    },
    {
      "name": "role_sanli_xunlian_gangshengR_role_ailun_diaocha_gangsheng_mat_01_0",
      "primitives": [
        {
          "attributes": {
            "COLOR_0": 54,
            "JOINTS_0": 78,
            "NORMAL": 53,
            "POSITION": 52,
            "TEXCOORD_0": 55,
            "WEIGHTS_0": 79
          },
          "indices": 56,
          "material": 7,
          "mode": 4
        }
      ]
    }
  ],
  "nodes": [
    {
      "children": [
        1
      ],
      "matrix": [
        1.0,
        0.0,
        0.0,
        0.0,
        0.0,
        2.220446049250313e-16,
        -1.0,
        0.0,
        0.0,
        1.0,
        2.220446049250313e-16,
        0.0,
        0.0,
        0.0,
        0.0,
        1.0
      ],
      "name": "Sketchfab_model"
    },
    {
      "children": [
        2
      ],
      "matrix": [
        0.009999999776482582,
        0.0,
        0.0,
        0.0,
        0.0,
        0.0,
        0.009999999776482582,
        0.0,
        0.0,
        -0.009999999776482582,
        0.0,
        0.0,
        0.0,
        0.0,
        0.0,
        1.0
      ],
      "name": "role_sanli_diaocha_skin.fbx"
    },
    {
      "children": [
        3
      ],
      "name": "RootNode"
    },
    {
      "children": [
        4
      ],
      "name": "role_sanli_xunlian_battle"
    },
    {
      "children": [
        5
      ],
      "name": "role_sanli_diaocha_battle"
    },
    {
      "children": [
        6,
        8,
        10,
        12,
        14,
        16,
        18,
        20,
        22,
        24,
        26,
        28,
        7,
        9,
        11,
        13,
        15,
        17,
        19,
        21,
        23,
        25,
        27
      ],
      "name": "Object_5"
    },
    {
      "children": [
        29
      ],
      "name": "_rootJoint"
    },
    {
      "matrix": [
        1.0,
        5.293955920339377e-23,
        2.117582368135751e-22,
        0.0,
        2.117582368135751e-22,
        6.123233995736766e-17,
        -1.0,
        0.0,
        -5.293955920339378e-23,
        1.0,
        6.123233995736766e-17,
        0.0,
        0.0002766272227745504,
        -4.440892098500626e-16,
        0.6610000133514404,
        1.0
      ],
      "name": "Object_7"
    },
    {
      "mesh": 0,
      "name": "Object_8",
      "skin": 0
    },
    {
      "matrix": [
        1.0000000000000002,
        0.0,
        4.235164736271502e-22,
        0.0,
        4.235164736271502e-22,
        6.123233995736767e-17,
        -1.0000000000000002,
        0.0,
        -2.593290469068319e-38,
        1.0,
        6.123233995736766e-17,
        0.0,
        -6.938893903907228e-18,
        -2.220446049250313e-16,
        -1.3877787807814457e-17,
        1.0
      ],
      "name": "Object_9"
    },
    {
      "mesh": 1,
      "name": "Object_10",
      "skin": 0
    },
    {
      "matrix": [
        0.9999999999999999,
        -1.734723475976807e-18,
        0.0,
        0.0,
        1.0622117761303836e-34,
        6.123233995736765e-17,
        -0.9999999999999998,
        0.0,
        1.734723475976807e-18,
        0.9999999999999998,
        6.123233995736765e-17,
        0.0,
        0.0002766272227745503,
        1.1102230246251565e-16,
        -2.6020852139652106e-18,
        1.0
      ],
      "name": "Object_11"
    },
    {
      "mesh": 2,
      "name": "Object_12",
      "skin": 0
    },
    {
      "matrix": [
        1.0,
        0.0,
        -2.117582368135751e-22,
        0.0,
        -2.117582368135751e-22,
        6.123233995736766e-17,
        -1.0,
        0.0,
        1.29664523453416e-38,
        1.0000000000000002,
        6.123233995736767e-17,
        0.0,
        0.0,
        -2.220446049250313e-16,
        6.938893903907228e-18,
        1.0
      ],
      "name": "Object_13"
    },
    {
      "mesh": 3,
      "name": "Object_14",
      "skin": 0
    },
    {
      "matrix": [
        1.0,
        -1.734723475976807e-18,
        5.551115123125783e-17,
        0.0,
        5.551115123125784e-17,
        6.123233995736767e-17,
        -1.0000000000000002,
        0.0,
        1.734723475976804e-18,
        1.0000000000000002,
        6.123233995736767e-17,
        0.0,
        0.0,
        -2.220446049250313e-16,
        -1.3877787807814457e-17,
        1.0
      ],
      "name": "Object_15"
    },
    {
      "mesh": 4,
      "name": "Object_16",
      "skin": 0
    },
    {
      "matrix": [
        1.0,
        8.673617379884035e-18,
        6.938893903907228e-18,
        0.0,
        6.938893903907227e-18,
        6.123233995736765e-17,
        -0.9999999999999999,
        0.0,
        -8.673617379884035e-18,
        1.0,
        6.123233995736766e-17,
        0.0,
        0.0002766653778963901,
        0.0,
        0.0,
        1.0
      ],
      "name": "Object_17"
    },
    {
      "mesh": 5,
      "name": "Object_18",
      "skin": 0
    },
    {
      "matrix": [
        1.0,
        0.0,
        -7.111012357235979e-23,
        0.0,
        -7.111012357234402e-23,
        -6.657902724080983e-07,
        -0.9999999999997784,
        0.0,
        -4.734442854421495e-29,
        0.9999999999997784,
        -6.657902724080983e-07,
        0.0,
        -1.734723475976807e-18,
        1.5258788721439487e-07,
        -9.536742978655255e-09,
        1.0
      ],
      "name": "Object_19"
    },
    {
      "mesh": 6,
      "name": "Object_20",
      "skin": 0
    },
    {
      "matrix": [
        0.999999999999985,
        -8.742276849334037e-08,
        -1.509957975175569e-07,
        0.0,
        -1.5099580915860068e-07,
        -1.331580413209899e-07,
        -0.9999999999999796,
        0.0,
        8.742274838703394e-08,
        0.9999999999999873,
        -1.3315805452145955e-07,
        0.0,
        -1.734723475976807e-18,
        -1.5258788721439487e-07,
        -1.668930060816365e-08,
        1.0
      ],
      "name": "Object_21"
    },
    {
      "mesh": 7,
      "name": "Object_22",
      "skin": 0
    },
    {
      "matrix": [
        0.9999999999999927,
        8.742277643017961e-08,
        8.742277643017993e-08,
        0.0,
        8.7422764789132e-08,
        1.331580618425779e-07,
        -0.9999999999999873,
        0.0,
        -8.742278807122597e-08,
        0.9999999999999876,
        1.3315805419983608e-07,
        0.0,
        8.271806125530277e-25,
        0.0,
        0.0,
        1.0
      ],
      "name": "Object_23"
    },
    {
      "mesh": 8,
      "name": "Object_24",
      "skin": 0
    },
    {
      "matrix": [
        1.0,
        -2.6469779601696886e-23,
        0.0,
        0.0,
        1.6208065431676996e-39,
        6.123233995736766e-17,
        -1.0,
        0.0,
        2.6469779601696886e-23,
        1.0,
        6.123233995736766e-17,
        0.0,
        2.5726559162139893,
        -7.940933880509066e-23,
        -0.0009698483045212924,
        1.0
      ],
      "name": "Object_25"
    },
    {
      "mesh": 9,
      "name": "Object_26",
      "skin": 0
    },
    {
      "matrix": [
        1.0,
        0.0,
        0.0,
        0.0,
        0.0,
        6.123233995736766e-17,
        -1.0,
        0.0,
        0.0,
        1.0,
        6.123233995736766e-17,
        0.0,
        2.075883626937866,
        -1.2110441155659171e-23,
        -0.0009698483045212923,
        1.0
      ],
      "name": "Object_27"
    },
    {
      "mesh": 10,
      "name": "Object_28",
      "skin": 0
    },
    {
      "children": [
        30,
        175,
        176,
        177,
        178,
        179,
        180,
        181,
        182,
        183,
        184,
        185,
        186,
        187,
        188,
        189,
        190,
        191
      ],
      "name": "role_sanli_diaocha_skin_00"
    },
    {
      "children": [
        31,
        153
      ],
      "name": "Bip001_01",
      "rotation": [
        0.17706109583377838,
        0.6820256114006042,
        0.6951481699943542,
        -0.14233611524105072
      ],
      "translation": [
        -0.04734737426042557,
        0.9161462187767029,
        0.021287020295858383
      ]
    },
    {
      "children": [
        32
      ],
      "name": "Bip001 Pelvis_02",
      "rotation": [
        -0.4999997019767761,
        -0.5000002980232239,
        -0.49999916553497314,
        0.5000008344650269
      ]
    },
    {
      "children": [
        33,
        41,
        49,
        141,
        146,
        151,
        152
      ],
      "name": "Bip001 Spine_03",
      "rotation": [
        -0.010292439721524715,
        0.010142331942915916,
        -0.02280217595398426,
        0.9996355772018433
      ],
      "translation": [
        0.08330222964286804,
        0.012394923716783524,
        1.5258788153005298e-06
      ]
    },
    {
      "children": [
        34,
        38,
        40
      ],
      "name": "Bip001 L Thigh_04",
      "rotation": [
        -0.07006135582923889,
        0.9716693162918091,
        0.196311354637146,
        -0.11140934377908707
      ],
      "translation": [
        -0.084324412047863,
        -0.017958277836441994,
        0.08348295837640762
      ]
    },
    {
      "children": [
        35,
        37
      ],
      "name": "Bip001 L Calf_05",
      "rotation": [
        -5.726381147042048e-08,
        2.7805958424664823e-08,
        -0.09313652664422989,
        0.9956533312797546
      ],
      "translation": [
        0.3752315044403076,
        1.3877787807814457e-17,
        -1.907348590179936e-08
      ]
    },
    {
      "children": [
        36
      ],
      "name": "Bip001 L Foot_06",
      "rotation": [
        -0.19317251443862915,
        -0.12770284712314606,
        0.06568395346403122,
        0.9705987572669983
      ],
      "translation": [
        0.44591522216796875,
        -2.8610228852699038e-08,
        2.7755575615628914e-17
      ]
    },
    {
      "name": "Bip001 L Toe0_07",
      "rotation": [
        -0.02010883204638958,
        0.020929187536239624,
        0.7163220047950745,
        0.6971659660339355
      ],
      "translation": [
        0.10510890930891037,
        0.1382584124803543,
        0.0023956489749252796
      ]
    },
    {
      "name": "Bip001 L Calf_05_0"
    },
    {
      "children": [
        39
      ],
      "name": "Point006_08",
      "rotation": [
        0.003079266520217061,
        0.002312680706381798,
        0.7989537119865417,
        0.6013801693916321
      ],
      "translation": [
        0.12526962161064148,
        -0.027678346261382103,
        -0.1028553918004036
      ]
    },
    {
      "name": "Point007_09",
      "rotation": [
        1.0430811414607888e-07,
        1.3038530255471414e-08,
        1.3411046495548362e-07,
        1.0
      ],
      "translation": [
        -0.28826504945755005,
        1.5258788721439487e-07,
        3.814697180359872e-08
      ]
    },
    {
      "name": "Bip001 L Thigh_04_0"
    },
    {
      "children": [
        42,
        46,
        48
      ],
      "name": "Bip001 R Thigh_010",
      "rotation": [
        -0.03290340304374695,
        0.9894967079162598,
        -0.10828390717506409,
        0.08993438631296158
      ],
      "translation": [
        -0.08093719184398651,
        -0.014360770583152771,
        -0.08744107186794281
      ]
    },
    {
      "children": [
        43,
        45
      ],
      "name": "Bip001 R Calf_011",
      "rotation": [
        1.4658204428030785e-08,
        -1.6976658301359748e-08,
        -0.1315307319164276,
        0.9913122057914734
      ],
      "translation": [
        0.3752315044403076,
        -2.7755575615628914e-17,
        1.907348590179936e-08
      ]
    },
    {
      "children": [
        44
      ],
      "name": "Bip001 R Foot_012",
      "rotation": [
        0.048752326518297195,
        0.0939280316233635,
        0.08154305070638657,
        0.9910355806350708
      ],
      "translation": [
        0.4459151327610016,
        2.38418573772492e-09,
        0.0
      ]
    },
    {
      "name": "Bip001 R Toe0_013",
      "rotation": [
        0.06611739099025726,
        -0.06306177377700806,
        0.7197592258453369,
        0.688184916973114
      ],
      "translation": [
        0.10510892421007156,
        0.1382584273815155,
        -0.0023956298828125
      ]
    },
    {
      "name": "Bip001 R Calf_011_0"
    },
    {
      "children": [
        47
      ],
      "name": "Point002_014",
      "rotation": [
        -0.0030766117852181196,
        -0.002316356636583805,
        0.7989538908004761,
        0.6013799905776978
      ],
      "translation": [
        0.1252882331609726,
        -0.02768002450466156,
        0.1004423275589943
      ]
    },
    {
      "name": "Point005_015",
      "rotation": [
        1.0430813546236095e-07,
        -7.450578820566989e-09,
        1.4901161193847656e-08,
        1.0
      ],
      "translation": [
        -0.28826507925987244,
        2.288818308215923e-07,
        5.551115123125783e-17
      ]
    },
    {
      "name": "Bip001 R Thigh_010_0"
    },
    {
      "children": [
        50,
        140
      ],
      "name": "Bip001 Spine1_016",
      "rotation": [
        0.013869039714336395,
        0.040531884878873825,
        -0.01166736613959074,
        0.9990139603614807
      ],
      "translation": [
        0.08670517057180405,
        -7.784843182889745e-05,
        -2.0819902601942886e-06
      ]
    },
    {
      "children": [
        51,
        136
      ],
      "name": "Bip001 Spine2_017",
      "rotation": [
        -0.010088613256812096,
        0.03441792353987694,
        0.004030550830066204,
        0.9993485808372498
      ],
      "translation": [
        0.09784431010484695,
        -0.00013576507626567036,
        2.6988982426701114e-06
      ]
    },
    {
      "children": [
        52,
        87,
        111,
        135
      ],
      "name": "Bip001 Neck_018",
      "rotation": [
        0.2011881321668625,
        -0.0033840606920421124,
        -0.010368626564741135,
        0.9794920086860657
      ],
      "translation": [
        0.22084075212478638,
        -0.02279055491089821,
        -1.607894773769658e-05
      ]
    },
    {
      "children": [
        53,
        56,
        59,
        62,
        65,
        66,
        67,
        68,
        69,
        70,
        71,
        72,
        73,
        74,
        75,
        76,
        77,
        78,
        79,
        80,
        81,
        82,
        83,
        84,
        85,
        86
      ],
      "name": "Bip001 Head_019",
      "rotation": [
        0.2771863043308258,
        -0.02916586771607399,
        0.14035318791866302,
        0.9500621557235718
      ],
      "translation": [
        0.05659027025103569,
        -0.009372863918542862,
        -9.53674295089968e-09
      ]
    },
    {
      "children": [
        54
      ],
      "name": "Bone017_020",
      "rotation": [
        -0.0022315895184874535,
        0.9933356642723083,
        0.09313502907752991,
        0.06786104291677475
      ],
      "translation": [
        0.15800750255584717,
        0.03128444775938988,
        -0.08522707968950272
      ]
    },
    {
      "children": [
        55
      ],
      "name": "Bone018_021",
      "rotation": [
        -0.03212764114141464,
        0.10777267813682556,
        0.027714144438505173,
        0.9932697415351868
      ],
      "translation": [
        0.06724502146244049,
        -1.201629629576928e-06,
        1.907348590179936e-08
      ]
    },
    {
      "name": "Bone025_022",
      "rotation": [
        -0.013283876702189445,
        0.06789806485176086,
        0.1723814606666565,
        0.9825975894927979
      ],
      "translation": [
        0.06451385468244553,
        -5.435943535303522e-07,
        -2.8610228852699038e-08
      ]
    },
    {
      "children": [
        57
      ],
      "name": "Bone026_023",
      "rotation": [
        0.13044051826000214,
        0.6974718570709229,
        0.6948594450950623,
        0.11699832230806351
      ],
      "translation": [
        0.1954345703125,
        0.08926906436681747,
        0.0005511474446393549
      ]
    },
    {
      "children": [
        58
      ],
      "name": "Bone022_024",
      "rotation": [
        -0.012422358617186546,
        0.09359222650527954,
        -0.09717303514480591,
        0.9907792806625366
      ],
      "translation": [
        0.06233581528067589,
        2.4676322141203855e-07,
        -5.551115123125783e-17
      ]
    },
    {
      "name": "Bone024_025",
      "rotation": [
        -0.02924596332013607,
        0.07900027930736542,
        -0.15081049501895905,
        0.9849669337272644
      ],
      "translation": [
        0.04990951344370842,
        -1.907348590179936e-08,
        -1.907348590179936e-08
      ]
    },
    {
      "children": [
        60
      ],
      "name": "Bone028_026",
      "rotation": [
        0.041409242898225784,
        0.09637533128261566,
        0.9944517016410828,
        0.007931098341941833
      ],
      "translation": [
        0.15787246823310852,
        0.030157489702105522,
        0.08499997109174728
      ]
    },
    {
      "children": [
        61
      ],
      "name": "Bone012_027",
      "rotation": [
        0.02908165566623211,
        0.12684646248817444,
        -0.022849934175610542,
        0.9912326335906982
      ],
      "translation": [
        0.06724487245082855,
        1.3351440202313825e-06,
        -1.907348590179936e-08
      ]
    },
    {
      "name": "Bone030_028",
      "rotation": [
        0.011312738060951233,
        0.09228161722421646,
        -0.16753579676151276,
        0.9814723134040833
      ],
      "translation": [
        0.06451385468244553,
        5.626678216685832e-07,
        -1.907348590179936e-08
      ]
    },
    {
      "children": [
        63,
        64
      ],
      "name": "BqBone008_029",
      "rotation": [
        0.44442620873451233,
        0.8958149552345276,
        0.0009464541799388826,
        0.0004688322660513222
      ],
      "translation": [
        0.03682464361190796,
        0.03368564695119858,
        4.291534239087014e-08
      ]
    },
    {
      "name": "BqPoint019_030",
      "rotation": [
        -0.26815465092658997,
        0.6542880535125732,
        0.26815447211265564,
        0.6542884707450867
      ],
      "translation": [
        0.07258056849241257,
        0.027112578973174095,
        -0.008942763321101665
      ]
    },
    {
      "name": "BqPoint022_031",
      "rotation": [
        -0.26815465092658997,
        0.6542880535125732,
        0.26815447211265564,
        0.6542884707450867
      ],
      "translation": [
        0.07258064299821854,
        0.02707679755985737,
        0.00805719755589962
      ]
    },
    {
      "name": "BqPoint010_032",
      "rotation": [
        0.5228583812713623,
        0.4760453402996063,
        0.5228574872016907,
        -0.4760461747646332
      ],
      "translation": [
        0.10643066465854645,
        0.10189121216535568,
        0.04000014066696167
      ]
    },
    {
      "name": "BqPoint011_033",
      "rotation": [
        0.5228583812713623,
        0.4760453402996063,
        0.5228574872016907,
        -0.4760461747646332
      ],
      "translation": [
        0.07320037484169006,
        0.09206411987543106,
        0.03800003230571747
      ]
    },
    {
      "name": "BqPoint012_034",
      "rotation": [
        0.5228583812713623,
        0.4760453402996063,
        0.5228574872016907,
        -0.4760461747646332
      ],
      "translation": [
        0.09491058439016342,
        0.09866481274366379,
        0.03952896595001221
      ]
    },
    {
      "name": "BqPoint013_035",
      "rotation": [
        0.5228583812713623,
        0.4760453402996063,
        0.5228574872016907,
        -0.4760461747646332
      ],
      "translation": [
        0.08468246459960938,
        0.09471053630113602,
        0.03655853495001793
      ]
    },
    {
      "name": "BqPoint014_036",
      "rotation": [
        -0.4693257510662079,
        0.5288981199264526,
        0.4693250060081482,
        0.5288989543914795
      ],
      "scale": [
        -1.0,
        -1.0,
        -1.0
      ],
      "translation": [
        0.10643050819635391,
        0.10189135372638702,
        -0.03999987617135048
      ]
    },
    {
      "name": "BqPoint015_037",
      "rotation": [
        -0.4693257510662079,
        0.5288981199264526,
        0.4693250060081482,
        0.5288989543914795
      ],
      "scale": [
        -1.0,
        -1.0,
        -1.0
      ],
      "translation": [
        0.07320022583007813,
        0.09206422418355942,
        -0.03800003230571747
      ]
    },
    {
      "name": "BqPoint016_038",
      "rotation": [
        -0.4693257510662079,
        0.5288981199264526,
        0.4693250060081482,
        0.5288989543914795
      ],
      "scale": [
        -1.0,
        -1.0,
        -1.0
      ],
      "translation": [
        0.09491027891635895,
        0.09866493195295334,
        -0.03952880948781967
      ]
    },
    {
      "name": "BqPoint017_039",
      "rotation": [
        -0.46932563185691833,
        0.528898298740387,
        0.46932506561279297,
        0.5288988947868347
      ],
      "scale": [
        -1.0,
        -1.0,
        -1.0
      ],
      "translation": [
        0.08468230813741684,
        0.09471063315868378,
        -0.03655853495001793
      ]
    },
    {
      "name": "BqPoint018_040",
      "rotation": [
        0.5228583812713623,
        0.4760453402996063,
        0.5228574872016907,
        -0.4760461747646332
      ],
      "translation": [
        0.016934813931584358,
        0.10057498514652252,
        -0.019999848678708076
      ]
    },
    {
      "name": "BqPoint020_041",
      "rotation": [
        0.5228583812713623,
        0.4760453402996063,
        0.5228574872016907,
        -0.4760461747646332
      ],
      "translation": [
        0.022952422499656677,
        0.11207792162895203,
        0.009000245481729507
      ]
    },
    {
      "name": "BqPoint021_042",
      "rotation": [
        0.5228583812713623,
        0.4760453402996063,
        0.5228574872016907,
        -0.4760461747646332
      ],
      "translation": [
        0.01693466119468212,
        0.10057493299245834,
        0.0200001560151577
      ]
    },
    {
      "name": "BqPoint023_043",
      "rotation": [
        0.5228583812713623,
        0.4760453402996063,
        0.5228574872016907,
        -0.4760461747646332
      ],
      "translation": [
        0.022952575236558914,
        0.11207792162895203,
        -0.008999786339700222
      ]
    },
    {
      "name": "Point012_044",
      "rotation": [
        0.5228583812713623,
        0.4760453402996063,
        0.5228574872016907,
        -0.4760461747646332
      ],
      "translation": [
        0.08047530800104141,
        0.0849873274564743,
        0.05399993807077408
      ]
    },
    {
      "name": "Point013_045",
      "rotation": [
        0.5228583812713623,
        0.4760453402996063,
        0.5228574872016907,
        -0.4760461747646332
      ],
      "translation": [
        0.08811233192682266,
        0.09637122601270676,
        0.01198013499379158
      ]
    },
    {
      "name": "Point015_046",
      "rotation": [
        0.5228583812713623,
        0.4760453402996063,
        0.5228574872016907,
        -0.4760461747646332
      ],
      "translation": [
        0.08854705840349197,
        0.09631916135549545,
        -0.013537905178964138
      ]
    },
    {
      "name": "Point017_047",
      "rotation": [
        0.5288987755775452,
        0.4693252146244049,
        0.5288978815078735,
        -0.46932604908943176
      ],
      "scale": [
        1.0,
        1.0,
        1.0000009536743164
      ],
      "translation": [
        0.08047515898942947,
        0.08498726040124893,
        -0.05399993807077408
      ]
    },
    {
      "name": "Point019_048",
      "rotation": [
        -0.357919305562973,
        -0.3258745074272156,
        -0.6470353007316589,
        0.5891053080558777
      ],
      "translation": [
        0.11107268929481506,
        0.09227398037910461,
        0.052786462008953094
      ]
    },
    {
      "name": "Point020_049",
      "rotation": [
        0.5112705230712891,
        0.4738864302635193,
        0.5260649919509888,
        -0.48712393641471863
      ],
      "translation": [
        0.10479842871427536,
        0.10389779508113861,
        0.022422505542635918
      ]
    },
    {
      "name": "Point021_050",
      "rotation": [
        0.3508947789669037,
        -0.3853999376296997,
        0.5745537877082825,
        0.6310528516769409
      ],
      "scale": [
        -1.0,
        -1.0,
        -1.0
      ],
      "translation": [
        0.11107268929481506,
        0.09227415174245834,
        -0.05278622359037399
      ]
    },
    {
      "name": "Point022_051",
      "rotation": [
        0.48712393641471863,
        -0.5260649919509888,
        0.4738864302635193,
        0.5112705230712891
      ],
      "scale": [
        -1.0,
        -1.0,
        -1.0
      ],
      "translation": [
        0.10479827970266342,
        0.10389787703752518,
        -0.02242223359644413
      ]
    },
    {
      "name": "Head_bar_052",
      "rotation": [
        1.3877787807814457e-17,
        0.0,
        0.0,
        1.0
      ]
    },
    {
      "name": "Bip001 Head_019_0"
    },
    {
      "children": [
        88
      ],
      "name": "Bip001 L Clavicle_053",
      "rotation": [
        0.7648904919624329,
        0.0383123978972435,
        0.6422858238220215,
        0.030722180381417274
      ],
      "translation": [
        -0.066522978246212,
        0.019671935588121414,
        0.053047455847263336
      ]
    },
    {
      "children": [
        89,
        108
      ],
      "name": "Bip001 L UpperArm_054",
      "rotation": [
        -0.00272710295394063,
        0.006813979707658291,
        -0.08461301773786545,
        0.9963868856430054
      ],
      "translation": [
        0.10152396559715271,
        -1.907348590179936e-08,
        7.629394360719743e-08
      ]
    },
    {
      "children": [
        90
      ],
      "name": "Bip001 L Forearm_055",
      "rotation": [
        1.3791130459850365e-09,
        1.4866402331392692e-08,
        -0.1543022245168686,
        0.9880236983299255
      ],
      "translation": [
        0.18958663940429688,
        -2.8610228852699038e-08,
        -7.629394360719743e-08
      ]
    },
    {
      "children": [
        91,
        94,
        97,
        100,
        103,
        106,
        107
      ],
      "name": "Bip001 L Hand_056",
      "rotation": [
        -0.5688653588294983,
        0.36342865228652954,
        -0.4253038465976715,
        0.6028502583503723
      ],
      "translation": [
        0.22483550012111664,
        -1.3877787807814457e-17,
        0.0
      ]
    },
    {
      "children": [
        92
      ],
      "name": "Bip001 L Finger0_057",
      "rotation": [
        0.7204591035842896,
        0.2679853141307831,
        -0.04338512942194939,
        0.6381537914276123
      ],
      "translation": [
        0.011803798377513885,
        0.012842406518757343,
        -0.03662300109863281
      ]
    },
    {
      "children": [
        93
      ],
      "name": "Bip001 L Finger01_058",
      "rotation": [
        -0.00010976343037327752,
        -1.6161150995230855e-07,
        0.29521477222442627,
        0.9554309248924255
      ],
      "translation": [
        0.029678763821721077,
        -7.629394360719743e-08,
        0.0
      ]
    },
    {
      "name": "Bip001 L Finger02_059",
      "rotation": [
        0.00010210568871116266,
        -6.324284186121076e-05,
        0.2226904034614563,
        0.9748892188072205
      ],
      "translation": [
        0.030023174360394478,
        -2.220446049250313e-16,
        2.220446049250313e-16
      ]
    },
    {
      "children": [
        95
      ],
      "name": "Bip001 L Finger1_060",
      "rotation": [
        -0.015410852618515491,
        0.020614027976989746,
        0.059761639684438705,
        0.9978808164596558
      ],
      "translation": [
        0.0706673189997673,
        -0.011322478763759136,
        -0.030014876276254654
      ]
    },
    {
      "children": [
        96
      ],
      "name": "Bip001 L Finger11_061",
      "rotation": [
        -0.0003548940585460514,
        -0.000467353209387511,
        0.29825982451438904,
        0.9544845223426819
      ],
      "translation": [
        0.03244941681623459,
        0.0,
        0.0
      ]
    },
    {
      "name": "Bip001 L Finger12_062",
      "rotation": [
        -0.006350464653223753,
        -0.0022979488130658865,
        0.2673318386077881,
        0.963580846786499
      ],
      "translation": [
        0.02067558281123638,
        2.220446049250313e-16,
        0.0
      ]
    },
    {
      "children": [
        98
      ],
      "name": "Bip001 L Finger2_063",
      "rotation": [
        -0.006822036579251289,
        -0.003978350665420294,
        0.0727858915925026,
        0.9973164200782776
      ],
      "translation": [
        0.06579938530921936,
        -0.010919494554400444,
        -0.008667602203786373
      ]
    },
    {
      "children": [
        99
      ],
      "name": "Bip001 L Finger21_064",
      "rotation": [
        -0.01108650304377079,
        -0.0118935601785779,
        0.3636009693145752,
        0.9314129948616028
      ],
      "translation": [
        0.03693721815943718,
        1.5258788721439487e-07,
        1.1102230246251565e-16
      ]
    },
    {
      "name": "Bip001 L Finger22_065",
      "rotation": [
        -0.014301273971796036,
        -0.0024930229410529137,
        0.26949891448020935,
        0.9628912806510925
      ],
      "translation": [
        0.02972080186009407,
        0.0,
        0.0
      ]
    },
    {
      "children": [
        101
      ],
      "name": "Bip001 L Finger3_066",
      "rotation": [
        -0.06456797569990158,
        -0.08095527440309525,
        0.24249246716499329,
        0.9646112322807312
      ],
      "translation": [
        0.06653501093387604,
        -0.007187499664723873,
        0.012061690911650658
      ]
    },
    {
      "children": [
        102
      ],
      "name": "Bip001 L Finger31_067",
      "rotation": [
        -0.01034383475780487,
        -0.001806975924409926,
        0.6077656745910645,
        0.7940471172332764
      ],
      "translation": [
        0.03699741140007973,
        1.5258788721439487e-07,
        -1.1102230246251565e-16
      ]
    },
    {
      "name": "Bip001 L Finger32_068",
      "rotation": [
        -0.002458440139889717,
        0.005915178917348385,
        0.639981210231781,
        0.7683638334274292
      ],
      "translation": [
        0.02087859995663166,
        -3.814697180359872e-08,
        7.629394360719743e-08
      ]
    },
    {
      "children": [
        104
      ],
      "name": "Bip001 L Finger4_069",
      "rotation": [
        -0.08813957124948502,
        -0.1532403975725174,
        0.1809907704591751,
        0.9674663543701172
      ],
      "translation": [
        0.059565220028162,
        0.00035270690568722785,
        0.02849014289677143
      ]
    },
    {
      "children": [
        105
      ],
      "name": "Bip001 L Finger41_070",
      "rotation": [
        -0.008244242519140244,
        -0.002572343684732914,
        0.5909239053726196,
        0.806681215763092
      ],
      "translation": [
        0.03285474702715874,
        2.220446049250313e-16,
        0.0
      ]
    },
    {
      "name": "Bip001 L Finger42_071",
      "rotation": [
        -0.0032301805913448334,
        0.004249333404004574,
        0.556005597114563,
        0.8311614394187927
      ],
      "translation": [
        0.01648773066699505,
        3.814697180359872e-08,
        0.0
      ]
    },
    {
      "name": "L1_072",
      "rotation": [
        0.6787914633750916,
        -0.04675770550966263,
        0.05071254447102547,
        0.7310842275619507
      ],
      "translation": [
        0.07701070606708527,
        0.027741393074393272,
        0.015294799581170082
      ]
    },
    {
      "name": "Bip001 L Hand_056_0"
    },
    {
      "children": [
        109
      ],
      "name": "Bip001 L ForeTwist_073",
      "rotation": [
        0.03803510218858719,
        -0.005940025206655264,
        -0.15418782830238342,
        0.9872913360595703
      ],
      "translation": [
        0.18958663940429688,
        -2.8610228852699038e-08,
        -7.629394360719743e-08
      ]
    },
    {
      "children": [
        110
      ],
      "name": "Bip001 L ForeTwist1_074",
      "rotation": [
        0.03849613666534424,
        3.2267089000725946e-10,
        8.375689475315085e-09,
        0.9992587566375732
      ],
      "translation": [
        0.11241783201694489,
        -8.326672684688674e-17,
        2.288818308215923e-07
      ]
    },
    {
      "name": "Bip001 L ForeTwist1_074_0"
    },
    {
      "children": [
        112
      ],
      "name": "Bip001 R Clavicle_075",
      "rotation": [
        -0.628495454788208,
        0.24801306426525116,
        0.6976525187492371,
        -0.23825185000896454
      ],
      "translation": [
        -0.06679977476596832,
        -0.02473531663417816,
        -0.05048433318734169
      ]
    },
    {
      "children": [
        113,
        132
      ],
      "name": "Bip001 R UpperArm_076",
      "rotation": [
        -0.09626100212335587,
        -0.19249938428401947,
        0.09623716026544571,
        0.9718108177185059
      ],
      "translation": [
        0.10152389109134674,
        -9.53674295089968e-09,
        -2.220446049250313e-16
      ]
    },
    {
      "children": [
        114
      ],
      "name": "Bip001 R Forearm_077",
      "rotation": [
        -1.1357177420734388e-08,
        2.7804148317045474e-08,
        0.8716967105865479,
        -0.4900457561016083
      ],
      "translation": [
        0.18958663940429688,
        -2.7755575615628914e-17,
        7.629394360719743e-08
      ]
    },
    {
      "children": [
        115,
        118,
        121,
        124,
        127,
        130,
        131
      ],
      "name": "Bip001 R Hand_078",
      "rotation": [
        0.7792518138885498,
        0.0884915441274643,
        -0.10287591814994812,
        0.6118434071540833
      ],
      "translation": [
        0.2248355597257614,
        -3.814697180359872e-08,
        -7.629394360719743e-08
      ]
    },
    {
      "children": [
        116
      ],
      "name": "Bip001 R Finger0_079",
      "rotation": [
        -0.7204591631889343,
        -0.2679853141307831,
        -0.043385088443756104,
        0.6381537318229675
      ],
      "translation": [
        0.011803817935287952,
        0.012842482887208462,
        0.03662307560443878
      ]
    },
    {
      "children": [
        117
      ],
      "name": "Bip001 R Finger01_080",
      "rotation": [
        0.00010982161620631814,
        1.7519323591841385e-07,
        0.2952147126197815,
        0.9554310441017151
      ],
      "translation": [
        0.029678724706172943,
        -5.551115123125783e-17,
        7.629394360719743e-08
      ]
    },
    {
      "name": "Bip001 R Finger02_081",
      "rotation": [
        -0.00010212685447186232,
        6.326858419924974e-05,
        0.2226903885602951,
        0.9748892188072205
      ],
      "translation": [
        0.030023153871297836,
        -3.814697180359872e-08,
        0.0
      ]
    },
    {
      "children": [
        119
      ],
      "name": "Bip001 R Finger1_082",
      "rotation": [
        0.01541087031364441,
        -0.020614037290215492,
        0.0597616508603096,
        0.9978808164596558
      ],
      "translation": [
        0.07066730409860611,
        -0.011322402395308018,
        0.030014952644705772
      ]
    },
    {
      "children": [
        120
      ],
      "name": "Bip001 R Finger11_083",
      "rotation": [
        0.0003549204848241061,
        0.0004673185758292675,
        0.2982598543167114,
        0.9544845223426819
      ],
      "translation": [
        0.03244949132204056,
        1.1102230246251565e-16,
        0.0
      ]
    },
    {
      "name": "Bip001 R Finger12_084",
      "rotation": [
        0.006350425072014332,
        0.0022979993373155594,
        0.2673317492008209,
        0.9635809063911438
      ],
      "translation": [
        0.02067556418478489,
        0.0,
        -7.629394360719743e-08
      ]
    },
    {
      "children": [
        122
      ],
      "name": "Bip001 R Finger2_085",
      "rotation": [
        0.006822037976235151,
        0.0039783380925655365,
        0.0727858766913414,
        0.9973164200782776
      ],
      "translation": [
        0.06579940766096115,
        -0.010919570922851563,
        0.008667678572237492
      ]
    },
    {
      "children": [
        123
      ],
      "name": "Bip001 R Finger21_086",
      "rotation": [
        0.011086518876254559,
        0.011893547140061855,
        0.36360087990760803,
        0.931412935256958
      ],
      "translation": [
        0.03693732991814613,
        7.629394360719743e-08,
        0.0
      ]
    },
    {
      "name": "Bip001 R Finger22_087",
      "rotation": [
        0.014301285147666931,
        0.0024930106010288,
        0.26949891448020935,
        0.9628912806510925
      ],
      "translation": [
        0.029720839112997055,
        -7.629394360719743e-08,
        -7.629394360719743e-08
      ]
    },
    {
      "children": [
        125
      ],
      "name": "Bip001 R Finger3_088",
      "rotation": [
        0.06456801295280457,
        0.08095526695251465,
        0.24249254167079926,
        0.9646111130714417
      ],
      "translation": [
        0.0665351077914238,
        -0.00718765240162611,
        -0.01206161454319954
      ]
    },
    {
      "children": [
        126
      ],
      "name": "Bip001 R Finger31_089",
      "rotation": [
        0.010343869216740131,
        0.0018069823272526264,
        0.6077655553817749,
        0.7940471172332764
      ],
      "translation": [
        0.03699741140007973,
        0.0,
        0.0
      ]
    },
    {
      "name": "Bip001 R Finger32_090",
      "rotation": [
        0.0024584245402365923,
        -0.005915171932429075,
        0.639981210231781,
        0.7683638334274292
      ],
      "translation": [
        0.020878523588180542,
        0.0,
        0.0
      ]
    },
    {
      "children": [
        128
      ],
      "name": "Bip001 R Finger4_091",
      "rotation": [
        0.08813953399658203,
        0.15324042737483978,
        0.18099069595336914,
        0.9674663543701172
      ],
      "translation": [
        0.05956527590751648,
        0.00035270690568722785,
        -0.028490066528320313
      ]
    },
    {
      "children": [
        129
      ],
      "name": "Bip001 R Finger41_092",
      "rotation": [
        0.008244249038398266,
        0.0025723387952893972,
        0.5909237265586853,
        0.806681215763092
      ],
      "translation": [
        0.03285475820302963,
        -1.1102230246251565e-16,
        7.629394360719743e-08
      ]
    },
    {
      "name": "Bip001 R Finger42_093",
      "rotation": [
        0.0032302183099091053,
        -0.00424933573231101,
        0.5560056567192078,
        0.831161379814148
      ],
      "translation": [
        0.016487959772348404,
        -5.551115123125783e-17,
        -1.5258788721439487e-07
      ]
    },
    {
      "name": "R1_094",
      "rotation": [
        -0.6697433590888977,
        0.03149181231856346,
        0.034839972853660583,
        0.7411061525344849
      ],
      "translation": [
        0.07822097837924957,
        0.021837767213582993,
        -0.02080238237977028
      ]
    },
    {
      "name": "Bip001 R Hand_078_0"
    },
    {
      "children": [
        133
      ],
      "name": "Bip001 R ForeTwist_095",
      "rotation": [
        -0.018987037241458893,
        0.033774275332689285,
        0.8710422515869141,
        -0.4896778464317322
      ],
      "translation": [
        0.18958663940429688,
        -2.7755575615628914e-17,
        7.629394360719743e-08
      ]
    },
    {
      "children": [
        134
      ],
      "name": "Bip001 R ForeTwist1_096",
      "rotation": [
        0.03874541446566582,
        -1.1167480273854835e-08,
        4.3301365271197767e-10,
        0.9992492198944092
      ],
      "translation": [
        0.11241776496171951,
        -7.629394360719743e-08,
        7.629394360719743e-08
      ]
    },
    {
      "name": "Bip001 R ForeTwist1_096_0"
    },
    {
      "name": "Bip001 Neck_018_0"
    },
    {
      "children": [
        137
      ],
      "name": "Bone008_097",
      "rotation": [
        0.34241944551467896,
        0.9394574761390686,
        0.007234144024550915,
        0.010791104286909103
      ],
      "scale": [
        1.0,
        1.0000009536743164,
        1.0
      ],
      "translation": [
        0.14975860714912415,
        0.055000439286231995,
        0.013966045342385769
      ]
    },
    {
      "children": [
        138
      ],
      "name": "Bone009_098",
      "rotation": [
        -0.010342405177652836,
        -0.019437100738286972,
        -0.2553773820400238,
        0.9665908217430115
      ],
      "scale": [
        0.9999987483024597,
        1.000000238418579,
        1.0
      ],
      "translation": [
        0.06298423558473587,
        -1.2969970839549205e-06,
        3.814697180359872e-08
      ]
    },
    {
      "children": [
        139
      ],
      "name": "Bone010_099",
      "rotation": [
        -0.008081859908998013,
        -0.036405887454748154,
        -0.08072486519813538,
        0.996038556098938
      ],
      "scale": [
        0.9999999403953552,
        0.9999990463256836,
        1.0
      ],
      "translation": [
        0.06202087178826332,
        9.91821252682712e-07,
        1.9073485191256623e-07
      ]
    },
    {
      "name": "Bone011_0100",
      "rotation": [
        -0.008449451997876167,
        -0.04703256115317345,
        -0.09156341105699539,
        0.9946520328521729
      ],
      "scale": [
        0.9999999403953552,
        1.0000009536743164,
        1.0
      ],
      "translation": [
        0.05872329697012901,
        -1.3160705520931515e-06,
        1.275539318612573e-07
      ]
    },
    {
      "name": "Bip001 Spine1_016_0"
    },
    {
      "children": [
        142
      ],
      "name": "Point004_0101",
      "rotation": [
        0.7228677272796631,
        0.6909864544868469,
        -7.951810516715341e-07,
        3.9169435694930144e-07
      ],
      "translation": [
        0.030259016901254654,
        0.043803442269563675,
        -0.1450001746416092
      ]
    },
    {
      "children": [
        143,
        144,
        145
      ],
      "name": "PointR01_0102",
      "rotation": [
        -5.5413686084193614e-08,
        -8.498319381544661e-09,
        -4.9520934228275415e-16,
        1.0
      ],
      "translation": [
        -1.907348590179936e-08,
        0.0,
        9.53674295089968e-09
      ]
    },
    {
      "name": "PointR02_0103",
      "rotation": [
        -1.3969837509009153e-09,
        -6.402843810704439e-10,
        -3.211948935988307e-17,
        1.0
      ],
      "translation": [
        -2.7755575615628914e-17,
        0.0,
        -2.8610228852699038e-08
      ]
    },
    {
      "name": "PointR03_0104",
      "rotation": [
        -1.3969837509009153e-09,
        -6.402843810704439e-10,
        -3.211948935988307e-17,
        1.0
      ],
      "translation": [
        -2.7755575615628914e-17,
        0.0,
        -4.768371297814156e-08
      ]
    },
    {
      "name": "PointR04_0105",
      "rotation": [
        -1.3969837509009153e-09,
        -6.402843810704439e-10,
        -3.211948935988307e-17,
        1.0
      ],
      "translation": [
        3.814697180359872e-08,
        7.629394360719743e-08,
        -7.629394360719743e-08
      ]
    },
    {
      "children": [
        147
      ],
      "name": "Point009_0106",
      "rotation": [
        0.7228677272796631,
        0.6909864544868469,
        -7.951810516715341e-07,
        3.9169435694930144e-07
      ],
      "translation": [
        0.030259016901254654,
        0.04380393773317337,
        0.14499980211257935
      ]
    },
    {
      "children": [
        148,
        149,
        150
      ],
      "name": "PointL01_0107",
      "rotation": [
        -1.0943038830646401e-07,
        -8.498319381544661e-09,
        -9.542605421131167e-16,
        1.0
      ]
    },
    {
      "name": "PointL02_0108",
      "rotation": [
        -1.8626449271863521e-09,
        6.984919309616089e-09,
        4.336807449171099e-18,
        1.0
      ],
      "translation": [
        -2.7755575615628914e-17,
        0.0,
        3.814697180359872e-08
      ]
    },
    {
      "name": "PointL03_0109",
      "rotation": [
        -1.8626449271863521e-09,
        6.984919309616089e-09,
        4.336807449171099e-18,
        1.0
      ],
      "translation": [
        0.0,
        0.0,
        4.768371297814156e-08
      ]
    },
    {
      "name": "PointL04_0110",
      "rotation": [
        -1.8626449271863521e-09,
        6.984919309616089e-09,
        4.336807449171099e-18,
        1.0
      ],
      "translation": [
        1.907348590179936e-08,
        7.629394360719743e-08,
        8.583068478174027e-08
      ]
    },
    {
      "name": "Point018_0111",
      "rotation": [
        0.5111452341079712,
        0.4886006712913513,
        0.5111443400382996,
        -0.4886015057563782
      ],
      "translation": [
        0.07198844850063324,
        -0.05874549597501755,
        -4.172325152040912e-09
      ]
    },
    {
      "name": "Point018 1_0112",
      "rotation": [
        0.5111452341079712,
        0.4886006712913513,
        0.5111443400382996,
        -0.4886015057563782
      ],
      "translation": [
        0.07198844850063324,
        -0.05874549597501755,
        -4.172325152040912e-09
      ]
    },
    {
      "children": [
        154,
        161,
        168
      ],
      "name": "penqi_0113",
      "rotation": [
        -2.168404344971009e-18,
        -4.336808689942018e-18,
        -8.326672684688674e-17,
        1.0
      ]
    },
    {
      "children": [
        155,
        156,
        157,
        158,
        159,
        160
      ],
      "name": "fx_2_0114",
      "rotation": [
        -1.4901160305669237e-08,
        0.32401043176651,
        -3.3934710744351086e-17,
        0.9460536241531372
      ],
      "translation": [
        -0.15700000524520874,
        1.3877787807814457e-17,
        -1.1102230246251565e-16
      ]
    },
    {
      "name": "qiliu_3_0115",
      "rotation": [
        0.5563488006591797,
        0.8301398754119873,
        0.03347793594002724,
        -0.014941767789423466
      ],
      "scale": [
        2.382481336593628,
        2.3824820518493652,
        2.1658167839050293
      ],
      "translation": [
        0.08900000154972076,
        0.18700000643730164,
        -3.0239999294281006
      ]
    },
    {
      "name": "ci02_1_0116",
      "rotation": [
        6.123234262925839e-17,
        1.0,
        6.123234262925839e-17,
        -1.905415007791207e-17
      ],
      "scale": [
        0.7283341288566589,
        0.7283341288566589,
        0.7283341288566589
      ]
    },
    {
      "name": "ci02_2_0117",
      "rotation": [
        6.123234262925839e-17,
        1.0,
        6.123234262925839e-17,
        -1.905415007791207e-17
      ],
      "scale": [
        0.7283341288566589,
        0.7283341288566589,
        0.7283341288566589
      ],
      "translation": [
        1.1102230246251565e-16,
        3.469446951953614e-18,
        0.12800000607967377
      ]
    },
    {
      "name": "ci02_3_0118",
      "rotation": [
        6.123234262925839e-17,
        1.0,
        6.123234262925839e-17,
        -1.905415007791207e-17
      ],
      "scale": [
        0.7283341288566589,
        0.7283341288566589,
        0.7283341288566589
      ],
      "translation": [
        1.1102230246251565e-16,
        3.469446951953614e-18,
        0.27300000190734863
      ]
    },
    {
      "name": "yan01_2_0119",
      "rotation": [
        6.123234262925839e-17,
        1.0,
        6.123234262925839e-17,
        -4.163336342344337e-17
      ]
    },
    {
      "name": "lizi_1_0120",
      "rotation": [
        6.123234262925839e-17,
        1.0,
        6.123234262925839e-17,
        -3.9650823253390577e-17
      ],
      "scale": [
        1.399999976158142,
        1.399999976158142,
        1.399999976158142
      ]
    },
    {
      "children": [
        162,
        163,
        164,
        165,
        166,
        167
      ],
      "name": "fx_3_0121",
      "rotation": [
        -1.4901160305669237e-08,
        0.32401043176651,
        -3.3934710744351086e-17,
        0.9460536241531372
      ],
      "translation": [
        -0.15700000524520874,
        1.3877787807814457e-17,
        -1.1102230246251565e-16
      ]
    },
    {
      "name": "qiliu_3_0122",
      "rotation": [
        0.5563488006591797,
        0.8301398754119873,
        0.03347793594002724,
        -0.014941767789423466
      ],
      "scale": [
        2.382481336593628,
        2.3824820518493652,
        2.1658167839050293
      ],
      "translation": [
        0.08900000154972076,
        0.18700000643730164,
        -3.0239999294281006
      ]
    },
    {
      "name": "ci02_1_0123",
      "rotation": [
        6.123234262925839e-17,
        1.0,
        6.123234262925839e-17,
        -1.905415007791207e-17
      ],
      "scale": [
        0.7283341288566589,
        0.7283341288566589,
        0.7283341288566589
      ]
    },
    {
      "name": "ci02_2_0124",
      "rotation": [
        6.123234262925839e-17,
        1.0,
        6.123234262925839e-17,
        -1.905415007791207e-17
      ],
      "scale": [
        0.7283341288566589,
        0.7283341288566589,
        0.7283341288566589
      ],
      "translation": [
        1.1102230246251565e-16,
        3.469446951953614e-18,
        0.12800000607967377
      ]
    },
    {
      "name": "ci02_3_0125",
      "rotation": [
        6.123234262925839e-17,
        1.0,
        6.123234262925839e-17,
        -1.905415007791207e-17
      ],
      "scale": [
        0.7283341288566589,
        0.7283341288566589,
        0.7283341288566589
      ],
      "translation": [
        1.1102230246251565e-16,
        3.469446951953614e-18,
        0.27300000190734863
      ]
    },
    {
      "name": "yan01_2_0126",
      "rotation": [
        6.123234262925839e-17,
        1.0,
        6.123234262925839e-17,
        -4.163336342344337e-17
      ]
    },
    {
      "name": "lizi_1_0127",
      "rotation": [
        6.123234262925839e-17,
        1.0,
        6.123234262925839e-17,
        -3.9650823253390577e-17
      ],
      "scale": [
        1.399999976158142,
        1.399999976158142,
        1.399999976158142
      ]
    },
    {
      "children": [
        169,
        170,
        171,
        172,
        173,
        174
      ],
      "name": "fx_4_0128",
      "rotation": [
        -1.4901160305669237e-08,
        0.32401043176651,
        -3.3934710744351086e-17,
        0.9460536241531372
      ],
      "translation": [
        -0.15700000524520874,
        1.3877787807814457e-17,
        -1.1102230246251565e-16
      ]
    },
    {
      "name": "qiliu_3_0129",
      "rotation": [
        0.5563488006591797,
        0.8301398754119873,
        0.03347793594002724,
        -0.014941767789423466
      ],
      "scale": [
        2.382481336593628,
        2.3824820518493652,
        2.1658167839050293
      ],
      "translation": [
        0.08900000154972076,
        0.18700000643730164,
        -3.0239999294281006
      ]
    },
    {
      "name": "ci02_1_0130",
      "rotation": [
        6.123234262925839e-17,
        1.0,
        6.123234262925839e-17,
        -1.905415007791207e-17
      ],
      "scale": [
        0.7283341288566589,
        0.7283341288566589,
        0.7283341288566589
      ]
    },
    {
      "name": "ci02_2_0131",
      "rotation": [
        6.123234262925839e-17,
        1.0,
        6.123234262925839e-17,
        -1.905415007791207e-17
      ],
      "scale": [
        0.7283341288566589,
        0.7283341288566589,
        0.7283341288566589
      ],
      "translation": [
        1.1102230246251565e-16,
        3.469446951953614e-18,
        0.12800000607967377
      ]
    },
    {
      "name": "ci02_3_0132",
      "rotation": [
        6.123234262925839e-17,
        1.0,
        6.123234262925839e-17,
        -1.905415007791207e-17
      ],
      "scale": [
        0.7283341288566589,
        0.7283341288566589,
        0.7283341288566589
      ],
      "translation": [
        1.1102230246251565e-16,
        3.469446951953614e-18,
        0.27300000190734863
      ]
    },
    {
      "name": "yan01_2_0133",
      "rotation": [
        6.123234262925839e-17,
        1.0,
        6.123234262925839e-17,
        -4.163336342344337e-17
      ]
    },
    {
      "name": "lizi_1_0134",
      "rotation": [
        6.123234262925839e-17,
        1.0,
        6.123234262925839e-17,
        -3.9650823253390577e-17
      ],
      "scale": [
        1.399999976158142,
        1.399999976158142,
        1.399999976158142
      ]
    },
    {
      "name": "Bone006_0135",
      "rotation": [
        -0.44408243894577026,
        0.4249497354030609,
        0.7472862601280212,
        -0.25253066420555115
      ],
      "translation": [
        0.10640130937099457,
        0.9251879453659058,
        -0.15257643163204193
      ]
    },
    {
      "name": "Bone007_0136",
      "rotation": [
        0.7084115147590637,
        -0.2864808142185211,
        -0.5037849545478821,
        0.4028431475162506
      ],
      "translation": [
        0.13855181634426117,
        0.941152036190033,
        -0.041150398552417755
      ]
    },
    {
      "name": "L2_0137",
      "rotation": [
        -0.31576138734817505,
        0.7478535771369934,
        0.547425389289856,
        0.2033110409975052
      ],
      "translation": [
        0.0988897904753685,
        1.4449230432510376,
        0.4410667419433594
      ]
    },
    {
      "name": "PointL05_0138",
      "rotation": [
        0.06653061509132385,
        0.9740604758262634,
        -0.010876892134547234,
        -0.2160133570432663
      ],
      "translation": [
        -0.02988414280116558,
        1.0328365564346313,
        0.17627379298210144
      ]
    },
    {
      "name": "PointR05_0139",
      "rotation": [
        0.06653061509132385,
        0.9740604758262634,
        -0.010876892134547234,
        -0.2160133570432663
      ],
      "translation": [
        -0.15234152972698212,
        1.0350271463394165,
        -0.08659356832504272
      ]
    },
    {
      "name": "R2_0140",
      "rotation": [
        0.22713999450206757,
        -0.09823114424943924,
        0.5653189420700073,
        0.7868751883506775
      ],
      "scale": [
        0.0010000000474974513,
        0.0010000000474974513,
        0.0010000000474974513
      ],
      "translation": [
        -0.2812903821468353,
        1.327629804611206,
        -0.12960468232631683
      ]
    },
    {
      "matrix": [
        1.0,
        0.0,
        0.0,
        0.0,
        0.0,
        2.220446049250313e-16,
        -1.0,
        0.0,
        0.0,
        1.0,
        2.220446049250313e-16,
        0.0,
        0.0002766272227745503,
        0.0,
        0.6610000133514404,
        1.0
      ],
      "name": "role_sanli_diaocha_body"
    },
    {
      "matrix": [
        1.0,
        0.0,
        0.0,
        0.0,
        0.0,
        2.220446049250313e-16,
        -1.0,
        0.0,
        0.0,
        1.0,
        2.220446049250313e-16,
        0.0,
        0.0,
        0.0,
        0.0,
        1.0
      ],
      "name": "role_sanli_diaocha_face"
    },
    {
      "matrix": [
        1.0,
        0.0,
        0.0,
        0.0,
        0.0,
        2.220446049250313e-16,
        -1.0,
        0.0,
        0.0,
        1.0,
        2.220446049250313e-16,
        0.0,
        0.0002766272227745503,
        0.0,
        0.0,
        1.0
      ],
      "name": "role_sanli_diaocha_foot"
    },
    {
      "matrix": [
        1.0,
        0.0,
        0.0,
        0.0,
        0.0,
        2.220446049250313e-16,
        -1.0,
        0.0,
        0.0,
        1.0,
        2.220446049250313e-16,
        0.0,
        0.0,
        0.0,
        0.0,
        1.0
      ],
      "name": "role_sanli_diaocha_hair"
    },
    {
      "matrix": [
        1.0,
        0.0,
        0.0,
        0.0,
        0.0,
        2.220446049250313e-16,
        -1.0,
        0.0,
        0.0,
        1.0,
        2.220446049250313e-16,
        0.0,
        0.0,
        0.0,
        0.0,
        1.0
      ],
      "name": "role_sanli_diaocha_heixian"
    },
    {
      "matrix": [
        1.0,
        0.0,
        0.0,
        0.0,
        0.0,
        2.220446049250313e-16,
        -1.0,
        0.0,
        0.0,
        1.0,
        2.220446049250313e-16,
        0.0,
        0.0002766653778962791,
        0.0,
        0.0,
        1.0
      ],
      "name": "role_sanli_diaocha_skin"
    },
    {
      "matrix": [
        1.0,
        0.0,
        0.0,
        0.0,
        0.0,
        -6.657902724693798e-07,
        -0.9999999999997785,
        0.0,
        0.0,
        0.9999999999997785,
        -6.657902724693798e-07,
        0.0,
        0.0,
        1.5258788721439487e-07,
        -9.53674295089968e-09,
        1.0
      ],
      "name": "role_sanli_diaocha_wuqi01"
    },
    {
      "matrix": [
        0.9999999999999848,
        -8.742276849334037e-08,
        -1.5099579751755684e-07,
        0.0,
        -1.509958091586007e-07,
        -1.3315804148206212e-07,
        -0.9999999999999797,
        0.0,
        8.742274838703396e-08,
        0.9999999999999872,
        -1.331580545826938e-07,
        0.0,
        0.0,
        -1.5258788721439487e-07,
        -1.668930060816365e-08,
        1.0
      ],
      "name": "role_sanli_diaocha_wuqi02"
    },
    {
      "matrix": [
        0.9999999999999923,
        8.742277643017959e-08,
        8.742277643017993e-08,
        0.0,
        8.742276478913199e-08,
        1.3315806202118807e-07,
        -0.9999999999999873,
        0.0,
        -8.742278807122597e-08,
        0.9999999999999873,
        1.331580543606492e-07,
        0.0,
        0.0,
        0.0,
        0.0,
        1.0
      ],
      "name": "role_sanli_diaocha_zhuangbei"
    },
    {
      "matrix": [
        1.0,
        0.0,
        0.0,
        0.0,
        0.0,
        2.220446049250313e-16,
        -1.0,
        0.0,
        0.0,
        1.0,
        2.220446049250313e-16,
        0.0,
        2.5726559162139893,
        0.0,
        -0.0009698483045212924,
        1.0
      ],
      "name": "role_sanli_xunlian_gangshengL"
    },
    {
      "matrix": [
        1.0,
        0.0,
        0.0,
        0.0,
        0.0,
        2.220446049250313e-16,
        -1.0,
        0.0,
        0.0,
        1.0,
        2.220446049250313e-16,
        0.0,
        2.075883626937866,
        0.0,
        -0.0009698483045212924,
        1.0
      ],
      "name": "role_sanli_xunlian_gangshengR"
    }
  ],
  "samplers": [
    {
      "magFilter": 9729,
      "minFilter": 9987,
      "wrapS": 10497,
      "wrapT": 10497
    }
  ],
  "scene": 0,
  "scenes": [
    {
      "name": "Sketchfab_Scene",
      "nodes": [
        0
      ]
    }
  ],
  "skins": [
    {
      "inverseBindMatrices": 57,
      "joints": [
        6,
        29,
        30,
        31,
        32,
        33,
        34,
        35,
        36,
        37,
        38,
        39,
        40,
        41,
        42,
        43,
        44,
        45,
        46,
        47,
        48,
        49,
        50,
        51,
        52,
        53,
        54,
        55,
        56,
        57,
        58,
        59,
        60,
        61,
        62,
        63,
        64,
        65,
        66,
        67,
        68,
        69,
        70,
        71,
        72,
        73,
        74,
        75,
        76,
        77,
        78,
        79,
        80,
        81,
        82,
        83,
        84,
        85,
        86,
        87,
        88,
        89,
        90,
        91,
        92,
        93,
        94,
        95,
        96,
        97,
        98,
        99,
        100,
        101,
        102,
        103,
        104,
        105,
        106,
        107,
        108,
        109,
        110,
        111,
        112,
        113,
        114,
        115,
        116,
        117,
        118,
        119,
        120,
        121,
        122,
        123,
        124,
        125,
        126,
        127,
        128,
        129,
        130,
        131,
        132,
        133,
        134,
        135,
        136,
        137,
        138,
        139,
        140,
        141,
        142,
        143,
        144,
        145,
        146,
        147,
        148,
        149,
        150,
        151,
        152,
        153,
        154,
        155,
        156,
        157,
        158,
        159,
        160,
        161,
        162,
        163,
        164,
        165,
        166,
        167,
        168,
        169,
        170,
        171,
        172,
        173,
        174,
        175,
        176,
        177,
        178,
        179,
        180
      ],
      "skeleton": 6
    }
  ],
  "textures": [
    {
      "sampler": 0,
      "source": 0
    },
    {
      "sampler": 0,
      "source": 1
    },
    {
      "sampler": 0,
      "source": 2
    },
    {
      "sampler": 0,
      "source": 3
    },
    {
      "sampler": 0,
      "source": 4
    },
    {
      "sampler": 0,
      "source": 5
    }
  ]
}
