{
	"asset":{
		"generator":"Khronos glTF Blender I/O v4.2.83",
		"version":"2.0"
	},
	"scene":0,
	"scenes":[
		{
			"name":"Scene",
			"nodes":[
				68
			]
		}
	],
	"nodes":[
		{
			"name":"mixamorig:HeadTop_End",
			"scale":[
				1,
				0.9999998211860657,
				0.9999999403953552
			],
			"translation":[
				-3.637978807091713e-12,
				67.33560180664062,
				15.26260757446289
			]
		},
		{
			"children":[
				0
			],
			"name":"mixamorig:Head",
			"rotation":[
				-3.884800481301909e-09,
				0,
				0,
				1
			],
			"scale":[
				1,
				0.9999998807907104,
				0.9999999403953552
			],
			"translation":[
				-7.275957614183426e-12,
				4.197662830352783,
				0.9514443278312683
			]
		},
		{
			"children":[
				1
			],
			"name":"mixamorig:Neck",
			"rotation":[
				0.03724514693021774,
				0,
				0,
				0.9993062019348145
			],
			"scale":[
				1,
				0.9999998211860657,
				0.9999998211860657
			],
			"translation":[
				0,
				42.996604919433594,
				-2.384185791015625e-06
			]
		},
		{
			"name":"mixamorig:LeftHandThumb4",
			"rotation":[
				1.2805687621408879e-09,
				3.725290653733282e-08,
				-8.370263060442085e-08,
				1
			],
			"scale":[
				0.9999998807907104,
				0.9999999403953552,
				0.9999998807907104
			],
			"translation":[
				0.689671516418457,
				5.766217231750488,
				-3.2141804695129395e-05
			]
		},
		{
			"children":[
				3
			],
			"name":"mixamorig:LeftHandThumb3",
			"rotation":[
				-0.06153564527630806,
				-5.761835950579552e-07,
				-4.159252284807735e-07,
				0.9981049299240112
			],
			"scale":[
				1,
				1,
				0.9999999403953552
			],
			"translation":[
				-0.4390411376953125,
				8.22061824798584,
				4.798173904418945e-05
			]
		},
		{
			"children":[
				4
			],
			"name":"mixamorig:LeftHandThumb2",
			"rotation":[
				-0.01599544659256935,
				1.6113941114781483e-07,
				8.871982970504178e-08,
				0.999872088432312
			],
			"scale":[
				0.9999998807907104,
				1,
				1
			],
			"translation":[
				-0.25058507919311523,
				10.39273452758789,
				-5.555152893066406e-05
			]
		},
		{
			"children":[
				5
			],
			"name":"mixamorig:LeftHandThumb1",
			"rotation":[
				0.16539230942726135,
				0.052126359194517136,
				0.2960410714149475,
				0.9393018484115601
			],
			"translation":[
				-7.257460594177246,
				9.82349967956543,
				4.4373369216918945
			]
		},
		{
			"name":"mixamorig:LeftHandIndex4",
			"rotation":[
				-6.111805506137102e-10,
				-3.5506677598107217e-09,
				-4.656613983300417e-10,
				1
			],
			"scale":[
				0.9999999403953552,
				0.9999998211860657,
				0.9999999403953552
			],
			"translation":[
				0.007823586463928223,
				6.3934855461120605,
				-0.0001155361533164978
			]
		},
		{
			"children":[
				7
			],
			"name":"mixamorig:LeftHandIndex3",
			"rotation":[
				0.008872991427779198,
				2.6703819155926567e-09,
				-1.506473665813246e-07,
				0.9999606609344482
			],
			"scale":[
				0.9999999403953552,
				0.9999998807907104,
				0.9999998807907104
			],
			"translation":[
				0.005413174629211426,
				7.302434921264648,
				4.135072231292725e-06
			]
		},
		{
			"children":[
				8
			],
			"name":"mixamorig:LeftHandIndex2",
			"rotation":[
				0.0521954670548439,
				7.249550293408902e-08,
				-7.908104038278907e-08,
				0.9986369013786316
			],
			"scale":[
				1,
				1,
				0.9999999403953552
			],
			"translation":[
				-0.013240158557891846,
				7.585616111755371,
				2.2783875465393066e-05
			]
		},
		{
			"children":[
				9
			],
			"name":"mixamorig:LeftHandIndex1",
			"rotation":[
				0.03645441308617592,
				0.0007370456587523222,
				0.020200641825795174,
				0.99913090467453
			],
			"scale":[
				1,
				0.9999999403953552,
				1
			],
			"translation":[
				-7.92074728012085,
				24.931692123413086,
				0.18115746974945068
			]
		},
		{
			"name":"mixamorig:LeftHandMiddle4",
			"rotation":[
				-1.9790606931024968e-09,
				5.762559318611693e-09,
				-2.328305881427184e-10,
				1
			],
			"scale":[
				0.9999999403953552,
				0.9999998211860657,
				0.9999998807907104
			],
			"translation":[
				0.003441333770751953,
				6.897597789764404,
				1.4930963516235352e-05
			]
		},
		{
			"children":[
				11
			],
			"name":"mixamorig:LeftHandMiddle3",
			"rotation":[
				0.0017587656620889902,
				-9.723606098077653e-08,
				-6.44941877681049e-08,
				0.9999984502792358
			],
			"scale":[
				0.9999999403953552,
				1,
				0.9999998807907104
			],
			"translation":[
				0.0037031173706054688,
				7.849376678466797,
				9.745359420776367e-06
			]
		},
		{
			"children":[
				12
			],
			"name":"mixamorig:LeftHandMiddle2",
			"rotation":[
				0.07870670408010483,
				2.9486340036299907e-09,
				-3.99963226982436e-08,
				0.99689781665802
			],
			"scale":[
				1,
				0.9999999403953552,
				1
			],
			"translation":[
				-0.0071468353271484375,
				8.320971488952637,
				-6.514787673950195e-05
			]
		},
		{
			"children":[
				13
			],
			"name":"mixamorig:LeftHandMiddle1",
			"rotation":[
				-0.02569599263370037,
				-0.0008360688807442784,
				0.03251326084136963,
				0.9991406202316284
			],
			"scale":[
				1.0000001192092896,
				0.9999998807907104,
				1.0000001192092896
			],
			"translation":[
				-2.3287100791931152,
				25.297752380371094,
				-0.1904674470424652
			]
		},
		{
			"name":"mixamorig:LeftHandRing4",
			"rotation":[
				-2.3283064365386963e-09,
				6.984919309616089e-09,
				2.3283064365386963e-09,
				1
			],
			"translation":[
				0.014540672302246094,
				6.161293983459473,
				5.519390106201172e-05
			]
		},
		{
			"children":[
				15
			],
			"name":"mixamorig:LeftHandRing3",
			"rotation":[
				0.06811395287513733,
				1.2730477294553566e-07,
				1.648194114522994e-07,
				0.9976775646209717
			],
			"scale":[
				1,
				1.0000001192092896,
				1
			],
			"translation":[
				-0.00047016143798828125,
				6.917505741119385,
				-0.00010061264038085938
			]
		},
		{
			"children":[
				16
			],
			"name":"mixamorig:LeftHandRing2",
			"rotation":[
				0.05840509757399559,
				-1.1649777320599242e-07,
				-6.384637885048505e-08,
				0.9982929825782776
			],
			"translation":[
				-0.014051437377929688,
				7.357819557189941,
				-6.67572021484375e-05
			]
		},
		{
			"children":[
				17
			],
			"name":"mixamorig:LeftHandRing1",
			"rotation":[
				-0.014906182885169983,
				0.0007060809293761849,
				-0.04729209095239639,
				0.9987696409225464
			],
			"scale":[
				1,
				0.9999999403953552,
				1
			],
			"translation":[
				2.6470751762390137,
				25.670303344726562,
				-0.23894262313842773
			]
		},
		{
			"name":"mixamorig:LeftHandPinky4",
			"rotation":[
				-4.656612873077393e-10,
				9.31322685637781e-10,
				1.1641533292916506e-09,
				1
			],
			"scale":[
				0.9999999403953552,
				0.9999998211860657,
				0.9999999403953552
			],
			"translation":[
				0.00737762451171875,
				4.971259117126465,
				6.127357482910156e-05
			]
		},
		{
			"children":[
				19
			],
			"name":"mixamorig:LeftHandPinky3",
			"rotation":[
				0.03762047737836838,
				-1.0042107589924854e-07,
				-8.387839756096582e-08,
				0.9992921352386475
			],
			"scale":[
				1.0000001192092896,
				1,
				1.0000001192092896
			],
			"translation":[
				-0.000118255615234375,
				5.569252967834473,
				-2.4437904357910156e-05
			]
		},
		{
			"children":[
				20
			],
			"name":"mixamorig:LeftHandPinky2",
			"rotation":[
				0.029780728742480278,
				1.1553524359442235e-07,
				1.0581024412203988e-07,
				0.9995564222335815
			],
			"scale":[
				1.0000001192092896,
				1.0000001192092896,
				1
			],
			"translation":[
				-0.007245063781738281,
				6.918476104736328,
				-3.528594970703125e-05
			]
		},
		{
			"children":[
				21
			],
			"name":"mixamorig:LeftHandPinky1",
			"rotation":[
				0.010930074378848076,
				-0.0009433944360353053,
				-0.08601430803537369,
				0.9962335228919983
			],
			"scale":[
				1,
				0.9999998807907104,
				1
			],
			"translation":[
				7.602389812469482,
				24.360706329345703,
				0.3218080997467041
			]
		},
		{
			"children":[
				6,
				10,
				14,
				18,
				22
			],
			"name":"mixamorig:LeftHand",
			"rotation":[
				-0.03456106036901474,
				-0.010007272474467754,
				-0.018812168389558792,
				0.9991754293441772
			],
			"scale":[
				0.9999998211860657,
				1,
				0.9999998211860657
			],
			"translation":[
				2.041459083557129e-06,
				74.10550689697266,
				6.9141387939453125e-06
			]
		},
		{
			"children":[
				23
			],
			"name":"mixamorig:LeftForeArm",
			"rotation":[
				-0.007809782400727272,
				3.868008661811473e-06,
				-0.0005010707536712289,
				0.9999694228172302
			],
			"scale":[
				0.9999999403953552,
				0.9999999403953552,
				0.9999998211860657
			],
			"translation":[
				2.041459083557129e-06,
				60.44775390625,
				4.2885541915893555e-05
			]
		},
		{
			"children":[
				24
			],
			"name":"mixamorig:LeftArm",
			"rotation":[
				-0.07379664480686188,
				-0.0005413044127635658,
				0.007315884344279766,
				0.9972463250160217
			],
			"scale":[
				1.0000001192092896,
				0.9999999403953552,
				0.9999999403953552
			],
			"translation":[
				8.344650268554688e-07,
				39.45683670043945,
				-4.32431697845459e-05
			]
		},
		{
			"children":[
				25
			],
			"name":"mixamorig:LeftShoulder",
			"rotation":[
				0.5370045304298401,
				0.45889198780059814,
				-0.5438122749328613,
				0.45311439037323
			],
			"scale":[
				0.9999997019767761,
				0.9999997615814209,
				0.9999997019767761
			],
			"translation":[
				19.52855110168457,
				39.684715270996094,
				-0.24518966674804688
			]
		},
		{
			"name":"mixamorig:RightHandThumb4",
			"rotation":[
				1.1175870895385742e-08,
				-3.073364496231079e-08,
				5.261972191306086e-08,
				1
			],
			"scale":[
				1.0000001192092896,
				1,
				1
			],
			"translation":[
				0.15381908416748047,
				7.064486503601074,
				-1.1682510375976562e-05
			]
		},
		{
			"children":[
				27
			],
			"name":"mixamorig:RightHandThumb3",
			"rotation":[
				0.01010674238204956,
				-9.872525907894669e-08,
				-2.1118822246535274e-07,
				0.9999489188194275
			],
			"scale":[
				0.9999999403953552,
				0.9999998807907104,
				0.9999999403953552
			],
			"translation":[
				0.22864151000976562,
				8.81285285949707,
				3.6835670471191406e-05
			]
		},
		{
			"children":[
				28
			],
			"name":"mixamorig:RightHandThumb2",
			"rotation":[
				-0.01663847640156746,
				5.132297360432858e-07,
				4.2870055949606467e-07,
				0.9998615980148315
			],
			"scale":[
				1,
				0.9999999403953552,
				0.9999999403953552
			],
			"translation":[
				-0.38248300552368164,
				9.828241348266602,
				-1.1146068572998047e-05
			]
		},
		{
			"children":[
				29
			],
			"name":"mixamorig:RightHandThumb1",
			"rotation":[
				0.17257705330848694,
				-0.0597500316798687,
				-0.3216707706451416,
				0.9290721416473389
			],
			"scale":[
				1,
				1,
				0.9999999403953552
			],
			"translation":[
				6.713958263397217,
				9.30674934387207,
				4.411757469177246
			]
		},
		{
			"name":"mixamorig:RightHandIndex4",
			"rotation":[
				3.183230345982224e-10,
				2.219167072325945e-09,
				-5.966285243630409e-10,
				1
			],
			"scale":[
				1,
				1.0000001192092896,
				1
			],
			"translation":[
				0.0110434889793396,
				6.348860263824463,
				4.719942808151245e-05
			]
		},
		{
			"children":[
				31
			],
			"name":"mixamorig:RightHandIndex3",
			"rotation":[
				-0.08421136438846588,
				4.227065986128764e-08,
				-1.2410298211307236e-07,
				0.9964479207992554
			],
			"scale":[
				1.0000001192092896,
				1.0000001192092896,
				1.000000238418579
			],
			"translation":[
				-0.013660311698913574,
				7.236737251281738,
				-5.6199729442596436e-05
			]
		},
		{
			"children":[
				32
			],
			"name":"mixamorig:RightHandIndex2",
			"rotation":[
				0.04968363419175148,
				2.993751735402839e-08,
				3.8916226685614674e-08,
				0.9987649917602539
			],
			"scale":[
				1.0000001192092896,
				1,
				1.0000001192092896
			],
			"translation":[
				0.0026209354400634766,
				7.779709815979004,
				2.81408429145813e-05
			]
		},
		{
			"children":[
				33
			],
			"name":"mixamorig:RightHandIndex1",
			"rotation":[
				0.039171237498521805,
				-0.0008645777706988156,
				-0.02205180563032627,
				0.9989888072013855
			],
			"scale":[
				1.0000001192092896,
				1.0000001192092896,
				1
			],
			"translation":[
				7.990689277648926,
				24.771154403686523,
				0.32008281350135803
			]
		},
		{
			"name":"mixamorig:RightHandMiddle4",
			"rotation":[
				-3.434252215939182e-09,
				4.293906386010349e-08,
				3.576860763132572e-08,
				1
			],
			"scale":[
				1,
				0.9999999403953552,
				1
			],
			"translation":[
				-0.0006575584411621094,
				6.647993087768555,
				2.148747444152832e-05
			]
		},
		{
			"children":[
				35
			],
			"name":"mixamorig:RightHandMiddle3",
			"rotation":[
				-0.003798924619331956,
				-1.0990777354891179e-07,
				1.1851165737652991e-07,
				0.9999927878379822
			],
			"translation":[
				-0.0019659996032714844,
				7.686487674713135,
				-7.450580596923828e-07
			]
		},
		{
			"children":[
				36
			],
			"name":"mixamorig:RightHandMiddle2",
			"rotation":[
				0.013715400360524654,
				1.4011538951308466e-07,
				-5.0296151243856e-08,
				0.9999059438705444
			],
			"scale":[
				1,
				0.9999998807907104,
				0.9999998211860657
			],
			"translation":[
				0.00261688232421875,
				8.375404357910156,
				3.55839729309082e-05
			]
		},
		{
			"children":[
				37
			],
			"name":"mixamorig:RightHandMiddle1",
			"rotation":[
				0.0279407799243927,
				-0.0008053620695136487,
				-0.028803249821066856,
				0.9991942048072815
			],
			"scale":[
				1,
				1.0000001192092896,
				1
			],
			"translation":[
				2.499901294708252,
				25.78107261657715,
				-0.7574974894523621
			]
		},
		{
			"name":"mixamorig:RightHandRing4",
			"rotation":[
				6.984919309616089e-10,
				4.0745362639427185e-10,
				-1.57160684466362e-09,
				1
			],
			"scale":[
				0.9999999403953552,
				1,
				0.9999999403953552
			],
			"translation":[
				-0.0007171630859375,
				5.954357147216797,
				9.012222290039062e-05
			]
		},
		{
			"children":[
				39
			],
			"name":"mixamorig:RightHandRing3",
			"rotation":[
				-0.03861764445900917,
				-1.2314285413594916e-07,
				-1.1723036408284315e-07,
				0.999254047870636
			],
			"scale":[
				1,
				1,
				1.0000001192092896
			],
			"translation":[
				-0.01677703857421875,
				6.855207443237305,
				-1.4066696166992188e-05
			]
		},
		{
			"children":[
				40
			],
			"name":"mixamorig:RightHandRing2",
			"rotation":[
				0.0807601734995842,
				1.576757213683777e-08,
				9.647418863778512e-08,
				0.996733546257019
			],
			"scale":[
				1.0000001192092896,
				0.9999999403953552,
				1
			],
			"translation":[
				0.017492294311523438,
				7.240516185760498,
				3.337860107421875e-06
			]
		},
		{
			"children":[
				41
			],
			"name":"mixamorig:RightHandRing1",
			"rotation":[
				-0.019017871469259262,
				-0.0006389987538568676,
				0.033570095896720886,
				0.9992552399635315
			],
			"scale":[
				1.0000001192092896,
				1,
				0.9999999403953552
			],
			"translation":[
				-2.573213577270508,
				26.092382431030273,
				-0.13975882530212402
			]
		},
		{
			"name":"mixamorig:RightHandPinky4",
			"rotation":[
				1.862645149230957e-09,
				-7.2177499532699585e-09,
				-3.725290298461914e-09,
				1
			],
			"translation":[
				0.005863189697265625,
				4.382730484008789,
				2.0503997802734375e-05
			]
		},
		{
			"children":[
				43
			],
			"name":"mixamorig:RightHandPinky3",
			"rotation":[
				-0.0471680723130703,
				-3.6257165447750594e-07,
				-3.9264028828256414e-07,
				0.9988870024681091
			],
			"scale":[
				0.9999999403953552,
				0.9999998211860657,
				0.9999998807907104
			],
			"translation":[
				-0.0099029541015625,
				5.566669464111328,
				1.811981201171875e-05
			]
		},
		{
			"children":[
				44
			],
			"name":"mixamorig:RightHandPinky2",
			"rotation":[
				0.03632643446326256,
				2.0782213994152698e-07,
				2.515649555334676e-07,
				0.9993399381637573
			],
			"scale":[
				1,
				1,
				0.9999998211860657
			],
			"translation":[
				0.004057884216308594,
				6.801513671875,
				-5.841255187988281e-06
			]
		},
		{
			"children":[
				45
			],
			"name":"mixamorig:RightHandPinky1",
			"rotation":[
				0.01640772446990013,
				0.0008495249785482883,
				0.051708903163671494,
				0.9985271096229553
			],
			"scale":[
				1,
				0.9999999403953552,
				1
			],
			"translation":[
				-7.917388916015625,
				24.772199630737305,
				0.3270227909088135
			]
		},
		{
			"children":[
				30,
				34,
				38,
				42,
				46
			],
			"name":"mixamorig:RightHand",
			"rotation":[
				-0.03686707839369774,
				0.015275439247488976,
				0.02008749172091484,
				0.9990015029907227
			],
			"scale":[
				0.9999998211860657,
				1,
				1.0000001192092896
			],
			"translation":[
				6.22868537902832e-06,
				74.10548400878906,
				-5.131959915161133e-05
			]
		},
		{
			"children":[
				47
			],
			"name":"mixamorig:RightForeArm",
			"rotation":[
				-0.00782851967960596,
				-5.901900749449851e-06,
				0.0007520261569879949,
				0.9999690651893616
			],
			"translation":[
				9.834766387939453e-07,
				60.44786071777344,
				-3.069639205932617e-05
			]
		},
		{
			"children":[
				48
			],
			"name":"mixamorig:RightArm",
			"rotation":[
				-0.07377444952726364,
				0.0005630574887618423,
				-0.007610870525240898,
				0.9972457885742188
			],
			"scale":[
				0.9999999403953552,
				0.9999999403953552,
				0.9999997615814209
			],
			"translation":[
				4.470348358154297e-06,
				39.45685577392578,
				5.304813385009766e-06
			]
		},
		{
			"children":[
				49
			],
			"name":"mixamorig:RightShoulder",
			"rotation":[
				0.5369446277618408,
				-0.45894336700439453,
				0.5438643097877502,
				0.4530707597732544
			],
			"scale":[
				0.9999998807907104,
				0.9999997615814209,
				0.9999999403953552
			],
			"translation":[
				-19.52855110168457,
				39.68501663208008,
				-0.24922704696655273
			]
		},
		{
			"children":[
				2,
				26,
				50
			],
			"name":"mixamorig:Spine2",
			"rotation":[
				-3.166496753692627e-08,
				0,
				0,
				1
			],
			"scale":[
				1,
				0.9999999403953552,
				1
			],
			"translation":[
				0,
				38.21935272216797,
				-7.152557373046875e-07
			]
		},
		{
			"children":[
				51
			],
			"name":"mixamorig:Spine1",
			"rotation":[
				2.2351741790771484e-08,
				0,
				0,
				1
			],
			"translation":[
				3.637978807091713e-12,
				33.44188690185547,
				2.771615982055664e-06
			]
		},
		{
			"children":[
				52
			],
			"name":"mixamorig:Spine",
			"rotation":[
				-0.037245139479637146,
				0,
				0,
				0.9993062019348145
			],
			"scale":[
				1,
				1,
				0.9999999403953552
			],
			"translation":[
				-3.637978807091713e-12,
				28.584945678710938,
				-2.133742094039917
			]
		},
		{
			"name":"mixamorig:LeftToe_End",
			"rotation":[
				2.3283062144940914e-09,
				1.0617076640073719e-07,
				-8.806819096207619e-08,
				1
			],
			"scale":[
				1,
				1,
				1.0000001192092896
			],
			"translation":[
				4.470348358154297e-07,
				11.833890914916992,
				-2.6226043701171875e-06
			]
		},
		{
			"children":[
				54
			],
			"name":"mixamorig:LeftToeBase",
			"rotation":[
				0.3036887049674988,
				-0.036665916442871094,
				0.011696482077240944,
				0.9519937038421631
			],
			"scale":[
				0.9999999403953552,
				1,
				0.9999999403953552
			],
			"translation":[
				1.3709068298339844e-06,
				31.5672664642334,
				1.6689300537109375e-06
			]
		},
		{
			"children":[
				55
			],
			"name":"mixamorig:LeftFoot",
			"rotation":[
				0.450859010219574,
				0.07077931612730026,
				-0.03589348867535591,
				0.8890602588653564
			],
			"scale":[
				0.9999999403953552,
				1,
				0.9999998807907104
			],
			"translation":[
				-3.0909941415302455e-06,
				80.11700439453125,
				1.996522769331932e-07
			]
		},
		{
			"children":[
				56
			],
			"name":"mixamorig:LeftLeg",
			"rotation":[
				0.0016625110292807221,
				2.5103137886617333e-05,
				0.01426487136632204,
				0.9998968839645386
			],
			"scale":[
				0.9999998211860657,
				0.9999998211860657,
				0.9999998807907104
			],
			"translation":[
				5.37605956196785e-07,
				88.75438690185547,
				-6.287882570177317e-08
			]
		},
		{
			"children":[
				57
			],
			"name":"mixamorig:LeftUpLeg",
			"rotation":[
				0.0003006722836289555,
				-0.0150314811617136,
				0.9996880292892456,
				0.019948041066527367
			],
			"scale":[
				1.0000009536743164,
				0.9999998807907104,
				1.0000003576278687
			],
			"translation":[
				31.092309951782227,
				-15.88623046875,
				0.23936277627944946
			]
		},
		{
			"name":"mixamorig:RightToe_End",
			"rotation":[
				-1.979060471057892e-08,
				-3.748573362827301e-08,
				1.4260876923799515e-08,
				1
			],
			"scale":[
				1,
				1,
				0.9999999403953552
			],
			"translation":[
				-2.250075340270996e-06,
				11.611696243286133,
				-4.0531158447265625e-06
			]
		},
		{
			"children":[
				59
			],
			"name":"mixamorig:RightToeBase",
			"rotation":[
				0.30375057458877563,
				0.03444409370422363,
				-0.010989200323820114,
				0.9520653486251831
			],
			"scale":[
				0.9999999403953552,
				1.0000001192092896,
				1.0000001192092896
			],
			"translation":[
				5.699694156646729e-07,
				31.526195526123047,
				8.106231689453125e-06
			]
		},
		{
			"children":[
				60
			],
			"name":"mixamorig:RightFoot",
			"rotation":[
				0.4536328613758087,
				-0.070463165640831,
				0.036009281873703,
				0.8876686096191406
			],
			"scale":[
				0.9999999403953552,
				0.9999999403953552,
				0.9999998211860657
			],
			"translation":[
				-3.3274409361183643e-07,
				80.1348648071289,
				-1.6254489310085773e-07
			]
		},
		{
			"children":[
				61
			],
			"name":"mixamorig:RightLeg",
			"rotation":[
				0.0003919122682418674,
				-6.739215223205974e-06,
				-0.014263089746236801,
				0.9998981952667236
			],
			"scale":[
				0.9999999403953552,
				1,
				0.9999999403953552
			],
			"translation":[
				4.442641511559486e-06,
				88.7681655883789,
				-3.25548171531409e-07
			]
		},
		{
			"children":[
				62
			],
			"name":"mixamorig:RightUpLeg",
			"rotation":[
				0.0003486899076960981,
				0.017425019294023514,
				-0.9996492266654968,
				0.01994415745139122
			],
			"scale":[
				1.000001072883606,
				1.0000001192092896,
				1.0000008344650269
			],
			"translation":[
				-31.092309951782227,
				-15.88623046875,
				0.8284569382667542
			]
		},
		{
			"children":[
				53,
				58,
				63
			],
			"name":"mixamorig:Hips",
			"rotation":[
				-0.7071067690849304,
				0,
				0,
				0.7071067690849304
			],
			"translation":[
				-3.560383993317373e-05,
				4.26431131362915,
				-206.20782470703125
			]
		},
		{
			"mesh":0,
			"name":"Object_11",
			"skin":0
		},
		{
			"mesh":1,
			"name":"Object_7",
			"skin":0
		},
		{
			"mesh":2,
			"name":"Object_9",
			"skin":0
		},
		{
			"children":[
				65,
				66,
				67,
				64
			],
			"name":"Armature",
			"rotation":[
				0.7071068286895752,
				0,
				0,
				0.7071068286895752
			],
			"scale":[
				0.009999999776482582,
				0.009999999776482582,
				0.009999999776482582
			]
		}
	],
	"animations":[
		{
			"channels":[
				{
					"sampler":0,
					"target":{
						"node":64,
						"path":"translation"
					}
				},
				{
					"sampler":1,
					"target":{
						"node":64,
						"path":"rotation"
					}
				},
				{
					"sampler":2,
					"target":{
						"node":64,
						"path":"scale"
					}
				},
				{
					"sampler":3,
					"target":{
						"node":53,
						"path":"translation"
					}
				},
				{
					"sampler":4,
					"target":{
						"node":53,
						"path":"rotation"
					}
				},
				{
					"sampler":5,
					"target":{
						"node":53,
						"path":"scale"
					}
				},
				{
					"sampler":6,
					"target":{
						"node":52,
						"path":"translation"
					}
				},
				{
					"sampler":7,
					"target":{
						"node":52,
						"path":"rotation"
					}
				},
				{
					"sampler":8,
					"target":{
						"node":52,
						"path":"scale"
					}
				},
				{
					"sampler":9,
					"target":{
						"node":51,
						"path":"translation"
					}
				},
				{
					"sampler":10,
					"target":{
						"node":51,
						"path":"rotation"
					}
				},
				{
					"sampler":11,
					"target":{
						"node":51,
						"path":"scale"
					}
				},
				{
					"sampler":12,
					"target":{
						"node":2,
						"path":"translation"
					}
				},
				{
					"sampler":13,
					"target":{
						"node":2,
						"path":"rotation"
					}
				},
				{
					"sampler":14,
					"target":{
						"node":2,
						"path":"scale"
					}
				},
				{
					"sampler":15,
					"target":{
						"node":1,
						"path":"translation"
					}
				},
				{
					"sampler":16,
					"target":{
						"node":1,
						"path":"rotation"
					}
				},
				{
					"sampler":17,
					"target":{
						"node":1,
						"path":"scale"
					}
				},
				{
					"sampler":18,
					"target":{
						"node":0,
						"path":"translation"
					}
				},
				{
					"sampler":19,
					"target":{
						"node":0,
						"path":"rotation"
					}
				},
				{
					"sampler":20,
					"target":{
						"node":0,
						"path":"scale"
					}
				},
				{
					"sampler":21,
					"target":{
						"node":26,
						"path":"translation"
					}
				},
				{
					"sampler":22,
					"target":{
						"node":26,
						"path":"rotation"
					}
				},
				{
					"sampler":23,
					"target":{
						"node":26,
						"path":"scale"
					}
				},
				{
					"sampler":24,
					"target":{
						"node":25,
						"path":"translation"
					}
				},
				{
					"sampler":25,
					"target":{
						"node":25,
						"path":"rotation"
					}
				},
				{
					"sampler":26,
					"target":{
						"node":25,
						"path":"scale"
					}
				},
				{
					"sampler":27,
					"target":{
						"node":24,
						"path":"translation"
					}
				},
				{
					"sampler":28,
					"target":{
						"node":24,
						"path":"rotation"
					}
				},
				{
					"sampler":29,
					"target":{
						"node":24,
						"path":"scale"
					}
				},
				{
					"sampler":30,
					"target":{
						"node":23,
						"path":"translation"
					}
				},
				{
					"sampler":31,
					"target":{
						"node":23,
						"path":"rotation"
					}
				},
				{
					"sampler":32,
					"target":{
						"node":23,
						"path":"scale"
					}
				},
				{
					"sampler":33,
					"target":{
						"node":6,
						"path":"translation"
					}
				},
				{
					"sampler":34,
					"target":{
						"node":6,
						"path":"rotation"
					}
				},
				{
					"sampler":35,
					"target":{
						"node":6,
						"path":"scale"
					}
				},
				{
					"sampler":36,
					"target":{
						"node":5,
						"path":"translation"
					}
				},
				{
					"sampler":37,
					"target":{
						"node":5,
						"path":"rotation"
					}
				},
				{
					"sampler":38,
					"target":{
						"node":5,
						"path":"scale"
					}
				},
				{
					"sampler":39,
					"target":{
						"node":4,
						"path":"translation"
					}
				},
				{
					"sampler":40,
					"target":{
						"node":4,
						"path":"rotation"
					}
				},
				{
					"sampler":41,
					"target":{
						"node":4,
						"path":"scale"
					}
				},
				{
					"sampler":42,
					"target":{
						"node":3,
						"path":"translation"
					}
				},
				{
					"sampler":43,
					"target":{
						"node":3,
						"path":"rotation"
					}
				},
				{
					"sampler":44,
					"target":{
						"node":3,
						"path":"scale"
					}
				},
				{
					"sampler":45,
					"target":{
						"node":10,
						"path":"translation"
					}
				},
				{
					"sampler":46,
					"target":{
						"node":10,
						"path":"rotation"
					}
				},
				{
					"sampler":47,
					"target":{
						"node":10,
						"path":"scale"
					}
				},
				{
					"sampler":48,
					"target":{
						"node":9,
						"path":"translation"
					}
				},
				{
					"sampler":49,
					"target":{
						"node":9,
						"path":"rotation"
					}
				},
				{
					"sampler":50,
					"target":{
						"node":9,
						"path":"scale"
					}
				},
				{
					"sampler":51,
					"target":{
						"node":8,
						"path":"translation"
					}
				},
				{
					"sampler":52,
					"target":{
						"node":8,
						"path":"rotation"
					}
				},
				{
					"sampler":53,
					"target":{
						"node":8,
						"path":"scale"
					}
				},
				{
					"sampler":54,
					"target":{
						"node":7,
						"path":"translation"
					}
				},
				{
					"sampler":55,
					"target":{
						"node":7,
						"path":"rotation"
					}
				},
				{
					"sampler":56,
					"target":{
						"node":7,
						"path":"scale"
					}
				},
				{
					"sampler":57,
					"target":{
						"node":14,
						"path":"translation"
					}
				},
				{
					"sampler":58,
					"target":{
						"node":14,
						"path":"rotation"
					}
				},
				{
					"sampler":59,
					"target":{
						"node":14,
						"path":"scale"
					}
				},
				{
					"sampler":60,
					"target":{
						"node":13,
						"path":"translation"
					}
				},
				{
					"sampler":61,
					"target":{
						"node":13,
						"path":"rotation"
					}
				},
				{
					"sampler":62,
					"target":{
						"node":13,
						"path":"scale"
					}
				},
				{
					"sampler":63,
					"target":{
						"node":12,
						"path":"translation"
					}
				},
				{
					"sampler":64,
					"target":{
						"node":12,
						"path":"rotation"
					}
				},
				{
					"sampler":65,
					"target":{
						"node":12,
						"path":"scale"
					}
				},
				{
					"sampler":66,
					"target":{
						"node":11,
						"path":"translation"
					}
				},
				{
					"sampler":67,
					"target":{
						"node":11,
						"path":"rotation"
					}
				},
				{
					"sampler":68,
					"target":{
						"node":11,
						"path":"scale"
					}
				},
				{
					"sampler":69,
					"target":{
						"node":18,
						"path":"translation"
					}
				},
				{
					"sampler":70,
					"target":{
						"node":18,
						"path":"rotation"
					}
				},
				{
					"sampler":71,
					"target":{
						"node":18,
						"path":"scale"
					}
				},
				{
					"sampler":72,
					"target":{
						"node":17,
						"path":"translation"
					}
				},
				{
					"sampler":73,
					"target":{
						"node":17,
						"path":"rotation"
					}
				},
				{
					"sampler":74,
					"target":{
						"node":17,
						"path":"scale"
					}
				},
				{
					"sampler":75,
					"target":{
						"node":16,
						"path":"translation"
					}
				},
				{
					"sampler":76,
					"target":{
						"node":16,
						"path":"rotation"
					}
				},
				{
					"sampler":77,
					"target":{
						"node":16,
						"path":"scale"
					}
				},
				{
					"sampler":78,
					"target":{
						"node":15,
						"path":"translation"
					}
				},
				{
					"sampler":79,
					"target":{
						"node":15,
						"path":"rotation"
					}
				},
				{
					"sampler":80,
					"target":{
						"node":15,
						"path":"scale"
					}
				},
				{
					"sampler":81,
					"target":{
						"node":22,
						"path":"translation"
					}
				},
				{
					"sampler":82,
					"target":{
						"node":22,
						"path":"rotation"
					}
				},
				{
					"sampler":83,
					"target":{
						"node":22,
						"path":"scale"
					}
				},
				{
					"sampler":84,
					"target":{
						"node":21,
						"path":"translation"
					}
				},
				{
					"sampler":85,
					"target":{
						"node":21,
						"path":"rotation"
					}
				},
				{
					"sampler":86,
					"target":{
						"node":21,
						"path":"scale"
					}
				},
				{
					"sampler":87,
					"target":{
						"node":20,
						"path":"translation"
					}
				},
				{
					"sampler":88,
					"target":{
						"node":20,
						"path":"rotation"
					}
				},
				{
					"sampler":89,
					"target":{
						"node":20,
						"path":"scale"
					}
				},
				{
					"sampler":90,
					"target":{
						"node":19,
						"path":"translation"
					}
				},
				{
					"sampler":91,
					"target":{
						"node":19,
						"path":"rotation"
					}
				},
				{
					"sampler":92,
					"target":{
						"node":19,
						"path":"scale"
					}
				},
				{
					"sampler":93,
					"target":{
						"node":50,
						"path":"translation"
					}
				},
				{
					"sampler":94,
					"target":{
						"node":50,
						"path":"rotation"
					}
				},
				{
					"sampler":95,
					"target":{
						"node":50,
						"path":"scale"
					}
				},
				{
					"sampler":96,
					"target":{
						"node":49,
						"path":"translation"
					}
				},
				{
					"sampler":97,
					"target":{
						"node":49,
						"path":"rotation"
					}
				},
				{
					"sampler":98,
					"target":{
						"node":49,
						"path":"scale"
					}
				},
				{
					"sampler":99,
					"target":{
						"node":48,
						"path":"translation"
					}
				},
				{
					"sampler":100,
					"target":{
						"node":48,
						"path":"rotation"
					}
				},
				{
					"sampler":101,
					"target":{
						"node":48,
						"path":"scale"
					}
				},
				{
					"sampler":102,
					"target":{
						"node":47,
						"path":"translation"
					}
				},
				{
					"sampler":103,
					"target":{
						"node":47,
						"path":"rotation"
					}
				},
				{
					"sampler":104,
					"target":{
						"node":47,
						"path":"scale"
					}
				},
				{
					"sampler":105,
					"target":{
						"node":30,
						"path":"translation"
					}
				},
				{
					"sampler":106,
					"target":{
						"node":30,
						"path":"rotation"
					}
				},
				{
					"sampler":107,
					"target":{
						"node":30,
						"path":"scale"
					}
				},
				{
					"sampler":108,
					"target":{
						"node":29,
						"path":"translation"
					}
				},
				{
					"sampler":109,
					"target":{
						"node":29,
						"path":"rotation"
					}
				},
				{
					"sampler":110,
					"target":{
						"node":29,
						"path":"scale"
					}
				},
				{
					"sampler":111,
					"target":{
						"node":28,
						"path":"translation"
					}
				},
				{
					"sampler":112,
					"target":{
						"node":28,
						"path":"rotation"
					}
				},
				{
					"sampler":113,
					"target":{
						"node":28,
						"path":"scale"
					}
				},
				{
					"sampler":114,
					"target":{
						"node":27,
						"path":"translation"
					}
				},
				{
					"sampler":115,
					"target":{
						"node":27,
						"path":"rotation"
					}
				},
				{
					"sampler":116,
					"target":{
						"node":27,
						"path":"scale"
					}
				},
				{
					"sampler":117,
					"target":{
						"node":34,
						"path":"translation"
					}
				},
				{
					"sampler":118,
					"target":{
						"node":34,
						"path":"rotation"
					}
				},
				{
					"sampler":119,
					"target":{
						"node":34,
						"path":"scale"
					}
				},
				{
					"sampler":120,
					"target":{
						"node":33,
						"path":"translation"
					}
				},
				{
					"sampler":121,
					"target":{
						"node":33,
						"path":"rotation"
					}
				},
				{
					"sampler":122,
					"target":{
						"node":33,
						"path":"scale"
					}
				},
				{
					"sampler":123,
					"target":{
						"node":32,
						"path":"translation"
					}
				},
				{
					"sampler":124,
					"target":{
						"node":32,
						"path":"rotation"
					}
				},
				{
					"sampler":125,
					"target":{
						"node":32,
						"path":"scale"
					}
				},
				{
					"sampler":126,
					"target":{
						"node":31,
						"path":"translation"
					}
				},
				{
					"sampler":127,
					"target":{
						"node":31,
						"path":"rotation"
					}
				},
				{
					"sampler":128,
					"target":{
						"node":31,
						"path":"scale"
					}
				},
				{
					"sampler":129,
					"target":{
						"node":38,
						"path":"translation"
					}
				},
				{
					"sampler":130,
					"target":{
						"node":38,
						"path":"rotation"
					}
				},
				{
					"sampler":131,
					"target":{
						"node":38,
						"path":"scale"
					}
				},
				{
					"sampler":132,
					"target":{
						"node":37,
						"path":"translation"
					}
				},
				{
					"sampler":133,
					"target":{
						"node":37,
						"path":"rotation"
					}
				},
				{
					"sampler":134,
					"target":{
						"node":37,
						"path":"scale"
					}
				},
				{
					"sampler":135,
					"target":{
						"node":36,
						"path":"translation"
					}
				},
				{
					"sampler":136,
					"target":{
						"node":36,
						"path":"rotation"
					}
				},
				{
					"sampler":137,
					"target":{
						"node":36,
						"path":"scale"
					}
				},
				{
					"sampler":138,
					"target":{
						"node":35,
						"path":"translation"
					}
				},
				{
					"sampler":139,
					"target":{
						"node":35,
						"path":"rotation"
					}
				},
				{
					"sampler":140,
					"target":{
						"node":35,
						"path":"scale"
					}
				},
				{
					"sampler":141,
					"target":{
						"node":42,
						"path":"translation"
					}
				},
				{
					"sampler":142,
					"target":{
						"node":42,
						"path":"rotation"
					}
				},
				{
					"sampler":143,
					"target":{
						"node":42,
						"path":"scale"
					}
				},
				{
					"sampler":144,
					"target":{
						"node":41,
						"path":"translation"
					}
				},
				{
					"sampler":145,
					"target":{
						"node":41,
						"path":"rotation"
					}
				},
				{
					"sampler":146,
					"target":{
						"node":41,
						"path":"scale"
					}
				},
				{
					"sampler":147,
					"target":{
						"node":40,
						"path":"translation"
					}
				},
				{
					"sampler":148,
					"target":{
						"node":40,
						"path":"rotation"
					}
				},
				{
					"sampler":149,
					"target":{
						"node":40,
						"path":"scale"
					}
				},
				{
					"sampler":150,
					"target":{
						"node":39,
						"path":"translation"
					}
				},
				{
					"sampler":151,
					"target":{
						"node":39,
						"path":"rotation"
					}
				},
				{
					"sampler":152,
					"target":{
						"node":39,
						"path":"scale"
					}
				},
				{
					"sampler":153,
					"target":{
						"node":46,
						"path":"translation"
					}
				},
				{
					"sampler":154,
					"target":{
						"node":46,
						"path":"rotation"
					}
				},
				{
					"sampler":155,
					"target":{
						"node":46,
						"path":"scale"
					}
				},
				{
					"sampler":156,
					"target":{
						"node":45,
						"path":"translation"
					}
				},
				{
					"sampler":157,
					"target":{
						"node":45,
						"path":"rotation"
					}
				},
				{
					"sampler":158,
					"target":{
						"node":45,
						"path":"scale"
					}
				},
				{
					"sampler":159,
					"target":{
						"node":44,
						"path":"translation"
					}
				},
				{
					"sampler":160,
					"target":{
						"node":44,
						"path":"rotation"
					}
				},
				{
					"sampler":161,
					"target":{
						"node":44,
						"path":"scale"
					}
				},
				{
					"sampler":162,
					"target":{
						"node":43,
						"path":"translation"
					}
				},
				{
					"sampler":163,
					"target":{
						"node":43,
						"path":"rotation"
					}
				},
				{
					"sampler":164,
					"target":{
						"node":43,
						"path":"scale"
					}
				},
				{
					"sampler":165,
					"target":{
						"node":58,
						"path":"translation"
					}
				},
				{
					"sampler":166,
					"target":{
						"node":58,
						"path":"rotation"
					}
				},
				{
					"sampler":167,
					"target":{
						"node":58,
						"path":"scale"
					}
				},
				{
					"sampler":168,
					"target":{
						"node":57,
						"path":"translation"
					}
				},
				{
					"sampler":169,
					"target":{
						"node":57,
						"path":"rotation"
					}
				},
				{
					"sampler":170,
					"target":{
						"node":57,
						"path":"scale"
					}
				},
				{
					"sampler":171,
					"target":{
						"node":56,
						"path":"translation"
					}
				},
				{
					"sampler":172,
					"target":{
						"node":56,
						"path":"rotation"
					}
				},
				{
					"sampler":173,
					"target":{
						"node":56,
						"path":"scale"
					}
				},
				{
					"sampler":174,
					"target":{
						"node":55,
						"path":"translation"
					}
				},
				{
					"sampler":175,
					"target":{
						"node":55,
						"path":"rotation"
					}
				},
				{
					"sampler":176,
					"target":{
						"node":55,
						"path":"scale"
					}
				},
				{
					"sampler":177,
					"target":{
						"node":54,
						"path":"translation"
					}
				},
				{
					"sampler":178,
					"target":{
						"node":54,
						"path":"rotation"
					}
				},
				{
					"sampler":179,
					"target":{
						"node":54,
						"path":"scale"
					}
				},
				{
					"sampler":180,
					"target":{
						"node":63,
						"path":"translation"
					}
				},
				{
					"sampler":181,
					"target":{
						"node":63,
						"path":"rotation"
					}
				},
				{
					"sampler":182,
					"target":{
						"node":63,
						"path":"scale"
					}
				},
				{
					"sampler":183,
					"target":{
						"node":62,
						"path":"translation"
					}
				},
				{
					"sampler":184,
					"target":{
						"node":62,
						"path":"rotation"
					}
				},
				{
					"sampler":185,
					"target":{
						"node":62,
						"path":"scale"
					}
				},
				{
					"sampler":186,
					"target":{
						"node":61,
						"path":"translation"
					}
				},
				{
					"sampler":187,
					"target":{
						"node":61,
						"path":"rotation"
					}
				},
				{
					"sampler":188,
					"target":{
						"node":61,
						"path":"scale"
					}
				},
				{
					"sampler":189,
					"target":{
						"node":60,
						"path":"translation"
					}
				},
				{
					"sampler":190,
					"target":{
						"node":60,
						"path":"rotation"
					}
				},
				{
					"sampler":191,
					"target":{
						"node":60,
						"path":"scale"
					}
				},
				{
					"sampler":192,
					"target":{
						"node":59,
						"path":"translation"
					}
				},
				{
					"sampler":193,
					"target":{
						"node":59,
						"path":"rotation"
					}
				},
				{
					"sampler":194,
					"target":{
						"node":59,
						"path":"scale"
					}
				}
			],
			"name":"Armature|mixamo.com|Layer0",
			"samplers":[
				{
					"input":19,
					"interpolation":"LINEAR",
					"output":20
				},
				{
					"input":19,
					"interpolation":"LINEAR",
					"output":21
				},
				{
					"input":22,
					"interpolation":"LINEAR",
					"output":23
				},
				{
					"input":22,
					"interpolation":"LINEAR",
					"output":24
				},
				{
					"input":19,
					"interpolation":"LINEAR",
					"output":25
				},
				{
					"input":22,
					"interpolation":"STEP",
					"output":26
				},
				{
					"input":22,
					"interpolation":"LINEAR",
					"output":27
				},
				{
					"input":19,
					"interpolation":"LINEAR",
					"output":28
				},
				{
					"input":22,
					"interpolation":"STEP",
					"output":29
				},
				{
					"input":22,
					"interpolation":"LINEAR",
					"output":30
				},
				{
					"input":19,
					"interpolation":"LINEAR",
					"output":31
				},
				{
					"input":22,
					"interpolation":"STEP",
					"output":32
				},
				{
					"input":19,
					"interpolation":"LINEAR",
					"output":33
				},
				{
					"input":19,
					"interpolation":"LINEAR",
					"output":34
				},
				{
					"input":22,
					"interpolation":"LINEAR",
					"output":35
				},
				{
					"input":19,
					"interpolation":"LINEAR",
					"output":36
				},
				{
					"input":19,
					"interpolation":"LINEAR",
					"output":37
				},
				{
					"input":22,
					"interpolation":"STEP",
					"output":38
				},
				{
					"input":19,
					"interpolation":"LINEAR",
					"output":39
				},
				{
					"input":22,
					"interpolation":"STEP",
					"output":40
				},
				{
					"input":22,
					"interpolation":"STEP",
					"output":41
				},
				{
					"input":19,
					"interpolation":"LINEAR",
					"output":42
				},
				{
					"input":19,
					"interpolation":"LINEAR",
					"output":43
				},
				{
					"input":22,
					"interpolation":"LINEAR",
					"output":44
				},
				{
					"input":22,
					"interpolation":"LINEAR",
					"output":45
				},
				{
					"input":19,
					"interpolation":"LINEAR",
					"output":46
				},
				{
					"input":22,
					"interpolation":"LINEAR",
					"output":47
				},
				{
					"input":22,
					"interpolation":"LINEAR",
					"output":48
				},
				{
					"input":19,
					"interpolation":"LINEAR",
					"output":49
				},
				{
					"input":22,
					"interpolation":"LINEAR",
					"output":50
				},
				{
					"input":22,
					"interpolation":"LINEAR",
					"output":51
				},
				{
					"input":19,
					"interpolation":"LINEAR",
					"output":52
				},
				{
					"input":22,
					"interpolation":"LINEAR",
					"output":53
				},
				{
					"input":22,
					"interpolation":"LINEAR",
					"output":54
				},
				{
					"input":19,
					"interpolation":"LINEAR",
					"output":55
				},
				{
					"input":22,
					"interpolation":"LINEAR",
					"output":56
				},
				{
					"input":19,
					"interpolation":"LINEAR",
					"output":57
				},
				{
					"input":22,
					"interpolation":"LINEAR",
					"output":58
				},
				{
					"input":22,
					"interpolation":"LINEAR",
					"output":59
				},
				{
					"input":19,
					"interpolation":"LINEAR",
					"output":60
				},
				{
					"input":22,
					"interpolation":"LINEAR",
					"output":61
				},
				{
					"input":22,
					"interpolation":"STEP",
					"output":62
				},
				{
					"input":19,
					"interpolation":"LINEAR",
					"output":63
				},
				{
					"input":22,
					"interpolation":"STEP",
					"output":64
				},
				{
					"input":22,
					"interpolation":"STEP",
					"output":65
				},
				{
					"input":22,
					"interpolation":"LINEAR",
					"output":66
				},
				{
					"input":19,
					"interpolation":"LINEAR",
					"output":67
				},
				{
					"input":22,
					"interpolation":"LINEAR",
					"output":68
				},
				{
					"input":22,
					"interpolation":"LINEAR",
					"output":69
				},
				{
					"input":22,
					"interpolation":"LINEAR",
					"output":70
				},
				{
					"input":22,
					"interpolation":"STEP",
					"output":71
				},
				{
					"input":19,
					"interpolation":"LINEAR",
					"output":72
				},
				{
					"input":22,
					"interpolation":"LINEAR",
					"output":73
				},
				{
					"input":22,
					"interpolation":"STEP",
					"output":74
				},
				{
					"input":22,
					"interpolation":"STEP",
					"output":75
				},
				{
					"input":22,
					"interpolation":"STEP",
					"output":76
				},
				{
					"input":22,
					"interpolation":"STEP",
					"output":77
				},
				{
					"input":22,
					"interpolation":"LINEAR",
					"output":78
				},
				{
					"input":19,
					"interpolation":"LINEAR",
					"output":79
				},
				{
					"input":22,
					"interpolation":"LINEAR",
					"output":80
				},
				{
					"input":19,
					"interpolation":"LINEAR",
					"output":81
				},
				{
					"input":22,
					"interpolation":"LINEAR",
					"output":82
				},
				{
					"input":22,
					"interpolation":"LINEAR",
					"output":83
				},
				{
					"input":22,
					"interpolation":"LINEAR",
					"output":84
				},
				{
					"input":22,
					"interpolation":"LINEAR",
					"output":85
				},
				{
					"input":22,
					"interpolation":"LINEAR",
					"output":86
				},
				{
					"input":22,
					"interpolation":"STEP",
					"output":87
				},
				{
					"input":22,
					"interpolation":"STEP",
					"output":88
				},
				{
					"input":22,
					"interpolation":"STEP",
					"output":89
				},
				{
					"input":22,
					"interpolation":"LINEAR",
					"output":90
				},
				{
					"input":19,
					"interpolation":"LINEAR",
					"output":91
				},
				{
					"input":22,
					"interpolation":"LINEAR",
					"output":92
				},
				{
					"input":19,
					"interpolation":"LINEAR",
					"output":93
				},
				{
					"input":22,
					"interpolation":"LINEAR",
					"output":94
				},
				{
					"input":22,
					"interpolation":"STEP",
					"output":95
				},
				{
					"input":22,
					"interpolation":"LINEAR",
					"output":96
				},
				{
					"input":22,
					"interpolation":"LINEAR",
					"output":97
				},
				{
					"input":22,
					"interpolation":"LINEAR",
					"output":98
				},
				{
					"input":22,
					"interpolation":"STEP",
					"output":99
				},
				{
					"input":22,
					"interpolation":"STEP",
					"output":100
				},
				{
					"input":22,
					"interpolation":"STEP",
					"output":101
				},
				{
					"input":22,
					"interpolation":"LINEAR",
					"output":102
				},
				{
					"input":19,
					"interpolation":"LINEAR",
					"output":103
				},
				{
					"input":22,
					"interpolation":"STEP",
					"output":104
				},
				{
					"input":22,
					"interpolation":"LINEAR",
					"output":105
				},
				{
					"input":22,
					"interpolation":"LINEAR",
					"output":106
				},
				{
					"input":22,
					"interpolation":"STEP",
					"output":107
				},
				{
					"input":22,
					"interpolation":"LINEAR",
					"output":108
				},
				{
					"input":22,
					"interpolation":"LINEAR",
					"output":109
				},
				{
					"input":22,
					"interpolation":"STEP",
					"output":110
				},
				{
					"input":22,
					"interpolation":"STEP",
					"output":111
				},
				{
					"input":22,
					"interpolation":"STEP",
					"output":112
				},
				{
					"input":22,
					"interpolation":"STEP",
					"output":113
				},
				{
					"input":19,
					"interpolation":"LINEAR",
					"output":114
				},
				{
					"input":19,
					"interpolation":"LINEAR",
					"output":115
				},
				{
					"input":22,
					"interpolation":"LINEAR",
					"output":116
				},
				{
					"input":19,
					"interpolation":"LINEAR",
					"output":117
				},
				{
					"input":19,
					"interpolation":"LINEAR",
					"output":118
				},
				{
					"input":22,
					"interpolation":"LINEAR",
					"output":119
				},
				{
					"input":22,
					"interpolation":"LINEAR",
					"output":120
				},
				{
					"input":19,
					"interpolation":"LINEAR",
					"output":121
				},
				{
					"input":22,
					"interpolation":"LINEAR",
					"output":122
				},
				{
					"input":22,
					"interpolation":"LINEAR",
					"output":123
				},
				{
					"input":19,
					"interpolation":"LINEAR",
					"output":124
				},
				{
					"input":22,
					"interpolation":"STEP",
					"output":125
				},
				{
					"input":22,
					"interpolation":"LINEAR",
					"output":126
				},
				{
					"input":19,
					"interpolation":"LINEAR",
					"output":127
				},
				{
					"input":22,
					"interpolation":"LINEAR",
					"output":128
				},
				{
					"input":22,
					"interpolation":"LINEAR",
					"output":129
				},
				{
					"input":22,
					"interpolation":"LINEAR",
					"output":130
				},
				{
					"input":22,
					"interpolation":"STEP",
					"output":131
				},
				{
					"input":19,
					"interpolation":"LINEAR",
					"output":132
				},
				{
					"input":22,
					"interpolation":"LINEAR",
					"output":133
				},
				{
					"input":22,
					"interpolation":"LINEAR",
					"output":134
				},
				{
					"input":19,
					"interpolation":"LINEAR",
					"output":135
				},
				{
					"input":22,
					"interpolation":"STEP",
					"output":136
				},
				{
					"input":22,
					"interpolation":"STEP",
					"output":137
				},
				{
					"input":19,
					"interpolation":"LINEAR",
					"output":138
				},
				{
					"input":19,
					"interpolation":"LINEAR",
					"output":139
				},
				{
					"input":22,
					"interpolation":"LINEAR",
					"output":140
				},
				{
					"input":19,
					"interpolation":"LINEAR",
					"output":141
				},
				{
					"input":22,
					"interpolation":"LINEAR",
					"output":142
				},
				{
					"input":22,
					"interpolation":"LINEAR",
					"output":143
				},
				{
					"input":22,
					"interpolation":"LINEAR",
					"output":144
				},
				{
					"input":22,
					"interpolation":"LINEAR",
					"output":145
				},
				{
					"input":22,
					"interpolation":"STEP",
					"output":146
				},
				{
					"input":22,
					"interpolation":"STEP",
					"output":147
				},
				{
					"input":22,
					"interpolation":"STEP",
					"output":148
				},
				{
					"input":22,
					"interpolation":"STEP",
					"output":149
				},
				{
					"input":19,
					"interpolation":"LINEAR",
					"output":150
				},
				{
					"input":19,
					"interpolation":"LINEAR",
					"output":151
				},
				{
					"input":22,
					"interpolation":"STEP",
					"output":152
				},
				{
					"input":19,
					"interpolation":"LINEAR",
					"output":153
				},
				{
					"input":22,
					"interpolation":"LINEAR",
					"output":154
				},
				{
					"input":22,
					"interpolation":"STEP",
					"output":155
				},
				{
					"input":22,
					"interpolation":"LINEAR",
					"output":156
				},
				{
					"input":22,
					"interpolation":"LINEAR",
					"output":157
				},
				{
					"input":22,
					"interpolation":"LINEAR",
					"output":158
				},
				{
					"input":22,
					"interpolation":"STEP",
					"output":159
				},
				{
					"input":22,
					"interpolation":"STEP",
					"output":160
				},
				{
					"input":22,
					"interpolation":"STEP",
					"output":161
				},
				{
					"input":19,
					"interpolation":"LINEAR",
					"output":162
				},
				{
					"input":19,
					"interpolation":"LINEAR",
					"output":163
				},
				{
					"input":22,
					"interpolation":"LINEAR",
					"output":164
				},
				{
					"input":22,
					"interpolation":"LINEAR",
					"output":165
				},
				{
					"input":22,
					"interpolation":"LINEAR",
					"output":166
				},
				{
					"input":22,
					"interpolation":"LINEAR",
					"output":167
				},
				{
					"input":19,
					"interpolation":"LINEAR",
					"output":168
				},
				{
					"input":22,
					"interpolation":"LINEAR",
					"output":169
				},
				{
					"input":22,
					"interpolation":"LINEAR",
					"output":170
				},
				{
					"input":22,
					"interpolation":"STEP",
					"output":171
				},
				{
					"input":22,
					"interpolation":"STEP",
					"output":172
				},
				{
					"input":22,
					"interpolation":"STEP",
					"output":173
				},
				{
					"input":22,
					"interpolation":"LINEAR",
					"output":174
				},
				{
					"input":19,
					"interpolation":"LINEAR",
					"output":175
				},
				{
					"input":22,
					"interpolation":"STEP",
					"output":176
				},
				{
					"input":22,
					"interpolation":"LINEAR",
					"output":177
				},
				{
					"input":22,
					"interpolation":"LINEAR",
					"output":178
				},
				{
					"input":22,
					"interpolation":"STEP",
					"output":179
				},
				{
					"input":19,
					"interpolation":"LINEAR",
					"output":180
				},
				{
					"input":22,
					"interpolation":"LINEAR",
					"output":181
				},
				{
					"input":22,
					"interpolation":"LINEAR",
					"output":182
				},
				{
					"input":22,
					"interpolation":"STEP",
					"output":183
				},
				{
					"input":22,
					"interpolation":"STEP",
					"output":184
				},
				{
					"input":22,
					"interpolation":"STEP",
					"output":185
				},
				{
					"input":22,
					"interpolation":"LINEAR",
					"output":186
				},
				{
					"input":19,
					"interpolation":"LINEAR",
					"output":187
				},
				{
					"input":22,
					"interpolation":"STEP",
					"output":188
				},
				{
					"input":22,
					"interpolation":"LINEAR",
					"output":189
				},
				{
					"input":19,
					"interpolation":"LINEAR",
					"output":190
				},
				{
					"input":22,
					"interpolation":"STEP",
					"output":191
				},
				{
					"input":22,
					"interpolation":"LINEAR",
					"output":192
				},
				{
					"input":19,
					"interpolation":"LINEAR",
					"output":193
				},
				{
					"input":22,
					"interpolation":"STEP",
					"output":194
				},
				{
					"input":22,
					"interpolation":"LINEAR",
					"output":195
				},
				{
					"input":19,
					"interpolation":"LINEAR",
					"output":196
				},
				{
					"input":22,
					"interpolation":"STEP",
					"output":197
				},
				{
					"input":22,
					"interpolation":"STEP",
					"output":198
				},
				{
					"input":22,
					"interpolation":"STEP",
					"output":199
				},
				{
					"input":22,
					"interpolation":"STEP",
					"output":200
				},
				{
					"input":22,
					"interpolation":"LINEAR",
					"output":201
				},
				{
					"input":19,
					"interpolation":"LINEAR",
					"output":202
				},
				{
					"input":22,
					"interpolation":"STEP",
					"output":203
				},
				{
					"input":22,
					"interpolation":"LINEAR",
					"output":204
				},
				{
					"input":19,
					"interpolation":"LINEAR",
					"output":205
				},
				{
					"input":22,
					"interpolation":"LINEAR",
					"output":206
				},
				{
					"input":22,
					"interpolation":"LINEAR",
					"output":207
				},
				{
					"input":19,
					"interpolation":"LINEAR",
					"output":208
				},
				{
					"input":22,
					"interpolation":"LINEAR",
					"output":209
				},
				{
					"input":22,
					"interpolation":"LINEAR",
					"output":210
				},
				{
					"input":19,
					"interpolation":"LINEAR",
					"output":211
				},
				{
					"input":22,
					"interpolation":"LINEAR",
					"output":212
				},
				{
					"input":22,
					"interpolation":"STEP",
					"output":213
				},
				{
					"input":22,
					"interpolation":"STEP",
					"output":214
				},
				{
					"input":22,
					"interpolation":"STEP",
					"output":215
				}
			]
		}
	],
	"materials":[
		{
			"doubleSided":true,
			"name":"5_hair_1_0_0",
			"pbrMetallicRoughness":{
				"baseColorTexture":{
					"index":0
				}
			}
		},
		{
			"doubleSided":true,
			"name":"5_body_1_0_0",
			"pbrMetallicRoughness":{
				"baseColorTexture":{
					"index":1
				}
			}
		},
		{
			"doubleSided":true,
			"name":"5_face_1_0_0",
			"pbrMetallicRoughness":{
				"baseColorTexture":{
					"index":2
				}
			}
		}
	],
	"meshes":[
		{
			"name":"Object_2",
			"primitives":[
				{
					"attributes":{
						"POSITION":0,
						"NORMAL":1,
						"TEXCOORD_0":2,
						"JOINTS_0":3,
						"WEIGHTS_0":4
					},
					"indices":5,
					"material":0
				}
			]
		},
		{
			"name":"Object_0",
			"primitives":[
				{
					"attributes":{
						"POSITION":7,
						"NORMAL":8,
						"TEXCOORD_0":9,
						"JOINTS_0":10,
						"WEIGHTS_0":11
					},
					"indices":12,
					"material":1
				}
			]
		},
		{
			"name":"Object_1",
			"primitives":[
				{
					"attributes":{
						"POSITION":13,
						"NORMAL":14,
						"TEXCOORD_0":15,
						"JOINTS_0":16,
						"WEIGHTS_0":17
					},
					"indices":18,
					"material":2
				}
			]
		}
	],
	"textures":[
		{
			"sampler":0,
			"source":0
		},
		{
			"sampler":0,
			"source":1
		},
		{
			"sampler":0,
			"source":2
		}
	],
	"images":[
		{
			"mimeType":"image/png",
			"name":"5_hair_1_0_0_baseColor",
			"uri":"textures/5_hair_1_0_0_baseColor.png"
		},
		{
			"mimeType":"image/png",
			"name":"5_body_1_0_0_baseColor",
			"uri":"textures/5_body_1_0_0_baseColor.png"
		},
		{
			"mimeType":"image/png",
			"name":"5_face_1_0_0_baseColor",
			"uri":"textures/5_face_1_0_0_baseColor.png"
		}
	],
	"skins":[
		{
			"inverseBindMatrices":6,
			"joints":[
				64,
				53,
				52,
				51,
				2,
				1,
				0,
				26,
				25,
				24,
				23,
				6,
				5,
				4,
				3,
				10,
				9,
				8,
				7,
				14,
				13,
				12,
				11,
				18,
				17,
				16,
				15,
				22,
				21,
				20,
				19,
				50,
				49,
				48,
				47,
				30,
				29,
				28,
				27,
				34,
				33,
				32,
				31,
				38,
				37,
				36,
				35,
				42,
				41,
				40,
				39,
				46,
				45,
				44,
				43,
				58,
				57,
				56,
				55,
				54,
				63,
				62,
				61,
				60,
				59
			],
			"name":"Armature"
		}
	],
	"accessors":[
		{
			"bufferView":0,
			"componentType":5126,
			"count":3386,
			"max":[
				0.2495252639055252,
				4.233094215393066,
				0.2967641353607178
			],
			"min":[
				-0.24952517449855804,
				3.707517147064209,
				-0.25855061411857605
			],
			"type":"VEC3"
		},
		{
			"bufferView":1,
			"componentType":5126,
			"count":3386,
			"type":"VEC3"
		},
		{
			"bufferView":2,
			"componentType":5126,
			"count":3386,
			"type":"VEC2"
		},
		{
			"bufferView":3,
			"componentType":5121,
			"count":3386,
			"type":"VEC4"
		},
		{
			"bufferView":4,
			"componentType":5126,
			"count":3386,
			"type":"VEC4"
		},
		{
			"bufferView":5,
			"componentType":5123,
			"count":10044,
			"type":"SCALAR"
		},
		{
			"bufferView":6,
			"componentType":5126,
			"count":65,
			"type":"MAT4"
		},
		{
			"bufferView":7,
			"componentType":5126,
			"count":5870,
			"max":[
				2.41607928276062,
				3.7632389068603516,
				0.7377939224243164
			],
			"min":[
				-2.4160799980163574,
				0.00041231763316318393,
				-0.3834623396396637
			],
			"type":"VEC3"
		},
		{
			"bufferView":8,
			"componentType":5126,
			"count":5870,
			"type":"VEC3"
		},
		{
			"bufferView":9,
			"componentType":5126,
			"count":5870,
			"type":"VEC2"
		},
		{
			"bufferView":10,
			"componentType":5121,
			"count":5870,
			"type":"VEC4"
		},
		{
			"bufferView":11,
			"componentType":5126,
			"count":5870,
			"type":"VEC4"
		},
		{
			"bufferView":12,
			"componentType":5123,
			"count":28482,
			"type":"SCALAR"
		},
		{
			"bufferView":13,
			"componentType":5126,
			"count":3131,
			"max":[
				0.2410089671611786,
				4.076084136962891,
				0.3399103283882141
			],
			"min":[
				-0.24100887775421143,
				3.5218849182128906,
				-0.18047073483467102
			],
			"type":"VEC3"
		},
		{
			"bufferView":14,
			"componentType":5126,
			"count":3131,
			"type":"VEC3"
		},
		{
			"bufferView":15,
			"componentType":5126,
			"count":3131,
			"type":"VEC2"
		},
		{
			"bufferView":16,
			"componentType":5121,
			"count":3131,
			"type":"VEC4"
		},
		{
			"bufferView":17,
			"componentType":5126,
			"count":3131,
			"type":"VEC4"
		},
		{
			"bufferView":18,
			"componentType":5123,
			"count":14790,
			"type":"SCALAR"
		},
		{
			"bufferView":19,
			"componentType":5126,
			"count":20,
			"max":[
				0.6666666666666666
			],
			"min":[
				0.03333333333333333
			],
			"type":"SCALAR"
		},
		{
			"bufferView":20,
			"componentType":5126,
			"count":20,
			"type":"VEC3"
		},
		{
			"bufferView":21,
			"componentType":5126,
			"count":20,
			"type":"VEC4"
		},
		{
			"bufferView":22,
			"componentType":5126,
			"count":2,
			"max":[
				0.6666666666666666
			],
			"min":[
				0.03333333333333333
			],
			"type":"SCALAR"
		},
		{
			"bufferView":23,
			"componentType":5126,
			"count":2,
			"type":"VEC3"
		},
		{
			"bufferView":24,
			"componentType":5126,
			"count":2,
			"type":"VEC3"
		},
		{
			"bufferView":25,
			"componentType":5126,
			"count":20,
			"type":"VEC4"
		},
		{
			"bufferView":26,
			"componentType":5126,
			"count":2,
			"type":"VEC3"
		},
		{
			"bufferView":27,
			"componentType":5126,
			"count":2,
			"type":"VEC3"
		},
		{
			"bufferView":28,
			"componentType":5126,
			"count":20,
			"type":"VEC4"
		},
		{
			"bufferView":29,
			"componentType":5126,
			"count":2,
			"type":"VEC3"
		},
		{
			"bufferView":30,
			"componentType":5126,
			"count":2,
			"type":"VEC3"
		},
		{
			"bufferView":31,
			"componentType":5126,
			"count":20,
			"type":"VEC4"
		},
		{
			"bufferView":32,
			"componentType":5126,
			"count":2,
			"type":"VEC3"
		},
		{
			"bufferView":33,
			"componentType":5126,
			"count":20,
			"type":"VEC3"
		},
		{
			"bufferView":34,
			"componentType":5126,
			"count":20,
			"type":"VEC4"
		},
		{
			"bufferView":35,
			"componentType":5126,
			"count":2,
			"type":"VEC3"
		},
		{
			"bufferView":36,
			"componentType":5126,
			"count":20,
			"type":"VEC3"
		},
		{
			"bufferView":37,
			"componentType":5126,
			"count":20,
			"type":"VEC4"
		},
		{
			"bufferView":38,
			"componentType":5126,
			"count":2,
			"type":"VEC3"
		},
		{
			"bufferView":39,
			"componentType":5126,
			"count":20,
			"type":"VEC3"
		},
		{
			"bufferView":40,
			"componentType":5126,
			"count":2,
			"type":"VEC4"
		},
		{
			"bufferView":41,
			"componentType":5126,
			"count":2,
			"type":"VEC3"
		},
		{
			"bufferView":42,
			"componentType":5126,
			"count":20,
			"type":"VEC3"
		},
		{
			"bufferView":43,
			"componentType":5126,
			"count":20,
			"type":"VEC4"
		},
		{
			"bufferView":44,
			"componentType":5126,
			"count":2,
			"type":"VEC3"
		},
		{
			"bufferView":45,
			"componentType":5126,
			"count":2,
			"type":"VEC3"
		},
		{
			"bufferView":46,
			"componentType":5126,
			"count":20,
			"type":"VEC4"
		},
		{
			"bufferView":47,
			"componentType":5126,
			"count":2,
			"type":"VEC3"
		},
		{
			"bufferView":48,
			"componentType":5126,
			"count":2,
			"type":"VEC3"
		},
		{
			"bufferView":49,
			"componentType":5126,
			"count":20,
			"type":"VEC4"
		},
		{
			"bufferView":50,
			"componentType":5126,
			"count":2,
			"type":"VEC3"
		},
		{
			"bufferView":51,
			"componentType":5126,
			"count":2,
			"type":"VEC3"
		},
		{
			"bufferView":52,
			"componentType":5126,
			"count":20,
			"type":"VEC4"
		},
		{
			"bufferView":53,
			"componentType":5126,
			"count":2,
			"type":"VEC3"
		},
		{
			"bufferView":54,
			"componentType":5126,
			"count":2,
			"type":"VEC3"
		},
		{
			"bufferView":55,
			"componentType":5126,
			"count":20,
			"type":"VEC4"
		},
		{
			"bufferView":56,
			"componentType":5126,
			"count":2,
			"type":"VEC3"
		},
		{
			"bufferView":57,
			"componentType":5126,
			"count":20,
			"type":"VEC3"
		},
		{
			"bufferView":58,
			"componentType":5126,
			"count":2,
			"type":"VEC4"
		},
		{
			"bufferView":59,
			"componentType":5126,
			"count":2,
			"type":"VEC3"
		},
		{
			"bufferView":60,
			"componentType":5126,
			"count":20,
			"type":"VEC3"
		},
		{
			"bufferView":61,
			"componentType":5126,
			"count":2,
			"type":"VEC4"
		},
		{
			"bufferView":62,
			"componentType":5126,
			"count":2,
			"type":"VEC3"
		},
		{
			"bufferView":63,
			"componentType":5126,
			"count":20,
			"type":"VEC3"
		},
		{
			"bufferView":64,
			"componentType":5126,
			"count":2,
			"type":"VEC4"
		},
		{
			"bufferView":65,
			"componentType":5126,
			"count":2,
			"type":"VEC3"
		},
		{
			"bufferView":66,
			"componentType":5126,
			"count":2,
			"type":"VEC3"
		},
		{
			"bufferView":67,
			"componentType":5126,
			"count":20,
			"type":"VEC4"
		},
		{
			"bufferView":68,
			"componentType":5126,
			"count":2,
			"type":"VEC3"
		},
		{
			"bufferView":69,
			"componentType":5126,
			"count":2,
			"type":"VEC3"
		},
		{
			"bufferView":70,
			"componentType":5126,
			"count":2,
			"type":"VEC4"
		},
		{
			"bufferView":71,
			"componentType":5126,
			"count":2,
			"type":"VEC3"
		},
		{
			"bufferView":72,
			"componentType":5126,
			"count":20,
			"type":"VEC3"
		},
		{
			"bufferView":73,
			"componentType":5126,
			"count":2,
			"type":"VEC4"
		},
		{
			"bufferView":74,
			"componentType":5126,
			"count":2,
			"type":"VEC3"
		},
		{
			"bufferView":75,
			"componentType":5126,
			"count":2,
			"type":"VEC3"
		},
		{
			"bufferView":76,
			"componentType":5126,
			"count":2,
			"type":"VEC4"
		},
		{
			"bufferView":77,
			"componentType":5126,
			"count":2,
			"type":"VEC3"
		},
		{
			"bufferView":78,
			"componentType":5126,
			"count":2,
			"type":"VEC3"
		},
		{
			"bufferView":79,
			"componentType":5126,
			"count":20,
			"type":"VEC4"
		},
		{
			"bufferView":80,
			"componentType":5126,
			"count":2,
			"type":"VEC3"
		},
		{
			"bufferView":81,
			"componentType":5126,
			"count":20,
			"type":"VEC3"
		},
		{
			"bufferView":82,
			"componentType":5126,
			"count":2,
			"type":"VEC4"
		},
		{
			"bufferView":83,
			"componentType":5126,
			"count":2,
			"type":"VEC3"
		},
		{
			"bufferView":84,
			"componentType":5126,
			"count":2,
			"type":"VEC3"
		},
		{
			"bufferView":85,
			"componentType":5126,
			"count":2,
			"type":"VEC4"
		},
		{
			"bufferView":86,
			"componentType":5126,
			"count":2,
			"type":"VEC3"
		},
		{
			"bufferView":87,
			"componentType":5126,
			"count":2,
			"type":"VEC3"
		},
		{
			"bufferView":88,
			"componentType":5126,
			"count":2,
			"type":"VEC4"
		},
		{
			"bufferView":89,
			"componentType":5126,
			"count":2,
			"type":"VEC3"
		},
		{
			"bufferView":90,
			"componentType":5126,
			"count":2,
			"type":"VEC3"
		},
		{
			"bufferView":91,
			"componentType":5126,
			"count":20,
			"type":"VEC4"
		},
		{
			"bufferView":92,
			"componentType":5126,
			"count":2,
			"type":"VEC3"
		},
		{
			"bufferView":93,
			"componentType":5126,
			"count":20,
			"type":"VEC3"
		},
		{
			"bufferView":94,
			"componentType":5126,
			"count":2,
			"type":"VEC4"
		},
		{
			"bufferView":95,
			"componentType":5126,
			"count":2,
			"type":"VEC3"
		},
		{
			"bufferView":96,
			"componentType":5126,
			"count":2,
			"type":"VEC3"
		},
		{
			"bufferView":97,
			"componentType":5126,
			"count":2,
			"type":"VEC4"
		},
		{
			"bufferView":98,
			"componentType":5126,
			"count":2,
			"type":"VEC3"
		},
		{
			"bufferView":99,
			"componentType":5126,
			"count":2,
			"type":"VEC3"
		},
		{
			"bufferView":100,
			"componentType":5126,
			"count":2,
			"type":"VEC4"
		},
		{
			"bufferView":101,
			"componentType":5126,
			"count":2,
			"type":"VEC3"
		},
		{
			"bufferView":102,
			"componentType":5126,
			"count":2,
			"type":"VEC3"
		},
		{
			"bufferView":103,
			"componentType":5126,
			"count":20,
			"type":"VEC4"
		},
		{
			"bufferView":104,
			"componentType":5126,
			"count":2,
			"type":"VEC3"
		},
		{
			"bufferView":105,
			"componentType":5126,
			"count":2,
			"type":"VEC3"
		},
		{
			"bufferView":106,
			"componentType":5126,
			"count":2,
			"type":"VEC4"
		},
		{
			"bufferView":107,
			"componentType":5126,
			"count":2,
			"type":"VEC3"
		},
		{
			"bufferView":108,
			"componentType":5126,
			"count":2,
			"type":"VEC3"
		},
		{
			"bufferView":109,
			"componentType":5126,
			"count":2,
			"type":"VEC4"
		},
		{
			"bufferView":110,
			"componentType":5126,
			"count":2,
			"type":"VEC3"
		},
		{
			"bufferView":111,
			"componentType":5126,
			"count":2,
			"type":"VEC3"
		},
		{
			"bufferView":112,
			"componentType":5126,
			"count":2,
			"type":"VEC4"
		},
		{
			"bufferView":113,
			"componentType":5126,
			"count":2,
			"type":"VEC3"
		},
		{
			"bufferView":114,
			"componentType":5126,
			"count":20,
			"type":"VEC3"
		},
		{
			"bufferView":115,
			"componentType":5126,
			"count":20,
			"type":"VEC4"
		},
		{
			"bufferView":116,
			"componentType":5126,
			"count":2,
			"type":"VEC3"
		},
		{
			"bufferView":117,
			"componentType":5126,
			"count":20,
			"type":"VEC3"
		},
		{
			"bufferView":118,
			"componentType":5126,
			"count":20,
			"type":"VEC4"
		},
		{
			"bufferView":119,
			"componentType":5126,
			"count":2,
			"type":"VEC3"
		},
		{
			"bufferView":120,
			"componentType":5126,
			"count":2,
			"type":"VEC3"
		},
		{
			"bufferView":121,
			"componentType":5126,
			"count":20,
			"type":"VEC4"
		},
		{
			"bufferView":122,
			"componentType":5126,
			"count":2,
			"type":"VEC3"
		},
		{
			"bufferView":123,
			"componentType":5126,
			"count":2,
			"type":"VEC3"
		},
		{
			"bufferView":124,
			"componentType":5126,
			"count":20,
			"type":"VEC4"
		},
		{
			"bufferView":125,
			"componentType":5126,
			"count":2,
			"type":"VEC3"
		},
		{
			"bufferView":126,
			"componentType":5126,
			"count":2,
			"type":"VEC3"
		},
		{
			"bufferView":127,
			"componentType":5126,
			"count":20,
			"type":"VEC4"
		},
		{
			"bufferView":128,
			"componentType":5126,
			"count":2,
			"type":"VEC3"
		},
		{
			"bufferView":129,
			"componentType":5126,
			"count":2,
			"type":"VEC3"
		},
		{
			"bufferView":130,
			"componentType":5126,
			"count":2,
			"type":"VEC4"
		},
		{
			"bufferView":131,
			"componentType":5126,
			"count":2,
			"type":"VEC3"
		},
		{
			"bufferView":132,
			"componentType":5126,
			"count":20,
			"type":"VEC3"
		},
		{
			"bufferView":133,
			"componentType":5126,
			"count":2,
			"type":"VEC4"
		},
		{
			"bufferView":134,
			"componentType":5126,
			"count":2,
			"type":"VEC3"
		},
		{
			"bufferView":135,
			"componentType":5126,
			"count":20,
			"type":"VEC3"
		},
		{
			"bufferView":136,
			"componentType":5126,
			"count":2,
			"type":"VEC4"
		},
		{
			"bufferView":137,
			"componentType":5126,
			"count":2,
			"type":"VEC3"
		},
		{
			"bufferView":138,
			"componentType":5126,
			"count":20,
			"type":"VEC3"
		},
		{
			"bufferView":139,
			"componentType":5126,
			"count":20,
			"type":"VEC4"
		},
		{
			"bufferView":140,
			"componentType":5126,
			"count":2,
			"type":"VEC3"
		},
		{
			"bufferView":141,
			"componentType":5126,
			"count":20,
			"type":"VEC3"
		},
		{
			"bufferView":142,
			"componentType":5126,
			"count":2,
			"type":"VEC4"
		},
		{
			"bufferView":143,
			"componentType":5126,
			"count":2,
			"type":"VEC3"
		},
		{
			"bufferView":144,
			"componentType":5126,
			"count":2,
			"type":"VEC3"
		},
		{
			"bufferView":145,
			"componentType":5126,
			"count":2,
			"type":"VEC4"
		},
		{
			"bufferView":146,
			"componentType":5126,
			"count":2,
			"type":"VEC3"
		},
		{
			"bufferView":147,
			"componentType":5126,
			"count":2,
			"type":"VEC3"
		},
		{
			"bufferView":148,
			"componentType":5126,
			"count":2,
			"type":"VEC4"
		},
		{
			"bufferView":149,
			"componentType":5126,
			"count":2,
			"type":"VEC3"
		},
		{
			"bufferView":150,
			"componentType":5126,
			"count":20,
			"type":"VEC3"
		},
		{
			"bufferView":151,
			"componentType":5126,
			"count":20,
			"type":"VEC4"
		},
		{
			"bufferView":152,
			"componentType":5126,
			"count":2,
			"type":"VEC3"
		},
		{
			"bufferView":153,
			"componentType":5126,
			"count":20,
			"type":"VEC3"
		},
		{
			"bufferView":154,
			"componentType":5126,
			"count":2,
			"type":"VEC4"
		},
		{
			"bufferView":155,
			"componentType":5126,
			"count":2,
			"type":"VEC3"
		},
		{
			"bufferView":156,
			"componentType":5126,
			"count":2,
			"type":"VEC3"
		},
		{
			"bufferView":157,
			"componentType":5126,
			"count":2,
			"type":"VEC4"
		},
		{
			"bufferView":158,
			"componentType":5126,
			"count":2,
			"type":"VEC3"
		},
		{
			"bufferView":159,
			"componentType":5126,
			"count":2,
			"type":"VEC3"
		},
		{
			"bufferView":160,
			"componentType":5126,
			"count":2,
			"type":"VEC4"
		},
		{
			"bufferView":161,
			"componentType":5126,
			"count":2,
			"type":"VEC3"
		},
		{
			"bufferView":162,
			"componentType":5126,
			"count":20,
			"type":"VEC3"
		},
		{
			"bufferView":163,
			"componentType":5126,
			"count":20,
			"type":"VEC4"
		},
		{
			"bufferView":164,
			"componentType":5126,
			"count":2,
			"type":"VEC3"
		},
		{
			"bufferView":165,
			"componentType":5126,
			"count":2,
			"type":"VEC3"
		},
		{
			"bufferView":166,
			"componentType":5126,
			"count":2,
			"type":"VEC4"
		},
		{
			"bufferView":167,
			"componentType":5126,
			"count":2,
			"type":"VEC3"
		},
		{
			"bufferView":168,
			"componentType":5126,
			"count":20,
			"type":"VEC3"
		},
		{
			"bufferView":169,
			"componentType":5126,
			"count":2,
			"type":"VEC4"
		},
		{
			"bufferView":170,
			"componentType":5126,
			"count":2,
			"type":"VEC3"
		},
		{
			"bufferView":171,
			"componentType":5126,
			"count":2,
			"type":"VEC3"
		},
		{
			"bufferView":172,
			"componentType":5126,
			"count":2,
			"type":"VEC4"
		},
		{
			"bufferView":173,
			"componentType":5126,
			"count":2,
			"type":"VEC3"
		},
		{
			"bufferView":174,
			"componentType":5126,
			"count":2,
			"type":"VEC3"
		},
		{
			"bufferView":175,
			"componentType":5126,
			"count":20,
			"type":"VEC4"
		},
		{
			"bufferView":176,
			"componentType":5126,
			"count":2,
			"type":"VEC3"
		},
		{
			"bufferView":177,
			"componentType":5126,
			"count":2,
			"type":"VEC3"
		},
		{
			"bufferView":178,
			"componentType":5126,
			"count":2,
			"type":"VEC4"
		},
		{
			"bufferView":179,
			"componentType":5126,
			"count":2,
			"type":"VEC3"
		},
		{
			"bufferView":180,
			"componentType":5126,
			"count":20,
			"type":"VEC3"
		},
		{
			"bufferView":181,
			"componentType":5126,
			"count":2,
			"type":"VEC4"
		},
		{
			"bufferView":182,
			"componentType":5126,
			"count":2,
			"type":"VEC3"
		},
		{
			"bufferView":183,
			"componentType":5126,
			"count":2,
			"type":"VEC3"
		},
		{
			"bufferView":184,
			"componentType":5126,
			"count":2,
			"type":"VEC4"
		},
		{
			"bufferView":185,
			"componentType":5126,
			"count":2,
			"type":"VEC3"
		},
		{
			"bufferView":186,
			"componentType":5126,
			"count":2,
			"type":"VEC3"
		},
		{
			"bufferView":187,
			"componentType":5126,
			"count":20,
			"type":"VEC4"
		},
		{
			"bufferView":188,
			"componentType":5126,
			"count":2,
			"type":"VEC3"
		},
		{
			"bufferView":189,
			"componentType":5126,
			"count":2,
			"type":"VEC3"
		},
		{
			"bufferView":190,
			"componentType":5126,
			"count":20,
			"type":"VEC4"
		},
		{
			"bufferView":191,
			"componentType":5126,
			"count":2,
			"type":"VEC3"
		},
		{
			"bufferView":192,
			"componentType":5126,
			"count":2,
			"type":"VEC3"
		},
		{
			"bufferView":193,
			"componentType":5126,
			"count":20,
			"type":"VEC4"
		},
		{
			"bufferView":194,
			"componentType":5126,
			"count":2,
			"type":"VEC3"
		},
		{
			"bufferView":195,
			"componentType":5126,
			"count":2,
			"type":"VEC3"
		},
		{
			"bufferView":196,
			"componentType":5126,
			"count":20,
			"type":"VEC4"
		},
		{
			"bufferView":197,
			"componentType":5126,
			"count":2,
			"type":"VEC3"
		},
		{
			"bufferView":198,
			"componentType":5126,
			"count":2,
			"type":"VEC3"
		},
		{
			"bufferView":199,
			"componentType":5126,
			"count":2,
			"type":"VEC4"
		},
		{
			"bufferView":200,
			"componentType":5126,
			"count":2,
			"type":"VEC3"
		},
		{
			"bufferView":201,
			"componentType":5126,
			"count":2,
			"type":"VEC3"
		},
		{
			"bufferView":202,
			"componentType":5126,
			"count":20,
			"type":"VEC4"
		},
		{
			"bufferView":203,
			"componentType":5126,
			"count":2,
			"type":"VEC3"
		},
		{
			"bufferView":204,
			"componentType":5126,
			"count":2,
			"type":"VEC3"
		},
		{
			"bufferView":205,
			"componentType":5126,
			"count":20,
			"type":"VEC4"
		},
		{
			"bufferView":206,
			"componentType":5126,
			"count":2,
			"type":"VEC3"
		},
		{
			"bufferView":207,
			"componentType":5126,
			"count":2,
			"type":"VEC3"
		},
		{
			"bufferView":208,
			"componentType":5126,
			"count":20,
			"type":"VEC4"
		},
		{
			"bufferView":209,
			"componentType":5126,
			"count":2,
			"type":"VEC3"
		},
		{
			"bufferView":210,
			"componentType":5126,
			"count":2,
			"type":"VEC3"
		},
		{
			"bufferView":211,
			"componentType":5126,
			"count":20,
			"type":"VEC4"
		},
		{
			"bufferView":212,
			"componentType":5126,
			"count":2,
			"type":"VEC3"
		},
		{
			"bufferView":213,
			"componentType":5126,
			"count":2,
			"type":"VEC3"
		},
		{
			"bufferView":214,
			"componentType":5126,
			"count":2,
			"type":"VEC4"
		},
		{
			"bufferView":215,
			"componentType":5126,
			"count":2,
			"type":"VEC3"
		}
	],
	"bufferViews":[
		{
			"buffer":0,
			"byteLength":40632,
			"byteOffset":0,
			"target":34962
		},
		{
			"buffer":0,
			"byteLength":40632,
			"byteOffset":40632,
			"target":34962
		},
		{
			"buffer":0,
			"byteLength":27088,
			"byteOffset":81264,
			"target":34962
		},
		{
			"buffer":0,
			"byteLength":13544,
			"byteOffset":108352,
			"target":34962
		},
		{
			"buffer":0,
			"byteLength":54176,
			"byteOffset":121896,
			"target":34962
		},
		{
			"buffer":0,
			"byteLength":20088,
			"byteOffset":176072,
			"target":34963
		},
		{
			"buffer":0,
			"byteLength":4160,
			"byteOffset":196160
		},
		{
			"buffer":0,
			"byteLength":70440,
			"byteOffset":200320,
			"target":34962
		},
		{
			"buffer":0,
			"byteLength":70440,
			"byteOffset":270760,
			"target":34962
		},
		{
			"buffer":0,
			"byteLength":46960,
			"byteOffset":341200,
			"target":34962
		},
		{
			"buffer":0,
			"byteLength":23480,
			"byteOffset":388160,
			"target":34962
		},
		{
			"buffer":0,
			"byteLength":93920,
			"byteOffset":411640,
			"target":34962
		},
		{
			"buffer":0,
			"byteLength":56964,
			"byteOffset":505560,
			"target":34963
		},
		{
			"buffer":0,
			"byteLength":37572,
			"byteOffset":562524,
			"target":34962
		},
		{
			"buffer":0,
			"byteLength":37572,
			"byteOffset":600096,
			"target":34962
		},
		{
			"buffer":0,
			"byteLength":25048,
			"byteOffset":637668,
			"target":34962
		},
		{
			"buffer":0,
			"byteLength":12524,
			"byteOffset":662716,
			"target":34962
		},
		{
			"buffer":0,
			"byteLength":50096,
			"byteOffset":675240,
			"target":34962
		},
		{
			"buffer":0,
			"byteLength":29580,
			"byteOffset":725336,
			"target":34963
		},
		{
			"buffer":0,
			"byteLength":80,
			"byteOffset":754916
		},
		{
			"buffer":0,
			"byteLength":240,
			"byteOffset":754996
		},
		{
			"buffer":0,
			"byteLength":320,
			"byteOffset":755236
		},
		{
			"buffer":0,
			"byteLength":8,
			"byteOffset":755556
		},
		{
			"buffer":0,
			"byteLength":24,
			"byteOffset":755564
		},
		{
			"buffer":0,
			"byteLength":24,
			"byteOffset":755588
		},
		{
			"buffer":0,
			"byteLength":320,
			"byteOffset":755612
		},
		{
			"buffer":0,
			"byteLength":24,
			"byteOffset":755932
		},
		{
			"buffer":0,
			"byteLength":24,
			"byteOffset":755956
		},
		{
			"buffer":0,
			"byteLength":320,
			"byteOffset":755980
		},
		{
			"buffer":0,
			"byteLength":24,
			"byteOffset":756300
		},
		{
			"buffer":0,
			"byteLength":24,
			"byteOffset":756324
		},
		{
			"buffer":0,
			"byteLength":320,
			"byteOffset":756348
		},
		{
			"buffer":0,
			"byteLength":24,
			"byteOffset":756668
		},
		{
			"buffer":0,
			"byteLength":240,
			"byteOffset":756692
		},
		{
			"buffer":0,
			"byteLength":320,
			"byteOffset":756932
		},
		{
			"buffer":0,
			"byteLength":24,
			"byteOffset":757252
		},
		{
			"buffer":0,
			"byteLength":240,
			"byteOffset":757276
		},
		{
			"buffer":0,
			"byteLength":320,
			"byteOffset":757516
		},
		{
			"buffer":0,
			"byteLength":24,
			"byteOffset":757836
		},
		{
			"buffer":0,
			"byteLength":240,
			"byteOffset":757860
		},
		{
			"buffer":0,
			"byteLength":32,
			"byteOffset":758100
		},
		{
			"buffer":0,
			"byteLength":24,
			"byteOffset":758132
		},
		{
			"buffer":0,
			"byteLength":240,
			"byteOffset":758156
		},
		{
			"buffer":0,
			"byteLength":320,
			"byteOffset":758396
		},
		{
			"buffer":0,
			"byteLength":24,
			"byteOffset":758716
		},
		{
			"buffer":0,
			"byteLength":24,
			"byteOffset":758740
		},
		{
			"buffer":0,
			"byteLength":320,
			"byteOffset":758764
		},
		{
			"buffer":0,
			"byteLength":24,
			"byteOffset":759084
		},
		{
			"buffer":0,
			"byteLength":24,
			"byteOffset":759108
		},
		{
			"buffer":0,
			"byteLength":320,
			"byteOffset":759132
		},
		{
			"buffer":0,
			"byteLength":24,
			"byteOffset":759452
		},
		{
			"buffer":0,
			"byteLength":24,
			"byteOffset":759476
		},
		{
			"buffer":0,
			"byteLength":320,
			"byteOffset":759500
		},
		{
			"buffer":0,
			"byteLength":24,
			"byteOffset":759820
		},
		{
			"buffer":0,
			"byteLength":24,
			"byteOffset":759844
		},
		{
			"buffer":0,
			"byteLength":320,
			"byteOffset":759868
		},
		{
			"buffer":0,
			"byteLength":24,
			"byteOffset":760188
		},
		{
			"buffer":0,
			"byteLength":240,
			"byteOffset":760212
		},
		{
			"buffer":0,
			"byteLength":32,
			"byteOffset":760452
		},
		{
			"buffer":0,
			"byteLength":24,
			"byteOffset":760484
		},
		{
			"buffer":0,
			"byteLength":240,
			"byteOffset":760508
		},
		{
			"buffer":0,
			"byteLength":32,
			"byteOffset":760748
		},
		{
			"buffer":0,
			"byteLength":24,
			"byteOffset":760780
		},
		{
			"buffer":0,
			"byteLength":240,
			"byteOffset":760804
		},
		{
			"buffer":0,
			"byteLength":32,
			"byteOffset":761044
		},
		{
			"buffer":0,
			"byteLength":24,
			"byteOffset":761076
		},
		{
			"buffer":0,
			"byteLength":24,
			"byteOffset":761100
		},
		{
			"buffer":0,
			"byteLength":320,
			"byteOffset":761124
		},
		{
			"buffer":0,
			"byteLength":24,
			"byteOffset":761444
		},
		{
			"buffer":0,
			"byteLength":24,
			"byteOffset":761468
		},
		{
			"buffer":0,
			"byteLength":32,
			"byteOffset":761492
		},
		{
			"buffer":0,
			"byteLength":24,
			"byteOffset":761524
		},
		{
			"buffer":0,
			"byteLength":240,
			"byteOffset":761548
		},
		{
			"buffer":0,
			"byteLength":32,
			"byteOffset":761788
		},
		{
			"buffer":0,
			"byteLength":24,
			"byteOffset":761820
		},
		{
			"buffer":0,
			"byteLength":24,
			"byteOffset":761844
		},
		{
			"buffer":0,
			"byteLength":32,
			"byteOffset":761868
		},
		{
			"buffer":0,
			"byteLength":24,
			"byteOffset":761900
		},
		{
			"buffer":0,
			"byteLength":24,
			"byteOffset":761924
		},
		{
			"buffer":0,
			"byteLength":320,
			"byteOffset":761948
		},
		{
			"buffer":0,
			"byteLength":24,
			"byteOffset":762268
		},
		{
			"buffer":0,
			"byteLength":240,
			"byteOffset":762292
		},
		{
			"buffer":0,
			"byteLength":32,
			"byteOffset":762532
		},
		{
			"buffer":0,
			"byteLength":24,
			"byteOffset":762564
		},
		{
			"buffer":0,
			"byteLength":24,
			"byteOffset":762588
		},
		{
			"buffer":0,
			"byteLength":32,
			"byteOffset":762612
		},
		{
			"buffer":0,
			"byteLength":24,
			"byteOffset":762644
		},
		{
			"buffer":0,
			"byteLength":24,
			"byteOffset":762668
		},
		{
			"buffer":0,
			"byteLength":32,
			"byteOffset":762692
		},
		{
			"buffer":0,
			"byteLength":24,
			"byteOffset":762724
		},
		{
			"buffer":0,
			"byteLength":24,
			"byteOffset":762748
		},
		{
			"buffer":0,
			"byteLength":320,
			"byteOffset":762772
		},
		{
			"buffer":0,
			"byteLength":24,
			"byteOffset":763092
		},
		{
			"buffer":0,
			"byteLength":240,
			"byteOffset":763116
		},
		{
			"buffer":0,
			"byteLength":32,
			"byteOffset":763356
		},
		{
			"buffer":0,
			"byteLength":24,
			"byteOffset":763388
		},
		{
			"buffer":0,
			"byteLength":24,
			"byteOffset":763412
		},
		{
			"buffer":0,
			"byteLength":32,
			"byteOffset":763436
		},
		{
			"buffer":0,
			"byteLength":24,
			"byteOffset":763468
		},
		{
			"buffer":0,
			"byteLength":24,
			"byteOffset":763492
		},
		{
			"buffer":0,
			"byteLength":32,
			"byteOffset":763516
		},
		{
			"buffer":0,
			"byteLength":24,
			"byteOffset":763548
		},
		{
			"buffer":0,
			"byteLength":24,
			"byteOffset":763572
		},
		{
			"buffer":0,
			"byteLength":320,
			"byteOffset":763596
		},
		{
			"buffer":0,
			"byteLength":24,
			"byteOffset":763916
		},
		{
			"buffer":0,
			"byteLength":24,
			"byteOffset":763940
		},
		{
			"buffer":0,
			"byteLength":32,
			"byteOffset":763964
		},
		{
			"buffer":0,
			"byteLength":24,
			"byteOffset":763996
		},
		{
			"buffer":0,
			"byteLength":24,
			"byteOffset":764020
		},
		{
			"buffer":0,
			"byteLength":32,
			"byteOffset":764044
		},
		{
			"buffer":0,
			"byteLength":24,
			"byteOffset":764076
		},
		{
			"buffer":0,
			"byteLength":24,
			"byteOffset":764100
		},
		{
			"buffer":0,
			"byteLength":32,
			"byteOffset":764124
		},
		{
			"buffer":0,
			"byteLength":24,
			"byteOffset":764156
		},
		{
			"buffer":0,
			"byteLength":240,
			"byteOffset":764180
		},
		{
			"buffer":0,
			"byteLength":320,
			"byteOffset":764420
		},
		{
			"buffer":0,
			"byteLength":24,
			"byteOffset":764740
		},
		{
			"buffer":0,
			"byteLength":240,
			"byteOffset":764764
		},
		{
			"buffer":0,
			"byteLength":320,
			"byteOffset":765004
		},
		{
			"buffer":0,
			"byteLength":24,
			"byteOffset":765324
		},
		{
			"buffer":0,
			"byteLength":24,
			"byteOffset":765348
		},
		{
			"buffer":0,
			"byteLength":320,
			"byteOffset":765372
		},
		{
			"buffer":0,
			"byteLength":24,
			"byteOffset":765692
		},
		{
			"buffer":0,
			"byteLength":24,
			"byteOffset":765716
		},
		{
			"buffer":0,
			"byteLength":320,
			"byteOffset":765740
		},
		{
			"buffer":0,
			"byteLength":24,
			"byteOffset":766060
		},
		{
			"buffer":0,
			"byteLength":24,
			"byteOffset":766084
		},
		{
			"buffer":0,
			"byteLength":320,
			"byteOffset":766108
		},
		{
			"buffer":0,
			"byteLength":24,
			"byteOffset":766428
		},
		{
			"buffer":0,
			"byteLength":24,
			"byteOffset":766452
		},
		{
			"buffer":0,
			"byteLength":32,
			"byteOffset":766476
		},
		{
			"buffer":0,
			"byteLength":24,
			"byteOffset":766508
		},
		{
			"buffer":0,
			"byteLength":240,
			"byteOffset":766532
		},
		{
			"buffer":0,
			"byteLength":32,
			"byteOffset":766772
		},
		{
			"buffer":0,
			"byteLength":24,
			"byteOffset":766804
		},
		{
			"buffer":0,
			"byteLength":240,
			"byteOffset":766828
		},
		{
			"buffer":0,
			"byteLength":32,
			"byteOffset":767068
		},
		{
			"buffer":0,
			"byteLength":24,
			"byteOffset":767100
		},
		{
			"buffer":0,
			"byteLength":240,
			"byteOffset":767124
		},
		{
			"buffer":0,
			"byteLength":320,
			"byteOffset":767364
		},
		{
			"buffer":0,
			"byteLength":24,
			"byteOffset":767684
		},
		{
			"buffer":0,
			"byteLength":240,
			"byteOffset":767708
		},
		{
			"buffer":0,
			"byteLength":32,
			"byteOffset":767948
		},
		{
			"buffer":0,
			"byteLength":24,
			"byteOffset":767980
		},
		{
			"buffer":0,
			"byteLength":24,
			"byteOffset":768004
		},
		{
			"buffer":0,
			"byteLength":32,
			"byteOffset":768028
		},
		{
			"buffer":0,
			"byteLength":24,
			"byteOffset":768060
		},
		{
			"buffer":0,
			"byteLength":24,
			"byteOffset":768084
		},
		{
			"buffer":0,
			"byteLength":32,
			"byteOffset":768108
		},
		{
			"buffer":0,
			"byteLength":24,
			"byteOffset":768140
		},
		{
			"buffer":0,
			"byteLength":240,
			"byteOffset":768164
		},
		{
			"buffer":0,
			"byteLength":320,
			"byteOffset":768404
		},
		{
			"buffer":0,
			"byteLength":24,
			"byteOffset":768724
		},
		{
			"buffer":0,
			"byteLength":240,
			"byteOffset":768748
		},
		{
			"buffer":0,
			"byteLength":32,
			"byteOffset":768988
		},
		{
			"buffer":0,
			"byteLength":24,
			"byteOffset":769020
		},
		{
			"buffer":0,
			"byteLength":24,
			"byteOffset":769044
		},
		{
			"buffer":0,
			"byteLength":32,
			"byteOffset":769068
		},
		{
			"buffer":0,
			"byteLength":24,
			"byteOffset":769100
		},
		{
			"buffer":0,
			"byteLength":24,
			"byteOffset":769124
		},
		{
			"buffer":0,
			"byteLength":32,
			"byteOffset":769148
		},
		{
			"buffer":0,
			"byteLength":24,
			"byteOffset":769180
		},
		{
			"buffer":0,
			"byteLength":240,
			"byteOffset":769204
		},
		{
			"buffer":0,
			"byteLength":320,
			"byteOffset":769444
		},
		{
			"buffer":0,
			"byteLength":24,
			"byteOffset":769764
		},
		{
			"buffer":0,
			"byteLength":24,
			"byteOffset":769788
		},
		{
			"buffer":0,
			"byteLength":32,
			"byteOffset":769812
		},
		{
			"buffer":0,
			"byteLength":24,
			"byteOffset":769844
		},
		{
			"buffer":0,
			"byteLength":240,
			"byteOffset":769868
		},
		{
			"buffer":0,
			"byteLength":32,
			"byteOffset":770108
		},
		{
			"buffer":0,
			"byteLength":24,
			"byteOffset":770140
		},
		{
			"buffer":0,
			"byteLength":24,
			"byteOffset":770164
		},
		{
			"buffer":0,
			"byteLength":32,
			"byteOffset":770188
		},
		{
			"buffer":0,
			"byteLength":24,
			"byteOffset":770220
		},
		{
			"buffer":0,
			"byteLength":24,
			"byteOffset":770244
		},
		{
			"buffer":0,
			"byteLength":320,
			"byteOffset":770268
		},
		{
			"buffer":0,
			"byteLength":24,
			"byteOffset":770588
		},
		{
			"buffer":0,
			"byteLength":24,
			"byteOffset":770612
		},
		{
			"buffer":0,
			"byteLength":32,
			"byteOffset":770636
		},
		{
			"buffer":0,
			"byteLength":24,
			"byteOffset":770668
		},
		{
			"buffer":0,
			"byteLength":240,
			"byteOffset":770692
		},
		{
			"buffer":0,
			"byteLength":32,
			"byteOffset":770932
		},
		{
			"buffer":0,
			"byteLength":24,
			"byteOffset":770964
		},
		{
			"buffer":0,
			"byteLength":24,
			"byteOffset":770988
		},
		{
			"buffer":0,
			"byteLength":32,
			"byteOffset":771012
		},
		{
			"buffer":0,
			"byteLength":24,
			"byteOffset":771044
		},
		{
			"buffer":0,
			"byteLength":24,
			"byteOffset":771068
		},
		{
			"buffer":0,
			"byteLength":320,
			"byteOffset":771092
		},
		{
			"buffer":0,
			"byteLength":24,
			"byteOffset":771412
		},
		{
			"buffer":0,
			"byteLength":24,
			"byteOffset":771436
		},
		{
			"buffer":0,
			"byteLength":320,
			"byteOffset":771460
		},
		{
			"buffer":0,
			"byteLength":24,
			"byteOffset":771780
		},
		{
			"buffer":0,
			"byteLength":24,
			"byteOffset":771804
		},
		{
			"buffer":0,
			"byteLength":320,
			"byteOffset":771828
		},
		{
			"buffer":0,
			"byteLength":24,
			"byteOffset":772148
		},
		{
			"buffer":0,
			"byteLength":24,
			"byteOffset":772172
		},
		{
			"buffer":0,
			"byteLength":320,
			"byteOffset":772196
		},
		{
			"buffer":0,
			"byteLength":24,
			"byteOffset":772516
		},
		{
			"buffer":0,
			"byteLength":24,
			"byteOffset":772540
		},
		{
			"buffer":0,
			"byteLength":32,
			"byteOffset":772564
		},
		{
			"buffer":0,
			"byteLength":24,
			"byteOffset":772596
		},
		{
			"buffer":0,
			"byteLength":24,
			"byteOffset":772620
		},
		{
			"buffer":0,
			"byteLength":320,
			"byteOffset":772644
		},
		{
			"buffer":0,
			"byteLength":24,
			"byteOffset":772964
		},
		{
			"buffer":0,
			"byteLength":24,
			"byteOffset":772988
		},
		{
			"buffer":0,
			"byteLength":320,
			"byteOffset":773012
		},
		{
			"buffer":0,
			"byteLength":24,
			"byteOffset":773332
		},
		{
			"buffer":0,
			"byteLength":24,
			"byteOffset":773356
		},
		{
			"buffer":0,
			"byteLength":320,
			"byteOffset":773380
		},
		{
			"buffer":0,
			"byteLength":24,
			"byteOffset":773700
		},
		{
			"buffer":0,
			"byteLength":24,
			"byteOffset":773724
		},
		{
			"buffer":0,
			"byteLength":320,
			"byteOffset":773748
		},
		{
			"buffer":0,
			"byteLength":24,
			"byteOffset":774068
		},
		{
			"buffer":0,
			"byteLength":24,
			"byteOffset":774092
		},
		{
			"buffer":0,
			"byteLength":32,
			"byteOffset":774116
		},
		{
			"buffer":0,
			"byteLength":24,
			"byteOffset":774148
		}
	],
	"samplers":[
		{
			"magFilter":9729,
			"minFilter":9987
		}
	],
	"buffers":[
		{
			"byteLength":774172,
			"uri":"walkingtitan.bin"
		}
	]
}
