{
	"asset":{
		"generator":"Khronos glTF Blender I/O v4.2.83",
		"version":"2.0"
	},
	"scene":0,
	"scenes":[
		{
			"name":"Scene",
			"nodes":[
				161
			]
		}
	],
	"nodes":[
		{
			"name":"Object_10",
			"rotation":[
				-0.70710688829422,
				0,
				0,
				0.7071066498756409
			]
		},
		{
			"name":"Bip001 L Toe0_09",
			"rotation":[
				-4.228389727245485e-08,
				-2.5962162197856742e-08,
				0.7071066498756409,
				0.70710688829422
			],
			"scale":[
				1.0000001192092896,
				1.0000001192092896,
				1
			],
			"translation":[
				0.10510888695716858,
				0.13825838267803192,
				0.0023956592194736004
			]
		},
		{
			"children":[
				1
			],
			"name":"Bip001 L Foot_08",
			"rotation":[
				3.230315269320272e-05,
				0.003850979497656226,
				0.009264513850212097,
				0.9999496936798096
			],
			"scale":[
				1.0000001192092896,
				1,
				1
			],
			"translation":[
				0.4459152817726135,
				-5.8586806517268997e-08,
				1.1215161066502333e-07
			]
		},
		{
			"children":[
				2
			],
			"name":"Bip001 L Calf_07",
			"rotation":[
				1.1246586772983846e-08,
				1.912946423487938e-08,
				-0.000668540655169636,
				0.9999997615814209
			],
			"scale":[
				1,
				0.9999999403953552,
				1.0000001192092896
			],
			"translation":[
				0.37523147463798523,
				3.177171947754687e-08,
				-5.426346660897252e-08
			]
		},
		{
			"name":"Point007_011",
			"rotation":[
				0.09276509284973145,
				0.7009955048561096,
				-0.09276509284973145,
				0.7009953856468201
			],
			"scale":[
				1.0000001192092896,
				1.000000238418579,
				1.0000001192092896
			],
			"translation":[
				-0.18324440717697144,
				-0.7949638962745667,
				0.1873849481344223
			]
		},
		{
			"children":[
				4
			],
			"name":"Point006_010",
			"rotation":[
				0.00307844509370625,
				0.0023139240220189095,
				0.798953652381897,
				0.6013803482055664
			],
			"translation":[
				0.12526926398277283,
				-0.027678832411766052,
				-0.10285545885562897
			]
		},
		{
			"children":[
				3,
				5
			],
			"name":"Bip001 L Thigh_06",
			"rotation":[
				0.013948866166174412,
				0.9998953342437744,
				-5.059238173998892e-05,
				0.003850747598335147
			],
			"scale":[
				0.9999999403953552,
				1,
				1
			],
			"translation":[
				-0.08378272503614426,
				-0.008627286180853844,
				0.08549762517213821
			]
		},
		{
			"name":"Bip001 R Toe0_015",
			"rotation":[
				3.0888658297811844e-09,
				-1.0671749706148148e-08,
				0.7071066498756409,
				0.70710688829422
			],
			"scale":[
				1,
				1,
				0.9999998807907104
			],
			"translation":[
				0.10510890930891037,
				0.13825832307338715,
				-0.0023956368677318096
			]
		},
		{
			"children":[
				7
			],
			"name":"Bip001 R Foot_014",
			"rotation":[
				-3.230953370803036e-05,
				-0.0038508714642375708,
				0.009264517575502396,
				0.9999496936798096
			],
			"scale":[
				1,
				1,
				0.9999998807907104
			],
			"translation":[
				0.44591525197029114,
				-9.021050573210232e-10,
				-4.885691851086449e-08
			]
		},
		{
			"children":[
				8
			],
			"name":"Bip001 R Calf_013",
			"rotation":[
				8.76281269768242e-09,
				-1.76073029933832e-07,
				-0.0006685419357381761,
				0.9999997615814209
			],
			"scale":[
				1.0000001192092896,
				0.9999999403953552,
				1.0000001192092896
			],
			"translation":[
				0.37523147463798523,
				9.07166821662031e-08,
				8.50430978971417e-08
			]
		},
		{
			"name":"Point005_017",
			"rotation":[
				0.09276531636714935,
				0.7009955048561096,
				-0.09276510775089264,
				0.7009953856468201
			],
			"scale":[
				1,
				0.9999999403953552,
				1
			],
			"translation":[
				-0.18324467539787292,
				-0.7949638962745667,
				-0.18497228622436523
			]
		},
		{
			"children":[
				10
			],
			"name":"Point002_016",
			"rotation":[
				-0.0030776853673160076,
				-0.0023153487127274275,
				0.7989538311958313,
				0.6013800501823425
			],
			"scale":[
				1.0000001192092896,
				1,
				1
			],
			"translation":[
				0.1252879947423935,
				-0.027679337188601494,
				0.10044243186712265
			]
		},
		{
			"children":[
				9,
				11
			],
			"name":"Bip001 R Thigh_012",
			"rotation":[
				-0.013948814012110233,
				-0.9998952746391296,
				-5.335482637747191e-05,
				0.0038508677389472723
			],
			"scale":[
				0.9999998807907104,
				1.0000003576278687,
				1
			],
			"translation":[
				-0.08378273993730545,
				-0.008626756258308887,
				-0.08549762517213821
			]
		},
		{
			"name":"BqPoint019_023",
			"rotation":[
				-0.2652118504047394,
				0.6554867625236511,
				0.2652119994163513,
				0.6554864048957825
			],
			"scale":[
				1,
				1,
				0.9999999403953552
			],
			"translation":[
				0.07557962089776993,
				0.03139660134911537,
				-0.00877397507429123
			]
		},
		{
			"name":"BqPoint022_024",
			"rotation":[
				-0.2652118504047394,
				0.6554867625236511,
				0.2652119994163513,
				0.6554863452911377
			],
			"scale":[
				1,
				1,
				0.9999998807907104
			],
			"translation":[
				0.07557953149080276,
				0.031396739184856415,
				0.007626401726156473
			]
		},
		{
			"children":[
				13,
				14
			],
			"name":"BqBone008_022",
			"rotation":[
				-0.44442975521087646,
				-0.8958137035369873,
				-4.714183035048336e-07,
				1.7442134492284822e-07
			],
			"scale":[
				1,
				0.9999995827674866,
				1
			],
			"translation":[
				0.03662284463644028,
				0.0336933471262455,
				1.2136000293594407e-07
			]
		},
		{
			"name":"BqPoint010_025",
			"rotation":[
				-0.5288978219032288,
				-0.4693254232406616,
				-0.5288985371589661,
				0.46932628750801086
			],
			"translation":[
				0.1039898693561554,
				0.10890574008226395,
				0.03128664568066597
			]
		},
		{
			"name":"Point011_027",
			"rotation":[
				7.51844655191283e-15,
				3.3330236348660947e-09,
				4.816420329234461e-08,
				1
			],
			"scale":[
				0.9999999403953552,
				0.9999999403953552,
				0.9999999403953552
			],
			"translation":[
				-0.012788727879524231,
				-0.003996191080659628,
				0.04403606429696083
			]
		},
		{
			"name":"Point012_028",
			"rotation":[
				6.36964710577087e-15,
				3.0203111123228155e-09,
				2.4082101646172305e-08,
				1
			],
			"scale":[
				0.9999999403953552,
				0.9999999403953552,
				0.9999999403953552
			],
			"translation":[
				0.016652574762701988,
				0.0068795159459114075,
				0.03421911969780922
			]
		},
		{
			"children":[
				17,
				18
			],
			"name":"BqPoint011_026",
			"rotation":[
				-0.528897762298584,
				-0.4693254232406616,
				-0.5288985967636108,
				0.4693261682987213
			],
			"scale":[
				0.9999999403953552,
				0.9999998211860657,
				1
			],
			"translation":[
				0.07747615873813629,
				0.1124095469713211,
				0.040000155568122864
			]
		},
		{
			"name":"BqPoint012_029",
			"rotation":[
				-0.5288985371589661,
				-0.46932628750801086,
				-0.5288978219032288,
				0.469325453042984
			],
			"translation":[
				0.09757079929113388,
				0.09834611415863037,
				0.039529066532850266
			]
		},
		{
			"name":"BqPoint013_00",
			"rotation":[
				-0.5288978219032288,
				-0.4693254232406616,
				-0.5288985371589661,
				0.46932628750801086
			],
			"translation":[
				0.08989217877388,
				0.0989762395620346,
				0.03619762882590294
			]
		},
		{
			"name":"BqPoint014_01",
			"rotation":[
				-0.46932536363601685,
				0.5288980007171631,
				0.46932610869407654,
				0.5288985371589661
			],
			"scale":[
				1.0000001192092896,
				1.0000001192092896,
				1
			],
			"translation":[
				0.1039900928735733,
				0.10890579223632812,
				-0.0312863290309906
			]
		},
		{
			"name":"Point016_031",
			"rotation":[
				1.9038230547607782e-08,
				-9.006889904519528e-16,
				-1,
				1.0346276634233152e-15
			],
			"scale":[
				1,
				1.0000001192092896,
				1.0000001192092896
			],
			"translation":[
				0.01343266386538744,
				-0.003995895851403475,
				-0.04403596371412277
			]
		},
		{
			"name":"Point017_032",
			"rotation":[
				1.9038166598761563e-08,
				-9.006932256166891e-16,
				-1,
				1.0346327456209987e-15
			],
			"scale":[
				1,
				1.0000001192092896,
				1.0000001192092896
			],
			"translation":[
				-0.015113075263798237,
				0.006879682652652264,
				-0.034218885004520416
			]
		},
		{
			"children":[
				23,
				24
			],
			"name":"BqPoint015_030",
			"rotation":[
				-0.46932539343833923,
				0.5288979411125183,
				0.4693261384963989,
				0.5288985371589661
			],
			"scale":[
				0.9999999403953552,
				0.9999999403953552,
				0.9999999403953552
			],
			"translation":[
				0.07747577875852585,
				0.11240970343351364,
				-0.03999985009431839
			]
		},
		{
			"name":"BqPoint016_033",
			"rotation":[
				-0.46932604908943176,
				0.5288980007171631,
				0.46932539343833923,
				0.5288986563682556
			],
			"translation":[
				0.09757078438997269,
				0.09834621846675873,
				-0.03952869772911072
			]
		},
		{
			"name":"BqPoint017_034",
			"rotation":[
				-0.4693254232406616,
				0.5288980603218079,
				0.46932604908943176,
				0.5288984775543213
			],
			"scale":[
				1.0000001192092896,
				1.0000001192092896,
				1
			],
			"translation":[
				0.08989240229129791,
				0.09897632896900177,
				-0.03619741275906563
			]
		},
		{
			"name":"BqPoint018_035",
			"rotation":[
				-0.5288978219032288,
				-0.469325453042984,
				-0.5288985371589661,
				0.4693262279033661
			],
			"translation":[
				0.017390010878443718,
				0.1043778657913208,
				-0.01999986171722412
			]
		},
		{
			"name":"BqPoint020_036",
			"rotation":[
				-0.5288978815078735,
				-0.469325453042984,
				-0.5288985371589661,
				0.4693262279033661
			],
			"scale":[
				0.9999999403953552,
				0.9999998211860657,
				1
			],
			"translation":[
				0.024689214304089546,
				0.11661782115697861,
				0.009000169113278389
			]
		},
		{
			"name":"BqPoint021_037",
			"rotation":[
				-0.5288978219032288,
				-0.469325453042984,
				-0.5288985371589661,
				0.4693262279033661
			],
			"translation":[
				0.017389899119734764,
				0.10437783598899841,
				0.020000148564577103
			]
		},
		{
			"name":"BqPoint023_038",
			"rotation":[
				-0.5288978815078735,
				-0.469325453042984,
				-0.5288985371589661,
				0.4693262279033661
			],
			"scale":[
				0.9999999403953552,
				0.9999998211860657,
				1
			],
			"translation":[
				0.024689093232154846,
				0.11661786586046219,
				-0.00899982638657093
			]
		},
		{
			"name":"Point010_039",
			"rotation":[
				-0.5288985371589661,
				-0.4693262577056885,
				-0.528897762298584,
				0.4693254232406616
			],
			"scale":[
				0.9999999403953552,
				1,
				1
			],
			"translation":[
				0.10756991803646088,
				0.17017823457717896,
				0.005557148717343807
			]
		},
		{
			"name":"Point013_040",
			"rotation":[
				-0.5288984775543213,
				-0.469326376914978,
				-0.5288978219032288,
				0.4693255126476288
			],
			"scale":[
				1.0000001192092896,
				1,
				1
			],
			"translation":[
				0.09661209583282471,
				0.16733285784721375,
				0.0021123643964529037
			]
		},
		{
			"name":"Point014_041",
			"rotation":[
				-0.5288985371589661,
				-0.4693262577056885,
				-0.528897762298584,
				0.4693254232406616
			],
			"scale":[
				0.9999999403953552,
				1,
				1
			],
			"translation":[
				0.10756991803646088,
				0.17017830908298492,
				-0.005973600782454014
			]
		},
		{
			"name":"Point015_042",
			"rotation":[
				-0.5288985371589661,
				-0.4693262577056885,
				-0.528897762298584,
				0.4693254232406616
			],
			"scale":[
				0.9999999403953552,
				1,
				1
			],
			"translation":[
				0.09449160099029541,
				0.16758689284324646,
				-0.004690037574619055
			]
		},
		{
			"name":"head_bar_043",
			"rotation":[
				-0.5288979411125183,
				-0.4693254232406616,
				-0.5288984775543213,
				0.4693261981010437
			],
			"scale":[
				0.9999999403953552,
				0.9999998211860657,
				1
			],
			"translation":[
				-1.4691286087036133,
				0.20803147554397583,
				4.352627058779035e-07
			]
		},
		{
			"children":[
				15,
				16,
				19,
				20,
				21,
				22,
				25,
				26,
				27,
				28,
				29,
				30,
				31,
				32,
				33,
				34,
				35,
				36
			],
			"name":"Bip001 Head_021",
			"rotation":[
				-1.0746993295285279e-09,
				2.240968655087272e-07,
				-0.04873562604188919,
				0.9988117218017578
			],
			"translation":[
				0.05659029260277748,
				-0.009372886270284653,
				-2.2581751579764386e-08
			]
		},
		{
			"name":"Bip001 L Finger02_050",
			"rotation":[
				-1.6803640789930796e-07,
				-1.3069498372431099e-08,
				-0.06881481409072876,
				0.9976294636726379
			],
			"scale":[
				1,
				1,
				1.0000001192092896
			],
			"translation":[
				0.023760369047522545,
				-1.1362135410308838e-07,
				1.9255094230175018e-07
			]
		},
		{
			"children":[
				38
			],
			"name":"Bip001 L Finger01_049",
			"rotation":[
				6.537995886901626e-07,
				-5.215495093580103e-07,
				0.00584356440231204,
				0.9999829530715942
			],
			"scale":[
				0.9999999403953552,
				0.9999999403953552,
				1
			],
			"translation":[
				0.029678674414753914,
				-5.122274160385132e-08,
				-1.869630068540573e-07
			]
		},
		{
			"children":[
				39
			],
			"name":"Bip001 L Finger0_048",
			"rotation":[
				0.4710851311683655,
				0.4456385374069214,
				0.14860346913337708,
				0.746593713760376
			],
			"scale":[
				0.9999998807907104,
				1,
				1
			],
			"translation":[
				0.029327692463994026,
				0.020795173943042755,
				-0.038572393357753754
			]
		},
		{
			"name":"Bip001 L Finger12_053",
			"rotation":[
				-7.74856623309006e-09,
				-7.413571978531763e-08,
				-0.042337823659181595,
				0.9991033673286438
			],
			"scale":[
				0.9999999403953552,
				1.0000001192092896,
				1
			],
			"translation":[
				0.020675206556916237,
				-1.1693919077515602e-07,
				-1.0244548320770264e-07
			]
		},
		{
			"children":[
				41
			],
			"name":"Bip001 L Finger11_052",
			"rotation":[
				-6.240230021603566e-08,
				-1.0585688414721517e-07,
				-0.010876577347517014,
				0.9999408721923828
			],
			"scale":[
				1.0000001192092896,
				1,
				1
			],
			"translation":[
				0.03244953230023384,
				-1.0477378964424133e-08,
				4.6566128730773926e-08
			]
		},
		{
			"children":[
				42
			],
			"name":"Bip001 L Finger1_051",
			"rotation":[
				-0.01835101842880249,
				0.06851755082607269,
				0.07912476360797882,
				0.9943379163742065
			],
			"scale":[
				1,
				1.0000001192092896,
				1
			],
			"translation":[
				0.08715308457612991,
				-0.0036986684426665306,
				-0.028111528605222702
			]
		},
		{
			"name":"Bip001 L Finger22_056",
			"rotation":[
				1.2872322763257671e-08,
				-4.969162148427131e-08,
				-0.09294816106557846,
				0.9956709742546082
			],
			"scale":[
				1,
				1,
				1.0000001192092896
			],
			"translation":[
				0.025264810770750046,
				1.3504177331924438e-07,
				9.569339454174042e-08
			]
		},
		{
			"children":[
				44
			],
			"name":"Bip001 L Finger21_055",
			"rotation":[
				-5.617880560748745e-08,
				-3.7166344668548845e-08,
				0.006360392551869154,
				0.9999797940254211
			],
			"scale":[
				1.0000001192092896,
				1,
				1
			],
			"translation":[
				0.03693728521466255,
				-1.19674950838089e-07,
				-4.307366907596588e-08
			]
		},
		{
			"children":[
				45
			],
			"name":"Bip001 L Finger2_054",
			"rotation":[
				0.0013837283477187157,
				0.021793927997350693,
				0.08151136338710785,
				0.9964331388473511
			],
			"scale":[
				1,
				0.9999999403953552,
				1
			],
			"translation":[
				0.08923691511154175,
				-0.003908701706677675,
				-0.007087623700499535
			]
		},
		{
			"name":"Bip001 L Finger32_059",
			"rotation":[
				-9.79780807597308e-08,
				-3.1413958101467188e-09,
				0.0007240663981065154,
				0.9999997615814209
			],
			"scale":[
				0.9999998807907104,
				0.9999998211860657,
				0.9999998807907104
			],
			"translation":[
				0.020878106355667114,
				-7.9302117228508e-07,
				1.30385160446167e-07
			]
		},
		{
			"children":[
				47
			],
			"name":"Bip001 L Finger31_058",
			"rotation":[
				-2.257351194856483e-09,
				7.803516410831435e-08,
				-0.03997078537940979,
				0.9992008805274963
			],
			"scale":[
				0.9999999403953552,
				0.9999999403953552,
				0.9999999403953552
			],
			"translation":[
				0.033567722886800766,
				3.745080903172493e-07,
				-6.332993507385254e-08
			]
		},
		{
			"children":[
				48
			],
			"name":"Bip001 L Finger3_057",
			"rotation":[
				-0.028475835919380188,
				-0.03666697070002556,
				0.10312392562627792,
				0.9935845136642456
			],
			"scale":[
				1.0000001192092896,
				1,
				0.9999999403953552
			],
			"translation":[
				0.08743912726640701,
				-0.0017027067951858044,
				0.013556897640228271
			]
		},
		{
			"name":"Bip001 L Finger42_062",
			"rotation":[
				-1.6031464156185393e-07,
				1.8580134764079048e-08,
				-0.02228272333741188,
				0.9997516870498657
			],
			"scale":[
				1.0000001192092896,
				0.9999997615814209,
				0.9999999403953552
			],
			"translation":[
				0.016488205641508102,
				-1.2386590242385864e-07,
				-2.5029294192790985e-08
			]
		},
		{
			"children":[
				50
			],
			"name":"Bip001 L Finger41_061",
			"rotation":[
				5.3737231553441234e-08,
				1.992567604247597e-07,
				0.02074364200234413,
				0.9997848272323608
			],
			"translation":[
				0.032854530960321426,
				4.7672074288129807e-08,
				2.584420144557953e-08
			]
		},
		{
			"children":[
				51
			],
			"name":"Bip001 L Finger4_060",
			"rotation":[
				-0.044024694710969925,
				-0.07943029701709747,
				0.08988223224878311,
				0.9918032884597778
			],
			"translation":[
				0.07753639668226242,
				0.005453669000416994,
				0.03111911006271839
			]
		},
		{
			"name":"Bip001 L Hand_047_0",
			"rotation":[
				-3.795139491558075e-08,
				1.2991949915885925e-07,
				3.416789695620537e-08,
				1
			],
			"translation":[
				1.568114385008812e-07,
				8.149072527885437e-09,
				6.332993507385254e-08
			]
		},
		{
			"children":[
				40,
				43,
				46,
				49,
				52,
				53
			],
			"name":"Bip001 L Hand_047",
			"rotation":[
				-0.7082746028900146,
				-0.04612613096833229,
				-0.02533336728811264,
				0.7039728760719299
			],
			"scale":[
				1.0000001192092896,
				1,
				1
			],
			"translation":[
				0.2032340168952942,
				-1.9744038581848145e-07,
				4.60771843791008e-07
			]
		},
		{
			"name":"Bip001 L Forearm_046_0",
			"rotation":[
				1.0782969184219837e-08,
				4.0046870708465576e-08,
				-1.5628756955266e-08,
				1
			],
			"scale":[
				1.0000001192092896,
				1,
				1
			],
			"translation":[
				1.2485543265938759e-08,
				-1.0663643479347229e-07,
				1.7695128917694092e-08
			]
		},
		{
			"children":[
				54,
				55
			],
			"name":"Bip001 L Forearm_046",
			"rotation":[
				0.00013778574066236615,
				-0.0189348254352808,
				-0.0072740837931632996,
				0.9997943043708801
			],
			"scale":[
				0.9999998211860657,
				0.9999998211860657,
				1
			],
			"translation":[
				0.21620844304561615,
				-3.4458935260772705e-07,
				0.008192075416445732
			]
		},
		{
			"name":"Bip001 L UpperArm_045_0",
			"rotation":[
				-9.04563712822437e-09,
				-0.018935348838567734,
				-1.6525207513495843e-07,
				0.9998207092285156
			],
			"scale":[
				0.9999998807907104,
				1,
				1
			],
			"translation":[
				-1.0622898116707802e-07,
				-4.6566128730773926e-09,
				1.210719347000122e-08
			]
		},
		{
			"children":[
				56,
				57
			],
			"name":"Bip001 L UpperArm_045",
			"rotation":[
				0.09449551999568939,
				0.0107492720708251,
				0.01317192055284977,
				0.9953800439834595
			],
			"scale":[
				1,
				1.0000001192092896,
				0.9999998807907104
			],
			"translation":[
				0.10994965583086014,
				1.097942003980279e-07,
				-4.341636667959392e-07
			]
		},
		{
			"name":"Bip001 L Clavicle_044_0",
			"rotation":[
				7.464550755287291e-09,
				1.6991180018521845e-08,
				-4.406274456414394e-09,
				1
			],
			"scale":[
				1,
				0.9999998807907104,
				0.9999999403953552
			],
			"translation":[
				6.479240255430341e-09,
				-2.3283064365386963e-09,
				-3.476679921732284e-07
			]
		},
		{
			"children":[
				58,
				59
			],
			"name":"Bip001 L Clavicle_044",
			"rotation":[
				0.6987660527229309,
				-0.10818681865930557,
				0.6989037394523621,
				0.1074952483177185
			],
			"scale":[
				1.0000022649765015,
				1.000000238418579,
				1.0000001192092896
			],
			"translation":[
				-0.051895126700401306,
				0.016065247356891632,
				0.0563269704580307
			]
		},
		{
			"name":"Bip001 R Finger02_069",
			"rotation":[
				5.918615784139547e-07,
				1.7363761628530483e-07,
				-0.06881500035524368,
				0.9976294636726379
			],
			"scale":[
				1,
				1,
				1.0000001192092896
			],
			"translation":[
				0.023760762065649033,
				2.7567148208618164e-07,
				3.434251993894577e-07
			]
		},
		{
			"children":[
				61
			],
			"name":"Bip001 R Finger01_068",
			"rotation":[
				-2.1793319149310264e-07,
				-3.4366388490525424e-07,
				0.005842803977429867,
				0.9999829530715942
			],
			"scale":[
				0.9999999403953552,
				1,
				1
			],
			"translation":[
				0.02967875823378563,
				-1.94646418094635e-07,
				-7.962808012962341e-08
			]
		},
		{
			"children":[
				62
			],
			"name":"Bip001 R Finger0_067",
			"rotation":[
				-0.47108545899391174,
				-0.4456385374069214,
				0.14860302209854126,
				0.7465935349464417
			],
			"scale":[
				1,
				1.0000001192092896,
				1.0000001192092896
			],
			"translation":[
				0.029327623546123505,
				0.02079508826136589,
				0.038572363555431366
			]
		},
		{
			"name":"Bip001 R Finger12_072",
			"rotation":[
				7.422311654181613e-08,
				-1.4302806050636718e-08,
				-0.042338404804468155,
				0.999103307723999
			],
			"scale":[
				1.0000001192092896,
				1,
				1
			],
			"translation":[
				0.020675446838140488,
				-1.8978607840836048e-07,
				-2.7008354663848877e-08
			]
		},
		{
			"children":[
				64
			],
			"name":"Bip001 R Finger11_071",
			"rotation":[
				-1.5408480180667539e-07,
				-3.236537793327443e-08,
				-0.01087688934057951,
				0.9999408721923828
			],
			"scale":[
				0.9999998807907104,
				0.9999998807907104,
				0.9999999403953552
			],
			"translation":[
				0.032449718564748764,
				2.955785021185875e-07,
				1.0803341865539551e-07
			]
		},
		{
			"children":[
				65
			],
			"name":"Bip001 R Finger1_070",
			"rotation":[
				0.0183509923517704,
				-0.0685172826051712,
				0.07912510633468628,
				0.9943379163742065
			],
			"scale":[
				1.0000001192092896,
				0.9999998807907104,
				0.9999998807907104
			],
			"translation":[
				0.08715338259935379,
				-0.003699063789099455,
				0.028111446648836136
			]
		},
		{
			"name":"Bip001 R Finger22_075",
			"rotation":[
				-8.096083092823392e-08,
				-6.553450049295861e-08,
				-0.09294946491718292,
				0.9956708550453186
			],
			"scale":[
				0.9999998807907104,
				1,
				0.9999998807907104
			],
			"translation":[
				0.025264937430620193,
				-2.00001522898674e-07,
				-9.499490261077881e-08
			]
		},
		{
			"children":[
				67
			],
			"name":"Bip001 R Finger21_074",
			"rotation":[
				7.994984940751237e-08,
				-6.890471837550649e-08,
				0.006361267063766718,
				0.9999797344207764
			],
			"scale":[
				1.0000001192092896,
				0.9999998807907104,
				0.9999998807907104
			],
			"translation":[
				0.036937203258275986,
				4.6566128730773926e-08,
				-9.103678166866302e-08
			]
		},
		{
			"children":[
				68
			],
			"name":"Bip001 R Finger2_073",
			"rotation":[
				-0.0013837941223755479,
				-0.021793600171804428,
				0.0815114676952362,
				0.9964331388473511
			],
			"scale":[
				1,
				1,
				0.9999999403953552
			],
			"translation":[
				0.08923729509115219,
				-0.003908563405275345,
				0.007087698206305504
			]
		},
		{
			"name":"Bip001 R Finger32_078",
			"rotation":[
				-5.2605187761400884e-08,
				-2.803790799532635e-08,
				0.0007254935917444527,
				0.9999997615814209
			],
			"scale":[
				1.0000001192092896,
				1,
				1
			],
			"translation":[
				0.020878270268440247,
				5.392357707023621e-07,
				-1.862645149230957e-09
			]
		},
		{
			"children":[
				70
			],
			"name":"Bip001 R Finger31_077",
			"rotation":[
				1.059644176848451e-07,
				-6.923877293729674e-08,
				-0.0399724617600441,
				0.9992008209228516
			],
			"scale":[
				0.9999998807907104,
				1,
				1
			],
			"translation":[
				0.03356778249144554,
				7.718335837125778e-08,
				2.3655593395233154e-07
			]
		},
		{
			"children":[
				71
			],
			"name":"Bip001 R Finger3_076",
			"rotation":[
				0.02847561053931713,
				0.03666726499795914,
				0.1031246930360794,
				0.993584394454956
			],
			"scale":[
				1.0000001192092896,
				0.9999998807907104,
				0.9999999403953552
			],
			"translation":[
				0.08743930608034134,
				-0.0017029326409101486,
				-0.01355699636042118
			]
		},
		{
			"name":"Bip001 R Finger42_081",
			"rotation":[
				-3.092758618095104e-07,
				5.971132566173765e-08,
				-0.022280745208263397,
				0.9997517466545105
			],
			"scale":[
				1.0000001192092896,
				0.9999998807907104,
				1
			],
			"translation":[
				0.016487866640090942,
				2.420274540781975e-07,
				-1.7462298274040222e-09
			]
		},
		{
			"children":[
				73
			],
			"name":"Bip001 R Finger41_080",
			"rotation":[
				1.3632258344387083e-07,
				9.260649136422217e-09,
				0.02074330300092697,
				0.9997848868370056
			],
			"scale":[
				0.9999999403953552,
				0.9999999403953552,
				0.9999999403953552
			],
			"translation":[
				0.03285485878586769,
				-3.841705620288849e-09,
				8.475035429000854e-08
			]
		},
		{
			"children":[
				74
			],
			"name":"Bip001 R Finger4_079",
			"rotation":[
				0.04402455687522888,
				0.07943052798509598,
				0.0898822471499443,
				0.9918032884597778
			],
			"scale":[
				1,
				1.0000001192092896,
				1
			],
			"translation":[
				0.07753646373748779,
				0.005453443620353937,
				-0.03111904487013817
			]
		},
		{
			"name":"Bip001 R Hand_066_0",
			"rotation":[
				-2.179295108817314e-07,
				5.681068060425787e-08,
				-2.712477176203265e-08,
				1
			],
			"scale":[
				1,
				0.9999998807907104,
				0.9999998807907104
			],
			"translation":[
				8.09086486697197e-08,
				-2.0605511963367462e-07,
				-5.587935447692871e-09
			]
		},
		{
			"children":[
				63,
				66,
				69,
				72,
				75,
				76
			],
			"name":"Bip001 R Hand_066",
			"rotation":[
				0.7082748413085938,
				0.0461261123418808,
				-0.025333713740110397,
				0.7039725184440613
			],
			"scale":[
				1,
				1.000000238418579,
				1.000000238418579
			],
			"translation":[
				0.20323452353477478,
				1.0011717677116394e-07,
				2.87545844912529e-07
			]
		},
		{
			"name":"Bip001 R Forearm_065_0",
			"rotation":[
				-7.923516953667331e-09,
				1.8975697457790375e-08,
				-7.959897629916668e-08,
				1
			],
			"scale":[
				1,
				1.0000001192092896,
				1.0000001192092896
			],
			"translation":[
				-5.2852556109428406e-08,
				3.306195139884949e-08,
				-3.2153911888599396e-07
			]
		},
		{
			"children":[
				77,
				78
			],
			"name":"Bip001 R Forearm_065",
			"rotation":[
				-0.00014048146840650588,
				0.018934685736894608,
				-0.007395988330245018,
				0.9997933506965637
			],
			"scale":[
				0.9999998211860657,
				1,
				1
			],
			"translation":[
				0.2162095457315445,
				-1.3783574104309082e-07,
				-0.008192489854991436
			]
		},
		{
			"name":"Bip001 R UpperArm_064_0",
			"rotation":[
				-8.929200490115363e-09,
				0.018935177475214005,
				-2.836385704085842e-07,
				0.9998207092285156
			],
			"scale":[
				0.9999999403953552,
				1,
				1
			],
			"translation":[
				-1.6106059774756432e-07,
				-7.729977369308472e-08,
				-4.656612873077393e-10
			]
		},
		{
			"children":[
				79,
				80
			],
			"name":"Bip001 R UpperArm_064",
			"rotation":[
				-0.0944955125451088,
				-0.010749212466180325,
				0.013172028586268425,
				0.9953800439834595
			],
			"scale":[
				1,
				1.0000001192092896,
				1.0000001192092896
			],
			"translation":[
				0.10994977504014969,
				9.240466170012951e-08,
				2.055685399682261e-07
			]
		},
		{
			"name":"Bip001 R Clavicle_063_0",
			"rotation":[
				-3.5382406338158034e-08,
				1.298303686780855e-08,
				1.6260173651971854e-08,
				1
			],
			"translation":[
				-5.4758857004344463e-08,
				2.546585164964199e-10,
				3.4480922295188066e-07
			]
		},
		{
			"children":[
				81,
				82
			],
			"name":"Bip001 R Clavicle_063",
			"rotation":[
				-0.6987656950950623,
				0.10818496346473694,
				0.6989040970802307,
				0.10749757289886475
			],
			"scale":[
				0.999998927116394,
				0.9999999403953552,
				0.9999999403953552
			],
			"translation":[
				-0.051895622164011,
				0.01606566645205021,
				-0.05632704868912697
			]
		},
		{
			"name":"Bip001 Neck_020_0",
			"rotation":[
				-2.7711166694643907e-13,
				-1.2150280781497713e-12,
				-9.31322503561205e-08,
				1
			],
			"scale":[
				1.0000001192092896,
				1,
				1
			],
			"translation":[
				-2.4912876028793107e-07,
				3.725284614120028e-08,
				-7.450331906966312e-09
			]
		},
		{
			"children":[
				37,
				60,
				83,
				84
			],
			"name":"Bip001 Neck_020",
			"rotation":[
				1.461826570903213e-08,
				-4.2386892573631485e-07,
				0.15211708843708038,
				0.9883624911308289
			],
			"scale":[
				1.0000001192092896,
				1.0000001192092896,
				1
			],
			"translation":[
				0.22085343301296234,
				-0.022791996598243713,
				-2.9984910554503585e-08
			]
		},
		{
			"name":"Bone004_086",
			"rotation":[
				-2.618927055664244e-06,
				2.9802868084516376e-07,
				0.006053347140550613,
				0.999981701374054
			],
			"scale":[
				0.9999999403953552,
				1,
				1.0000001192092896
			],
			"translation":[
				0.12337883561849594,
				8.344650268554688e-07,
				-2.3543834686279297e-06
			]
		},
		{
			"children":[
				86
			],
			"name":"Bone003_085",
			"rotation":[
				-1.523651008028537e-06,
				-3.0920057270122925e-07,
				-0.003084327792748809,
				0.999995231628418
			],
			"translation":[
				0.12467758357524872,
				-1.0132789611816406e-06,
				4.209578037261963e-06
			]
		},
		{
			"children":[
				87
			],
			"name":"Bone002_084",
			"rotation":[
				-2.552137061684334e-07,
				6.296513674897142e-07,
				0.01566840335726738,
				0.9998772740364075
			],
			"scale":[
				1,
				1,
				1.0000001192092896
			],
			"translation":[
				0.09982413798570633,
				-3.725290298461914e-07,
				3.129243850708008e-07
			]
		},
		{
			"children":[
				88
			],
			"name":"Bone001_083",
			"rotation":[
				0.396538108587265,
				0.020385971292853355,
				-0.5418215394020081,
				0.7407910823822021
			],
			"scale":[
				1,
				0.9999999403953552,
				1
			],
			"translation":[
				0.12100006639957428,
				1.3474599123001099,
				-0.1638268679380417
			]
		},
		{
			"name":"Bone004(mirrored)_090",
			"rotation":[
				3.22057258017594e-06,
				6.333110036393919e-08,
				-0.006052862387150526,
				0.999981701374054
			],
			"translation":[
				0.12337854504585266,
				-2.9802322387695312e-08,
				-2.5331974029541016e-06
			]
		},
		{
			"children":[
				90
			],
			"name":"Bone003(mirrored)_089",
			"rotation":[
				1.352286858491425e-06,
				-4.284104022644897e-07,
				0.0030847692396491766,
				0.999995231628418
			],
			"scale":[
				1,
				1,
				1.0000001192092896
			],
			"translation":[
				0.12467753887176514,
				1.087784767150879e-06,
				4.291534423828125e-06
			]
		},
		{
			"children":[
				91
			],
			"name":"Bone002(mirrored)_088",
			"rotation":[
				-1.4902992973020446e-07,
				-2.9805985235498156e-08,
				-0.015668755397200584,
				0.9998772144317627
			],
			"scale":[
				0.9999998807907104,
				0.9999998807907104,
				0.9999998807907104
			],
			"translation":[
				0.09982405602931976,
				1.9371509552001953e-07,
				1.1920928955078125e-07
			]
		},
		{
			"children":[
				92
			],
			"name":"Bone001(mirrored)_087",
			"rotation":[
				0.020386625081300735,
				0.39653798937797546,
				-0.7407910823822021,
				0.5418215990066528
			],
			"translation":[
				-0.12099994719028473,
				1.3474596738815308,
				-0.16382674872875214
			]
		},
		{
			"children":[
				89,
				93
			],
			"name":"Point001_082",
			"rotation":[
				-0.4773416817188263,
				-0.5216743350028992,
				-0.47734251618385315,
				0.5216751098632812
			],
			"translation":[
				-1.2027878761291504,
				-0.1144140213727951,
				-1.7561448828473658e-07
			]
		},
		{
			"name":"Bip001 Spine2_019_0",
			"rotation":[
				8.559819519859957e-14,
				-8.881784197001252e-16,
				-3.725290298461914e-09,
				1
			],
			"translation":[
				9.93022695183754e-08,
				4.377213969064542e-08,
				8.526512829121202e-14
			]
		},
		{
			"children":[
				85,
				94,
				95
			],
			"name":"Bip001 Spine2_019",
			"rotation":[
				-9.792167077193881e-14,
				-6.620171077997838e-10,
				-1.4901161193847656e-08,
				1
			],
			"translation":[
				0.09784327447414398,
				-0.00013573979958891869,
				-8.615843150039382e-09
			]
		},
		{
			"children":[
				96
			],
			"name":"Bip001 Spine1_018",
			"rotation":[
				-3.4647211766269947e-09,
				1.3894269557113148e-07,
				-0.06684275716543198,
				0.9977635145187378
			],
			"translation":[
				0.08669666200876236,
				-7.71787017583847e-05,
				3.441944684823284e-08
			]
		},
		{
			"name":"PointR02_093",
			"rotation":[
				-1.4105546952691839e-08,
				1.360655854074121e-14,
				8.305690357701678e-09,
				1
			],
			"scale":[
				1,
				0.9999999403953552,
				1
			],
			"translation":[
				4.3320440568095364e-09,
				0.3663608133792877,
				-1.0335422295781882e-08
			]
		},
		{
			"name":"PointR03_094",
			"rotation":[
				-1.4105547840870258e-08,
				1.360655854074121e-14,
				8.305688581344839e-09,
				1
			],
			"scale":[
				1,
				0.9999999403953552,
				1
			],
			"translation":[
				3.236629453340356e-08,
				0.7327215075492859,
				-2.06708552497048e-08
			]
		},
		{
			"name":"PointR04_095",
			"rotation":[
				-1.4105550505405517e-08,
				1.360655854074121e-14,
				8.305695686772196e-09,
				1
			],
			"scale":[
				1,
				0.9999999403953552,
				1
			],
			"translation":[
				6.040051658828816e-08,
				1.0990822315216064,
				-3.100629086816298e-08
			]
		},
		{
			"children":[
				98,
				99,
				100
			],
			"name":"PointR01_092",
			"rotation":[
				1.865381696222572e-15,
				6.84083474311592e-08,
				-1.0168362152285226e-08,
				1
			],
			"scale":[
				1,
				0.9999999403953552,
				1
			],
			"translation":[
				-0.05751783400774002,
				-1.0523874759674072,
				-2.221191167831421
			]
		},
		{
			"children":[
				101
			],
			"name":"Point004_091",
			"rotation":[
				-0.7228677868843079,
				-0.6909863948822021,
				-4.6919763008190785e-07,
				6.287721134867752e-07
			],
			"scale":[
				0.9999998807907104,
				1.0000001192092896,
				1
			],
			"translation":[
				0.03025742992758751,
				0.04380416497588158,
				-0.1449999064207077
			]
		},
		{
			"name":"PointL02_098",
			"rotation":[
				-1.3284122246659535e-08,
				1.4433543065166948e-14,
				3.2216509460170073e-09,
				1
			],
			"scale":[
				1.0000001192092896,
				1,
				1
			],
			"translation":[
				6.393170082219513e-08,
				0.36635181307792664,
				-2.481518492913892e-07
			]
		},
		{
			"name":"PointL03_099",
			"rotation":[
				-1.3284129352086893e-08,
				1.97626135833677e-14,
				3.2216509460170073e-09,
				1
			],
			"scale":[
				1.0000001192092896,
				1,
				1
			],
			"translation":[
				6.588800260942662e-08,
				0.7327032089233398,
				-4.963037554261973e-07
			]
		},
		{
			"name":"PointL04_0100",
			"rotation":[
				-1.3284131128443732e-08,
				1.97626135833677e-14,
				3.2216418421882054e-09,
				1
			],
			"scale":[
				1.0000001192092896,
				1,
				1
			],
			"translation":[
				2.1685590922970732e-07,
				1.0990545749664307,
				-5.060370540377335e-07
			]
		},
		{
			"children":[
				103,
				104,
				105
			],
			"name":"PointL01_097",
			"rotation":[
				1.1622275653339e-15,
				6.754905257366772e-08,
				-5.084306309299791e-09,
				1
			],
			"scale":[
				1.0000001192092896,
				1,
				1
			],
			"translation":[
				-0.057517871260643005,
				-1.0523890256881714,
				-2.4278738498687744
			]
		},
		{
			"children":[
				106
			],
			"name":"Point009_096",
			"rotation":[
				-0.7228678464889526,
				-0.6909863352775574,
				-4.7038625439199677e-07,
				6.287720566433563e-07
			],
			"scale":[
				0.9999998807907104,
				0.9999998211860657,
				1
			],
			"translation":[
				0.03025747835636139,
				0.043803755193948746,
				0.14500011503696442
			]
		},
		{
			"name":"Bip001 Spine_05_0",
			"rotation":[
				-8.681944052568724e-14,
				8.315836907968333e-11,
				5.587935447692871e-09,
				1
			],
			"translation":[
				-2.491288242367773e-08,
				4.749749393795355e-08,
				1.0390115434688596e-08
			]
		},
		{
			"children":[
				6,
				12,
				97,
				102,
				107,
				108
			],
			"name":"Bip001 Spine_05",
			"rotation":[
				-2.114315975632053e-06,
				7.420449037454091e-07,
				0.02254360355436802,
				0.9997458457946777
			],
			"scale":[
				0.9999999403953552,
				1,
				1
			],
			"translation":[
				0.08330857753753662,
				0.01239488273859024,
				-2.05998915703276e-07
			]
		},
		{
			"children":[
				109
			],
			"name":"Bip001 Pelvis_04",
			"rotation":[
				0.500001072883606,
				0.5000002384185791,
				0.49999895691871643,
				0.4999997615814209
			],
			"scale":[
				0.9999999403953552,
				0.9999998211860657,
				1
			],
			"translation":[
				1.4906539336223545e-09,
				0.9408273696899414,
				-5.278047794556994e-15
			]
		},
		{
			"children":[
				110
			],
			"name":"Bip001_03",
			"rotation":[
				-6.440694111804193e-15,
				-8.881784197001252e-16,
				-2.951523392428778e-23,
				1
			],
			"scale":[
				1,
				0.9999999403953552,
				0.9999999403953552
			],
			"translation":[
				-1.3234888223126632e-23,
				1.4901160305669237e-08,
				1.776356733521132e-15
			]
		},
		{
			"name":"Bone006_0101",
			"rotation":[
				0.4440825879573822,
				-0.42494997382164,
				-0.7472860813140869,
				0.2525308132171631
			],
			"scale":[
				0.9999998807907104,
				0.9999999403953552,
				0.9999999403953552
			],
			"translation":[
				-0.06440708041191101,
				0.9509553909301758,
				-0.20317921042442322
			]
		},
		{
			"name":"Bone007_0102",
			"rotation":[
				0.708411693572998,
				-0.2864809036254883,
				-0.5037848353385925,
				0.40284305810928345
			],
			"scale":[
				0.9999999403953552,
				0.9999998211860657,
				0.9999997019767761
			],
			"translation":[
				0.07921148091554642,
				0.9584611654281616,
				-0.19871357083320618
			]
		},
		{
			"name":"L1_0103",
			"rotation":[
				-0.7071065902709961,
				-1.5307128364838718e-07,
				-2.0657809329804877e-07,
				0.7071069478988647
			],
			"scale":[
				1,
				0.9999999403953552,
				0.9999999403953552
			],
			"translation":[
				3.2642934545462545e-16,
				1.639127589214695e-07,
				-9.536730516401803e-09
			]
		},
		{
			"name":"L2_0104",
			"rotation":[
				-0.5000001192092896,
				-0.49999988079071045,
				-0.4999999403953552,
				0.5000000596046448
			],
			"scale":[
				0.9999999403953552,
				1,
				0.9999999403953552
			],
			"translation":[
				0.011523352935910225,
				1.1920928244535389e-07,
				0.12996932864189148
			]
		},
		{
			"name":"PointL05_0105",
			"rotation":[
				4.019437980693451e-14,
				-0.7071065306663513,
				-3.850647353601834e-14,
				0.7071070075035095
			],
			"scale":[
				0.9999999403953552,
				0.9999999403953552,
				1
			],
			"translation":[
				2.572874069213867,
				1.4654057025909424,
				2.0727497940242756e-07
			]
		},
		{
			"name":"PointR05_0106",
			"rotation":[
				1.2560736278128745e-15,
				-0.7071065306663513,
				3.346459583765621e-24,
				0.7071070075035095
			],
			"scale":[
				0.9999999403953552,
				0.9999999403953552,
				1
			],
			"translation":[
				2.0761916637420654,
				1.4654431343078613,
				1.9027427811124653e-07
			]
		},
		{
			"name":"R1_0107",
			"rotation":[
				-0.7071066498756409,
				8.45397920556934e-08,
				-4.3131919369443494e-08,
				0.70710688829422
			],
			"scale":[
				1,
				0.9999999403953552,
				0.9999999403953552
			],
			"translation":[
				-8.940699558479537e-08,
				-7.450579886381092e-08,
				1.3113045760348996e-08
			]
		},
		{
			"name":"R2_0108",
			"rotation":[
				-0.5000001192092896,
				-0.49999988079071045,
				-0.4999999403953552,
				0.5000000596046448
			],
			"scale":[
				0.9999999403953552,
				1,
				0.9999999403953552
			],
			"translation":[
				0.011523256078362465,
				-1.7881392011531716e-07,
				0.12996935844421387
			]
		},
		{
			"name":"role_ailun_diaocha_body",
			"rotation":[
				-0.7071067690849304,
				-5.98509273662161e-23,
				-2.5121476791422227e-15,
				0.7071067690849304
			],
			"scale":[
				1,
				0.9999998211860657,
				0.9999998211860657
			],
			"translation":[
				1.9811909681956794e-22,
				1.1641528629979803e-08,
				4.1845147791264026e-08
			]
		},
		{
			"name":"role_ailun_diaocha_face",
			"rotation":[
				-0.7071067690849304,
				-5.98509273662161e-23,
				-2.5121476791422227e-15,
				0.7071067690849304
			],
			"scale":[
				1,
				0.9999998211860657,
				0.9999998211860657
			],
			"translation":[
				-1.763720815181618e-24,
				1.1641528629979803e-08,
				5.152787291767607e-17
			]
		},
		{
			"name":"role_ailun_diaocha_foot",
			"rotation":[
				-0.7071067690849304,
				-5.98509273662161e-23,
				-2.5121476791422227e-15,
				0.7071067690849304
			],
			"scale":[
				1,
				0.9999998211860657,
				0.9999998211860657
			],
			"translation":[
				1.9811909681956794e-22,
				1.1641528629979803e-08,
				4.1845147791264026e-08
			]
		},
		{
			"name":"role_ailun_diaocha_gangshengL",
			"rotation":[
				-0.7071067690849304,
				-5.98509273662161e-23,
				-2.5121476791422227e-15,
				0.7071067690849304
			],
			"scale":[
				1,
				0.9999998211860657,
				0.9999998211860657
			],
			"translation":[
				2.5726559162139893,
				1.1641530406336642e-08,
				-0.0009698481298983097
			]
		},
		{
			"name":"role_ailun_diaocha_gangshengR",
			"rotation":[
				-0.7071067690849304,
				-5.98509273662161e-23,
				-2.5121476791422227e-15,
				0.7071067690849304
			],
			"scale":[
				1,
				0.9999998211860657,
				0.9999998211860657
			],
			"translation":[
				2.075883388519287,
				1.1641531294515062e-08,
				-0.0009698481298983097
			]
		},
		{
			"name":"role_ailun_diaocha_hair",
			"rotation":[
				-0.7071067690849304,
				-5.98509273662161e-23,
				-2.5121476791422227e-15,
				0.7071067690849304
			],
			"scale":[
				1,
				0.9999998211860657,
				0.9999998211860657
			],
			"translation":[
				-1.763720815181618e-24,
				1.1641528629979803e-08,
				5.152787291767607e-17
			]
		},
		{
			"name":"role_ailun_diaocha_heixian",
			"rotation":[
				-0.7071067690849304,
				-5.98509273662161e-23,
				-2.5121476791422227e-15,
				0.7071067690849304
			],
			"scale":[
				1,
				0.9999998211860657,
				0.9999998211860657
			],
			"translation":[
				-4.440892098500626e-16,
				1.1641529518158222e-08,
				0.05617431551218033
			]
		},
		{
			"name":"role_ailun_diaocha_pifeng",
			"rotation":[
				-0.7071067690849304,
				-5.98509273662161e-23,
				-2.5121476791422227e-15,
				0.7071067690849304
			],
			"scale":[
				1,
				0.9999998211860657,
				0.9999998211860657
			],
			"translation":[
				-1.763720815181618e-24,
				1.1641528629979803e-08,
				5.152787291767607e-17
			]
		},
		{
			"name":"role_ailun_diaocha_skin",
			"rotation":[
				-0.7071067690849304,
				-5.98509273662161e-23,
				-2.5121476791422227e-15,
				0.7071067690849304
			],
			"scale":[
				1,
				0.9999998211860657,
				0.9999998211860657
			],
			"translation":[
				-1.763720815181618e-24,
				1.1641528629979803e-08,
				5.152787291767607e-17
			]
		},
		{
			"name":"role_ailun_diaocha_wuqi01",
			"rotation":[
				-0.7071070075035095,
				-3.5612467971751986e-22,
				-2.5121478909004595e-15,
				0.7071065306663513
			],
			"scale":[
				1,
				0.9999998211860657,
				0.9999998211860657
			],
			"translation":[
				2.081028951924961e-23,
				1.629814079251446e-07,
				-9.536748279970197e-09
			]
		},
		{
			"name":"role_ailun_diaocha_wuqi02",
			"rotation":[
				-0.70710688829422,
				8.429368136830817e-08,
				2.247644381725422e-08,
				0.7071066498756409
			],
			"scale":[
				1,
				0.9999998211860657,
				0.9999998211860657
			],
			"translation":[
				-4.8088556885489406e-23,
				-1.3969835777061235e-07,
				-1.6689304160877327e-08
			]
		},
		{
			"name":"role_ailun_diaocha_zhuangbei",
			"rotation":[
				-0.7071066498756409,
				-6.181723222198343e-08,
				-7.536442613910194e-15,
				0.70710688829422
			],
			"scale":[
				1,
				0.9999998211860657,
				0.9999998211860657
			],
			"translation":[
				-1.763720815181618e-24,
				1.1641528629979803e-08,
				5.152787291767607e-17
			]
		},
		{
			"children":[
				111,
				112,
				113,
				114,
				115,
				116,
				117,
				118,
				119,
				120,
				121,
				122,
				123,
				124,
				125,
				126,
				127,
				128,
				129,
				130,
				131
			],
			"name":"role_ailun_diaocha_skin_02",
			"rotation":[
				6.956238597568155e-15,
				-8.881784197001252e-16,
				6.879077246072374e-23,
				1
			],
			"scale":[
				1,
				0.9999999403953552,
				0.9999999403953552
			]
		},
		{
			"children":[
				132
			],
			"name":"_rootJoint",
			"rotation":[
				-8.557136332854043e-09,
				1.7114272665708086e-08,
				-2.928983021579227e-16,
				1
			],
			"scale":[
				1,
				0.9999999403953552,
				0.9999999403953552
			]
		},
		{
			"mesh":0,
			"name":"Object_11",
			"skin":0
		},
		{
			"name":"Object_12",
			"rotation":[
				-0.70710688829422,
				0,
				0,
				0.7071066498756409
			],
			"translation":[
				2.5726559162139893,
				0,
				-0.0009698482463136315
			]
		},
		{
			"mesh":1,
			"name":"Object_13",
			"skin":0
		},
		{
			"name":"Object_14",
			"rotation":[
				-0.70710688829422,
				0,
				0,
				0.7071066498756409
			],
			"translation":[
				2.075883626937866,
				0,
				-0.0009698482463136315
			]
		},
		{
			"mesh":2,
			"name":"Object_15",
			"skin":0
		},
		{
			"name":"Object_16",
			"rotation":[
				-0.70710688829422,
				0,
				0,
				0.7071066498756409
			]
		},
		{
			"mesh":3,
			"name":"Object_17",
			"skin":0
		},
		{
			"name":"Object_18",
			"rotation":[
				-0.70710688829422,
				0,
				0,
				0.7071066498756409
			],
			"translation":[
				0,
				0,
				0.05617431551218033
			]
		},
		{
			"mesh":4,
			"name":"Object_19",
			"skin":0
		},
		{
			"name":"Object_20",
			"rotation":[
				-0.70710688829422,
				0,
				0,
				0.7071066498756409
			]
		},
		{
			"mesh":5,
			"name":"Object_21",
			"skin":0
		},
		{
			"name":"Object_22",
			"rotation":[
				-0.70710688829422,
				0,
				0,
				0.7071066498756409
			]
		},
		{
			"mesh":6,
			"name":"Object_23",
			"skin":0
		},
		{
			"name":"Object_24",
			"rotation":[
				-0.7071070671081543,
				0,
				0,
				0.7071065902709961
			]
		},
		{
			"mesh":7,
			"name":"Object_25",
			"skin":0
		},
		{
			"name":"Object_26",
			"rotation":[
				-0.70710688829422,
				0,
				0,
				0.7071066498756409
			]
		},
		{
			"mesh":8,
			"name":"Object_27",
			"skin":0
		},
		{
			"name":"Object_28",
			"rotation":[
				-0.7071065902709961,
				0,
				0,
				0.7071069478988647
			]
		},
		{
			"mesh":9,
			"name":"Object_29",
			"skin":0
		},
		{
			"name":"Object_6",
			"rotation":[
				-0.70710688829422,
				0,
				0,
				0.7071066498756409
			]
		},
		{
			"mesh":10,
			"name":"Object_7",
			"skin":0
		},
		{
			"name":"Object_8",
			"rotation":[
				-0.70710688829422,
				0,
				0,
				0.7071066498756409
			]
		},
		{
			"mesh":11,
			"name":"Object_9",
			"skin":0
		},
		{
			"children":[
				0,
				134,
				135,
				136,
				137,
				138,
				139,
				140,
				141,
				142,
				143,
				144,
				145,
				146,
				147,
				148,
				149,
				150,
				151,
				152,
				153,
				154,
				155,
				156,
				133
			],
			"name":"Object_4"
		},
		{
			"children":[
				157
			],
			"name":"role_ailun_diaocha_show"
		},
		{
			"children":[
				158
			],
			"name":"RootNode"
		},
		{
			"children":[
				159
			],
			"name":"role_ailun_diaocha_skin.fbx",
			"rotation":[
				0.70710688829422,
				0,
				0,
				0.7071066498756409
			],
			"scale":[
				0.009999999776482582,
				0.010000000707805157,
				0.010000000707805157
			]
		},
		{
			"children":[
				160
			],
			"name":"Sketchfab_model",
			"rotation":[
				-0.70710688829422,
				0,
				0,
				0.7071066498756409
			]
		}
	],
	"materials":[
		{
			"doubleSided":true,
			"name":"role_ailun_diaocha_foot_mat_01",
			"normalTexture":{
				"index":0
			},
			"pbrMetallicRoughness":{
				"baseColorTexture":{
					"index":1
				},
				"metallicFactor":0,
				"roughnessFactor":0.9577051401138306
			}
		},
		{
			"doubleSided":true,
			"name":"role_ailun_diaocha_gangsheng_mat_01",
			"pbrMetallicRoughness":{
				"metallicFactor":0,
				"roughnessFactor":0.9577051401138306
			}
		},
		{
			"doubleSided":true,
			"name":"role_ailun_diaocha_hair_mat_01",
			"pbrMetallicRoughness":{
				"baseColorTexture":{
					"index":2
				},
				"metallicFactor":0,
				"roughnessFactor":0.9577051401138306
			}
		},
		{
			"doubleSided":true,
			"name":"role_ailun_diaocha_heixian_mat_01",
			"pbrMetallicRoughness":{
				"metallicFactor":0,
				"roughnessFactor":0.9577051401138306
			}
		},
		{
			"doubleSided":true,
			"name":"role_ailun_diaocha_pifeng_mat_01",
			"normalTexture":{
				"index":3
			},
			"pbrMetallicRoughness":{
				"baseColorTexture":{
					"index":4
				},
				"metallicFactor":0,
				"roughnessFactor":0.9577051401138306
			}
		},
		{
			"doubleSided":true,
			"name":"role_ailun_diaocha_skin_mat_01",
			"pbrMetallicRoughness":{
				"baseColorTexture":{
					"index":5
				},
				"metallicFactor":0,
				"roughnessFactor":0.9577051401138306
			}
		},
		{
			"doubleSided":true,
			"name":"role_ailun_diaocha_wuqi_mat_01",
			"normalTexture":{
				"index":6
			},
			"pbrMetallicRoughness":{
				"baseColorTexture":{
					"index":7
				},
				"metallicFactor":0,
				"roughnessFactor":0.9577051401138306
			}
		},
		{
			"doubleSided":true,
			"name":"role_ailun_diaocha_zhuangbei_mat_01",
			"normalTexture":{
				"index":8
			},
			"pbrMetallicRoughness":{
				"baseColorTexture":{
					"index":9
				},
				"metallicFactor":0,
				"roughnessFactor":0.9577051401138306
			}
		},
		{
			"doubleSided":true,
			"name":"role_ailun_diaocha_body_mat_01",
			"normalTexture":{
				"index":10
			},
			"pbrMetallicRoughness":{
				"baseColorTexture":{
					"index":11
				},
				"metallicFactor":0,
				"roughnessFactor":0.9577051401138306
			}
		},
		{
			"doubleSided":true,
			"name":"role_ailun_diaocha_face_mat_01",
			"pbrMetallicRoughness":{
				"baseColorTexture":{
					"index":12
				},
				"metallicFactor":0,
				"roughnessFactor":0.9577051401138306
			}
		}
	],
	"meshes":[
		{
			"name":"role_ailun_diaocha_foot_role_ailun_diaocha_foot_mat_01_0",
			"primitives":[
				{
					"attributes":{
						"POSITION":0,
						"NORMAL":1,
						"TEXCOORD_0":2,
						"JOINTS_0":3,
						"WEIGHTS_0":4
					},
					"indices":5,
					"material":0
				}
			]
		},
		{
			"name":"role_ailun_diaocha_gangshengL_role_ailun_diaocha_gangsheng_mat_",
			"primitives":[
				{
					"attributes":{
						"POSITION":7,
						"NORMAL":8,
						"TEXCOORD_0":9,
						"JOINTS_0":10,
						"WEIGHTS_0":11
					},
					"indices":12,
					"material":1
				}
			]
		},
		{
			"name":"role_ailun_diaocha_gangshengR_role_ailun_diaocha_gangsheng_mat_",
			"primitives":[
				{
					"attributes":{
						"POSITION":13,
						"NORMAL":14,
						"TEXCOORD_0":15,
						"JOINTS_0":16,
						"WEIGHTS_0":17
					},
					"indices":12,
					"material":1
				}
			]
		},
		{
			"name":"role_ailun_diaocha_hair_role_ailun_diaocha_hair_mat_01_0",
			"primitives":[
				{
					"attributes":{
						"POSITION":18,
						"NORMAL":19,
						"TEXCOORD_0":20,
						"JOINTS_0":21,
						"WEIGHTS_0":22
					},
					"indices":23,
					"material":2
				}
			]
		},
		{
			"name":"role_ailun_diaocha_heixian_role_ailun_diaocha_heixian_mat_01_0",
			"primitives":[
				{
					"attributes":{
						"POSITION":24,
						"NORMAL":25,
						"TEXCOORD_0":26,
						"TEXCOORD_1":27,
						"JOINTS_0":28,
						"WEIGHTS_0":29
					},
					"indices":30,
					"material":3
				}
			]
		},
		{
			"name":"role_ailun_diaocha_pifeng_role_ailun_diaocha_pifeng_mat_01_0",
			"primitives":[
				{
					"attributes":{
						"POSITION":31,
						"NORMAL":32,
						"TEXCOORD_0":33,
						"JOINTS_0":34,
						"WEIGHTS_0":35
					},
					"indices":36,
					"material":4
				}
			]
		},
		{
			"name":"role_ailun_diaocha_skin_role_ailun_diaocha_skin_mat_01_0",
			"primitives":[
				{
					"attributes":{
						"POSITION":37,
						"NORMAL":38,
						"TEXCOORD_0":39,
						"JOINTS_0":40,
						"WEIGHTS_0":41
					},
					"indices":42,
					"material":5
				}
			]
		},
		{
			"name":"role_ailun_diaocha_wuqi01_role_ailun_diaocha_wuqi_mat_01_0",
			"primitives":[
				{
					"attributes":{
						"POSITION":43,
						"NORMAL":44,
						"TEXCOORD_0":45,
						"JOINTS_0":46,
						"WEIGHTS_0":47
					},
					"indices":48,
					"material":6
				}
			]
		},
		{
			"name":"role_ailun_diaocha_wuqi02_role_ailun_diaocha_wuqi_mat_01_0",
			"primitives":[
				{
					"attributes":{
						"POSITION":49,
						"NORMAL":50,
						"TEXCOORD_0":51,
						"JOINTS_0":52,
						"WEIGHTS_0":53
					},
					"indices":54,
					"material":6
				}
			]
		},
		{
			"name":"role_ailun_diaocha_zhuangbei_role_ailun_diaocha_zhuangbei_mat_0",
			"primitives":[
				{
					"attributes":{
						"POSITION":55,
						"NORMAL":56,
						"TEXCOORD_0":57,
						"JOINTS_0":58,
						"WEIGHTS_0":59
					},
					"indices":60,
					"material":7
				}
			]
		},
		{
			"name":"role_ailun_diaocha_body_role_ailun_diaocha_body_mat_01_0",
			"primitives":[
				{
					"attributes":{
						"POSITION":61,
						"NORMAL":62,
						"TEXCOORD_0":63,
						"JOINTS_0":64,
						"WEIGHTS_0":65
					},
					"indices":66,
					"material":8
				}
			]
		},
		{
			"name":"role_ailun_diaocha_face_role_ailun_diaocha_face_mat_01_0",
			"primitives":[
				{
					"attributes":{
						"POSITION":67,
						"NORMAL":68,
						"TEXCOORD_0":69,
						"TEXCOORD_1":70,
						"JOINTS_0":71,
						"WEIGHTS_0":72
					},
					"indices":73,
					"material":9
				}
			]
		}
	],
	"textures":[
		{
			"sampler":0,
			"source":0
		},
		{
			"sampler":0,
			"source":1
		},
		{
			"sampler":0,
			"source":2
		},
		{
			"sampler":0,
			"source":0
		},
		{
			"sampler":0,
			"source":1
		},
		{
			"sampler":0,
			"source":1
		},
		{
			"sampler":0,
			"source":3
		},
		{
			"sampler":0,
			"source":4
		},
		{
			"sampler":0,
			"source":3
		},
		{
			"sampler":0,
			"source":4
		},
		{
			"sampler":0,
			"source":0
		},
		{
			"sampler":0,
			"source":1
		},
		{
			"sampler":0,
			"source":5
		}
	],
	"images":[
		{
			"mimeType":"image/png",
			"name":"role_ailun_diaocha_body_mat_01_normal",
			"uri":"textures/role_ailun_diaocha_body_mat_01_normal.png"
		},
		{
			"mimeType":"image/png",
			"name":"role_ailun_diaocha_body_mat_01_baseColor",
			"uri":"textures/role_ailun_diaocha_body_mat_01_baseColor.png"
		},
		{
			"mimeType":"image/png",
			"name":"role_ailun_diaocha_hair_mat_01_baseColor",
			"uri":"textures/role_ailun_diaocha_hair_mat_01_baseColor.png"
		},
		{
			"mimeType":"image/png",
			"name":"role_ailun_diaocha_wuqi_mat_01_normal",
			"uri":"textures/role_ailun_diaocha_wuqi_mat_01_normal.png"
		},
		{
			"mimeType":"image/png",
			"name":"role_ailun_diaocha_wuqi_mat_01_baseColor",
			"uri":"textures/role_ailun_diaocha_wuqi_mat_01_baseColor.png"
		},
		{
			"mimeType":"image/png",
			"name":"role_ailun_diaocha_face_mat_01_baseColor",
			"uri":"textures/role_ailun_diaocha_face_mat_01_baseColor.png"
		}
	],
	"skins":[
		{
			"inverseBindMatrices":6,
			"joints":[
				133,
				132,
				111,
				110,
				109,
				6,
				3,
				2,
				1,
				5,
				4,
				12,
				9,
				8,
				7,
				11,
				10,
				97,
				96,
				85,
				37,
				15,
				13,
				14,
				16,
				19,
				17,
				18,
				20,
				21,
				22,
				25,
				23,
				24,
				26,
				27,
				28,
				29,
				30,
				31,
				32,
				33,
				34,
				35,
				36,
				60,
				58,
				56,
				54,
				40,
				39,
				38,
				43,
				42,
				41,
				46,
				45,
				44,
				49,
				48,
				47,
				52,
				51,
				50,
				53,
				55,
				57,
				59,
				83,
				81,
				79,
				77,
				63,
				62,
				61,
				66,
				65,
				64,
				69,
				68,
				67,
				72,
				71,
				70,
				75,
				74,
				73,
				76,
				78,
				80,
				82,
				84,
				94,
				89,
				88,
				87,
				86,
				93,
				92,
				91,
				90,
				95,
				102,
				101,
				98,
				99,
				100,
				107,
				106,
				103,
				104,
				105,
				108,
				112,
				113,
				114,
				115,
				116,
				117,
				118,
				119
			],
			"name":"Object_4"
		}
	],
	"accessors":[
		{
			"bufferView":0,
			"componentType":5126,
			"count":1252,
			"max":[
				0.001536470022983849,
				0.005915776826441288,
				0.0018561448669061065
			],
			"min":[
				-0.0015364695573225617,
				5.721695561078377e-05,
				-0.0007836497970856726
			],
			"type":"VEC3"
		},
		{
			"bufferView":1,
			"componentType":5126,
			"count":1252,
			"type":"VEC3"
		},
		{
			"bufferView":2,
			"componentType":5126,
			"count":1252,
			"type":"VEC2"
		},
		{
			"bufferView":3,
			"componentType":5121,
			"count":1252,
			"type":"VEC4"
		},
		{
			"bufferView":4,
			"componentType":5126,
			"count":1252,
			"type":"VEC4"
		},
		{
			"bufferView":5,
			"componentType":5123,
			"count":5256,
			"type":"SCALAR"
		},
		{
			"bufferView":6,
			"componentType":5126,
			"count":121,
			"type":"MAT4"
		},
		{
			"bufferView":7,
			"componentType":5126,
			"count":111,
			"max":[
				0.025787150487303734,
				0.01465404499322176,
				6.579318142030388e-05
			],
			"min":[
				0.025672320276498795,
				3.263311612045072e-07,
				-3.495860073599033e-05
			],
			"type":"VEC3"
		},
		{
			"bufferView":8,
			"componentType":5126,
			"count":111,
			"type":"VEC3"
		},
		{
			"bufferView":9,
			"componentType":5126,
			"count":111,
			"type":"VEC2"
		},
		{
			"bufferView":10,
			"componentType":5121,
			"count":111,
			"type":"VEC4"
		},
		{
			"bufferView":11,
			"componentType":5126,
			"count":111,
			"type":"VEC4"
		},
		{
			"bufferView":12,
			"componentType":5123,
			"count":366,
			"type":"SCALAR"
		},
		{
			"bufferView":13,
			"componentType":5126,
			"count":111,
			"max":[
				0.020819421857595444,
				0.01465404499322176,
				6.579295586561784e-05
			],
			"min":[
				0.020704597234725952,
				3.2770114444247156e-07,
				-3.495861164992675e-05
			],
			"type":"VEC3"
		},
		{
			"bufferView":14,
			"componentType":5126,
			"count":111,
			"type":"VEC3"
		},
		{
			"bufferView":15,
			"componentType":5126,
			"count":111,
			"type":"VEC2"
		},
		{
			"bufferView":16,
			"componentType":5121,
			"count":111,
			"type":"VEC4"
		},
		{
			"bufferView":17,
			"componentType":5126,
			"count":111,
			"type":"VEC4"
		},
		{
			"bufferView":18,
			"componentType":5126,
			"count":1705,
			"max":[
				0.0011393595486879349,
				0.017308294773101807,
				0.0011142098810523748
			],
			"min":[
				-0.001136020408011973,
				0.014655211940407753,
				-0.001292340224608779
			],
			"type":"VEC3"
		},
		{
			"bufferView":19,
			"componentType":5126,
			"count":1705,
			"type":"VEC3"
		},
		{
			"bufferView":20,
			"componentType":5126,
			"count":1705,
			"type":"VEC2"
		},
		{
			"bufferView":21,
			"componentType":5121,
			"count":1705,
			"type":"VEC4"
		},
		{
			"bufferView":22,
			"componentType":5126,
			"count":1705,
			"type":"VEC4"
		},
		{
			"bufferView":23,
			"componentType":5123,
			"count":5949,
			"type":"SCALAR"
		},
		{
			"bufferView":24,
			"componentType":5126,
			"count":183,
			"max":[
				0.0005944605218246579,
				0.015908025205135345,
				0.001511807437054813
			],
			"min":[
				-0.0006663054809905589,
				0.015340369194746017,
				0.000416909228079021
			],
			"type":"VEC3"
		},
		{
			"bufferView":25,
			"componentType":5126,
			"count":183,
			"type":"VEC3"
		},
		{
			"bufferView":26,
			"componentType":5126,
			"count":183,
			"type":"VEC2"
		},
		{
			"bufferView":27,
			"componentType":5126,
			"count":183,
			"type":"VEC2"
		},
		{
			"bufferView":28,
			"componentType":5121,
			"count":183,
			"type":"VEC4"
		},
		{
			"bufferView":29,
			"componentType":5126,
			"count":183,
			"type":"VEC4"
		},
		{
			"bufferView":30,
			"componentType":5123,
			"count":417,
			"type":"SCALAR"
		},
		{
			"bufferView":31,
			"componentType":5126,
			"count":1131,
			"max":[
				0.004437554161995649,
				0.015076661482453346,
				0.0009119085734710097
			],
			"min":[
				-0.004437552765011787,
				0.008780091069638729,
				-0.004547170363366604
			],
			"type":"VEC3"
		},
		{
			"bufferView":32,
			"componentType":5126,
			"count":1131,
			"type":"VEC3"
		},
		{
			"bufferView":33,
			"componentType":5126,
			"count":1131,
			"type":"VEC2"
		},
		{
			"bufferView":34,
			"componentType":5121,
			"count":1131,
			"type":"VEC4"
		},
		{
			"bufferView":35,
			"componentType":5126,
			"count":1131,
			"type":"VEC4"
		},
		{
			"bufferView":36,
			"componentType":5123,
			"count":4818,
			"type":"SCALAR"
		},
		{
			"bufferView":37,
			"componentType":5126,
			"count":1844,
			"max":[
				0.007615581154823303,
				0.014033371582627296,
				0.00040266147698275745
			],
			"min":[
				-0.00761558348312974,
				0.013034396804869175,
				-0.0009000202408060431
			],
			"type":"VEC3"
		},
		{
			"bufferView":38,
			"componentType":5126,
			"count":1844,
			"type":"VEC3"
		},
		{
			"bufferView":39,
			"componentType":5126,
			"count":1844,
			"type":"VEC2"
		},
		{
			"bufferView":40,
			"componentType":5121,
			"count":1844,
			"type":"VEC4"
		},
		{
			"bufferView":41,
			"componentType":5126,
			"count":1844,
			"type":"VEC4"
		},
		{
			"bufferView":42,
			"componentType":5123,
			"count":7842,
			"type":"SCALAR"
		},
		{
			"bufferView":43,
			"componentType":5126,
			"count":1089,
			"max":[
				0.001005191938020289,
				0.00017512627528049052,
				0.009547543711960316
			],
			"min":[
				-0.00044573823106475174,
				-0.00017512464546598494,
				-0.0012242194497957826
			],
			"type":"VEC3"
		},
		{
			"bufferView":44,
			"componentType":5126,
			"count":1089,
			"type":"VEC3"
		},
		{
			"bufferView":45,
			"componentType":5126,
			"count":1089,
			"type":"VEC2"
		},
		{
			"bufferView":46,
			"componentType":5121,
			"count":1089,
			"type":"VEC4"
		},
		{
			"bufferView":47,
			"componentType":5126,
			"count":1089,
			"type":"VEC4"
		},
		{
			"bufferView":48,
			"componentType":5123,
			"count":2769,
			"type":"SCALAR"
		},
		{
			"bufferView":49,
			"componentType":5126,
			"count":1093,
			"max":[
				0.00101033307146281,
				0.00017512055637780577,
				0.009546760469675064
			],
			"min":[
				-0.00044059689389541745,
				-0.0001751280651660636,
				-0.0012249991996213794
			],
			"type":"VEC3"
		},
		{
			"bufferView":50,
			"componentType":5126,
			"count":1093,
			"type":"VEC3"
		},
		{
			"bufferView":51,
			"componentType":5126,
			"count":1093,
			"type":"VEC2"
		},
		{
			"bufferView":52,
			"componentType":5121,
			"count":1093,
			"type":"VEC4"
		},
		{
			"bufferView":53,
			"componentType":5126,
			"count":1093,
			"type":"VEC4"
		},
		{
			"bufferView":54,
			"componentType":5123,
			"count":2769,
			"type":"SCALAR"
		},
		{
			"bufferView":55,
			"componentType":5126,
			"count":11135,
			"max":[
				0.0025951748248189688,
				0.011731737293303013,
				0.002980960998684168
			],
			"min":[
				-0.002596358535811305,
				0.005575427785515785,
				-0.006100291386246681
			],
			"type":"VEC3"
		},
		{
			"bufferView":56,
			"componentType":5126,
			"count":11135,
			"type":"VEC3"
		},
		{
			"bufferView":57,
			"componentType":5126,
			"count":11135,
			"type":"VEC2"
		},
		{
			"bufferView":58,
			"componentType":5121,
			"count":11135,
			"type":"VEC4"
		},
		{
			"bufferView":59,
			"componentType":5126,
			"count":11135,
			"type":"VEC4"
		},
		{
			"bufferView":60,
			"componentType":5123,
			"count":24330,
			"type":"SCALAR"
		},
		{
			"bufferView":61,
			"componentType":5126,
			"count":8875,
			"max":[
				0.006048730108886957,
				0.01487906463444233,
				0.0010695788078010082
			],
			"min":[
				-0.006048731040209532,
				0.004286766052246094,
				-0.0010834700660780072
			],
			"type":"VEC3"
		},
		{
			"bufferView":62,
			"componentType":5126,
			"count":8875,
			"type":"VEC3"
		},
		{
			"bufferView":63,
			"componentType":5126,
			"count":8875,
			"type":"VEC2"
		},
		{
			"bufferView":64,
			"componentType":5121,
			"count":8875,
			"type":"VEC4"
		},
		{
			"bufferView":65,
			"componentType":5126,
			"count":8875,
			"type":"VEC4"
		},
		{
			"bufferView":66,
			"componentType":5123,
			"count":30759,
			"type":"SCALAR"
		},
		{
			"bufferView":67,
			"componentType":5126,
			"count":2327,
			"max":[
				0.0012119795428588986,
				0.01668800413608551,
				0.0010801786556839943
			],
			"min":[
				-0.0012119801249355078,
				0.013010394759476185,
				-0.0008436202770099044
			],
			"type":"VEC3"
		},
		{
			"bufferView":68,
			"componentType":5126,
			"count":2327,
			"type":"VEC3"
		},
		{
			"bufferView":69,
			"componentType":5126,
			"count":2327,
			"type":"VEC2"
		},
		{
			"bufferView":70,
			"componentType":5126,
			"count":2327,
			"type":"VEC2"
		},
		{
			"bufferView":71,
			"componentType":5121,
			"count":2327,
			"type":"VEC4"
		},
		{
			"bufferView":72,
			"componentType":5126,
			"count":2327,
			"type":"VEC4"
		},
		{
			"bufferView":73,
			"componentType":5123,
			"count":10005,
			"type":"SCALAR"
		}
	],
	"bufferViews":[
		{
			"buffer":0,
			"byteLength":15024,
			"byteOffset":0,
			"target":34962
		},
		{
			"buffer":0,
			"byteLength":15024,
			"byteOffset":15024,
			"target":34962
		},
		{
			"buffer":0,
			"byteLength":10016,
			"byteOffset":30048,
			"target":34962
		},
		{
			"buffer":0,
			"byteLength":5008,
			"byteOffset":40064,
			"target":34962
		},
		{
			"buffer":0,
			"byteLength":20032,
			"byteOffset":45072,
			"target":34962
		},
		{
			"buffer":0,
			"byteLength":10512,
			"byteOffset":65104,
			"target":34963
		},
		{
			"buffer":0,
			"byteLength":7744,
			"byteOffset":75616
		},
		{
			"buffer":0,
			"byteLength":1332,
			"byteOffset":83360,
			"target":34962
		},
		{
			"buffer":0,
			"byteLength":1332,
			"byteOffset":84692,
			"target":34962
		},
		{
			"buffer":0,
			"byteLength":888,
			"byteOffset":86024,
			"target":34962
		},
		{
			"buffer":0,
			"byteLength":444,
			"byteOffset":86912,
			"target":34962
		},
		{
			"buffer":0,
			"byteLength":1776,
			"byteOffset":87356,
			"target":34962
		},
		{
			"buffer":0,
			"byteLength":732,
			"byteOffset":89132,
			"target":34963
		},
		{
			"buffer":0,
			"byteLength":1332,
			"byteOffset":89864,
			"target":34962
		},
		{
			"buffer":0,
			"byteLength":1332,
			"byteOffset":91196,
			"target":34962
		},
		{
			"buffer":0,
			"byteLength":888,
			"byteOffset":92528,
			"target":34962
		},
		{
			"buffer":0,
			"byteLength":444,
			"byteOffset":93416,
			"target":34962
		},
		{
			"buffer":0,
			"byteLength":1776,
			"byteOffset":93860,
			"target":34962
		},
		{
			"buffer":0,
			"byteLength":20460,
			"byteOffset":95636,
			"target":34962
		},
		{
			"buffer":0,
			"byteLength":20460,
			"byteOffset":116096,
			"target":34962
		},
		{
			"buffer":0,
			"byteLength":13640,
			"byteOffset":136556,
			"target":34962
		},
		{
			"buffer":0,
			"byteLength":6820,
			"byteOffset":150196,
			"target":34962
		},
		{
			"buffer":0,
			"byteLength":27280,
			"byteOffset":157016,
			"target":34962
		},
		{
			"buffer":0,
			"byteLength":11898,
			"byteOffset":184296,
			"target":34963
		},
		{
			"buffer":0,
			"byteLength":2196,
			"byteOffset":196196,
			"target":34962
		},
		{
			"buffer":0,
			"byteLength":2196,
			"byteOffset":198392,
			"target":34962
		},
		{
			"buffer":0,
			"byteLength":1464,
			"byteOffset":200588,
			"target":34962
		},
		{
			"buffer":0,
			"byteLength":1464,
			"byteOffset":202052,
			"target":34962
		},
		{
			"buffer":0,
			"byteLength":732,
			"byteOffset":203516,
			"target":34962
		},
		{
			"buffer":0,
			"byteLength":2928,
			"byteOffset":204248,
			"target":34962
		},
		{
			"buffer":0,
			"byteLength":834,
			"byteOffset":207176,
			"target":34963
		},
		{
			"buffer":0,
			"byteLength":13572,
			"byteOffset":208012,
			"target":34962
		},
		{
			"buffer":0,
			"byteLength":13572,
			"byteOffset":221584,
			"target":34962
		},
		{
			"buffer":0,
			"byteLength":9048,
			"byteOffset":235156,
			"target":34962
		},
		{
			"buffer":0,
			"byteLength":4524,
			"byteOffset":244204,
			"target":34962
		},
		{
			"buffer":0,
			"byteLength":18096,
			"byteOffset":248728,
			"target":34962
		},
		{
			"buffer":0,
			"byteLength":9636,
			"byteOffset":266824,
			"target":34963
		},
		{
			"buffer":0,
			"byteLength":22128,
			"byteOffset":276460,
			"target":34962
		},
		{
			"buffer":0,
			"byteLength":22128,
			"byteOffset":298588,
			"target":34962
		},
		{
			"buffer":0,
			"byteLength":14752,
			"byteOffset":320716,
			"target":34962
		},
		{
			"buffer":0,
			"byteLength":7376,
			"byteOffset":335468,
			"target":34962
		},
		{
			"buffer":0,
			"byteLength":29504,
			"byteOffset":342844,
			"target":34962
		},
		{
			"buffer":0,
			"byteLength":15684,
			"byteOffset":372348,
			"target":34963
		},
		{
			"buffer":0,
			"byteLength":13068,
			"byteOffset":388032,
			"target":34962
		},
		{
			"buffer":0,
			"byteLength":13068,
			"byteOffset":401100,
			"target":34962
		},
		{
			"buffer":0,
			"byteLength":8712,
			"byteOffset":414168,
			"target":34962
		},
		{
			"buffer":0,
			"byteLength":4356,
			"byteOffset":422880,
			"target":34962
		},
		{
			"buffer":0,
			"byteLength":17424,
			"byteOffset":427236,
			"target":34962
		},
		{
			"buffer":0,
			"byteLength":5538,
			"byteOffset":444660,
			"target":34963
		},
		{
			"buffer":0,
			"byteLength":13116,
			"byteOffset":450200,
			"target":34962
		},
		{
			"buffer":0,
			"byteLength":13116,
			"byteOffset":463316,
			"target":34962
		},
		{
			"buffer":0,
			"byteLength":8744,
			"byteOffset":476432,
			"target":34962
		},
		{
			"buffer":0,
			"byteLength":4372,
			"byteOffset":485176,
			"target":34962
		},
		{
			"buffer":0,
			"byteLength":17488,
			"byteOffset":489548,
			"target":34962
		},
		{
			"buffer":0,
			"byteLength":5538,
			"byteOffset":507036,
			"target":34963
		},
		{
			"buffer":0,
			"byteLength":133620,
			"byteOffset":512576,
			"target":34962
		},
		{
			"buffer":0,
			"byteLength":133620,
			"byteOffset":646196,
			"target":34962
		},
		{
			"buffer":0,
			"byteLength":89080,
			"byteOffset":779816,
			"target":34962
		},
		{
			"buffer":0,
			"byteLength":44540,
			"byteOffset":868896,
			"target":34962
		},
		{
			"buffer":0,
			"byteLength":178160,
			"byteOffset":913436,
			"target":34962
		},
		{
			"buffer":0,
			"byteLength":48660,
			"byteOffset":1091596,
			"target":34963
		},
		{
			"buffer":0,
			"byteLength":106500,
			"byteOffset":1140256,
			"target":34962
		},
		{
			"buffer":0,
			"byteLength":106500,
			"byteOffset":1246756,
			"target":34962
		},
		{
			"buffer":0,
			"byteLength":71000,
			"byteOffset":1353256,
			"target":34962
		},
		{
			"buffer":0,
			"byteLength":35500,
			"byteOffset":1424256,
			"target":34962
		},
		{
			"buffer":0,
			"byteLength":142000,
			"byteOffset":1459756,
			"target":34962
		},
		{
			"buffer":0,
			"byteLength":61518,
			"byteOffset":1601756,
			"target":34963
		},
		{
			"buffer":0,
			"byteLength":27924,
			"byteOffset":1663276,
			"target":34962
		},
		{
			"buffer":0,
			"byteLength":27924,
			"byteOffset":1691200,
			"target":34962
		},
		{
			"buffer":0,
			"byteLength":18616,
			"byteOffset":1719124,
			"target":34962
		},
		{
			"buffer":0,
			"byteLength":18616,
			"byteOffset":1737740,
			"target":34962
		},
		{
			"buffer":0,
			"byteLength":9308,
			"byteOffset":1756356,
			"target":34962
		},
		{
			"buffer":0,
			"byteLength":37232,
			"byteOffset":1765664,
			"target":34962
		},
		{
			"buffer":0,
			"byteLength":20010,
			"byteOffset":1802896,
			"target":34963
		}
	],
	"samplers":[
		{
			"magFilter":9729,
			"minFilter":9987
		}
	],
	"buffers":[
		{
			"byteLength":1822908,
			"uri":"eren.bin"
		}
	]
}
