{
	"asset":{
		"generator":"Khronos glTF Blender I/O v4.2.83",
		"version":"2.0"
	},
	"scene":0,
	"scenes":[
		{
			"name":"Scene",
			"nodes":[
				68
			]
		}
	],
	"nodes":[
		{
			"name":"mixamorig:HeadTop_End",
			"rotation":[
				-1.7763566276420137e-15,
				1.6896586643691326e-29,
				-9.091834988672259e-29,
				1
			],
			"scale":[
				1,
				1.0000001192092896,
				1
			],
			"translation":[
				0,
				66.4532470703125,
				14.98825740814209
			]
		},
		{
			"children":[
				0
			],
			"name":"mixamorig:Head",
			"rotation":[
				-1.7763566276420137e-15,
				1.0585693383392156e-29,
				3.6088249835329236e-29,
				1
			],
			"scale":[
				1,
				1.0000001192092896,
				1
			],
			"translation":[
				7.275957614183426e-12,
				5.268066883087158,
				1.1881976127624512
			]
		},
		{
			"children":[
				1
			],
			"name":"mixamorig:Neck",
			"rotation":[
				0.03840501978993416,
				-8.490203844862524e-23,
				3.3047450766368588e-21,
				0.9992622137069702
			],
			"scale":[
				1,
				0.9999998807907104,
				0.9999998807907104
			],
			"translation":[
				-3.637980975496058e-12,
				43.18649673461914,
				3.814697265625e-06
			]
		},
		{
			"name":"mixamorig:LeftHandThumb4",
			"rotation":[
				1.6880221664905548e-08,
				-9.965152258928356e-08,
				-7.90460106259161e-08,
				1
			],
			"scale":[
				0.9999998807907104,
				0.9999999403953552,
				1
			],
			"translation":[
				0.7006244659423828,
				5.764896869659424,
				-8.717179298400879e-06
			]
		},
		{
			"children":[
				3
			],
			"name":"mixamorig:LeftHandThumb3",
			"rotation":[
				-0.061641205102205276,
				5.901839017496968e-07,
				5.509937750503013e-07,
				0.9980983734130859
			],
			"scale":[
				0.9999999403953552,
				0.9999998807907104,
				0.9999998211860657
			],
			"translation":[
				-0.4330015182495117,
				8.210569381713867,
				7.927417755126953e-06
			]
		},
		{
			"children":[
				4
			],
			"name":"mixamorig:LeftHandThumb2",
			"rotation":[
				-0.016422711312770844,
				-5.719091973332979e-07,
				-4.2311035031161737e-07,
				0.9998651742935181
			],
			"scale":[
				0.9999999403953552,
				1,
				0.9999999403953552
			],
			"translation":[
				-0.26763105392456055,
				10.350287437438965,
				-3.039836883544922e-06
			]
		},
		{
			"children":[
				5
			],
			"name":"mixamorig:LeftHandThumb1",
			"rotation":[
				0.1660017967224121,
				0.05246488004922867,
				0.29675933718681335,
				0.9389488101005554
			],
			"scale":[
				1,
				0.9999998211860657,
				0.9999999403953552
			],
			"translation":[
				-7.258490562438965,
				9.753786087036133,
				4.4359869956970215
			]
		},
		{
			"name":"mixamorig:LeftHandIndex4",
			"rotation":[
				5.50062484450109e-09,
				-1.3387763120320528e-09,
				-4.307366907596588e-09,
				1
			],
			"scale":[
				1,
				0.9999999403953552,
				0.9999999403953552
			],
			"translation":[
				0.007825613021850586,
				6.393491744995117,
				6.585568189620972e-05
			]
		},
		{
			"children":[
				7
			],
			"name":"mixamorig:LeftHandIndex3",
			"rotation":[
				0.008869984187185764,
				-2.222892803160903e-08,
				1.2328870013789128e-07,
				0.9999606609344482
			],
			"scale":[
				0.9999999403953552,
				0.9999998211860657,
				0.9999998211860657
			],
			"translation":[
				0.0054070353507995605,
				7.302369117736816,
				-4.234910011291504e-05
			]
		},
		{
			"children":[
				8
			],
			"name":"mixamorig:LeftHandIndex2",
			"rotation":[
				0.05219588056206703,
				-9.5900523078285e-09,
				-4.037840284354388e-08,
				0.9986368417739868
			],
			"scale":[
				0.9999998807907104,
				1,
				1
			],
			"translation":[
				-0.013232588768005371,
				7.585607528686523,
				-2.3908913135528564e-05
			]
		},
		{
			"children":[
				9
			],
			"name":"mixamorig:LeftHandIndex1",
			"rotation":[
				0.03661265969276428,
				0.0007334916735999286,
				0.020016971975564957,
				0.9991288185119629
			],
			"scale":[
				1,
				0.9999998807907104,
				0.9999998211860657
			],
			"translation":[
				-7.920785903930664,
				24.79257583618164,
				0.18020737171173096
			]
		},
		{
			"name":"mixamorig:LeftHandMiddle4",
			"rotation":[
				-1.6298142835324825e-09,
				-1.2025701323636895e-07,
				-2.0954757928848267e-09,
				1
			],
			"scale":[
				1.0000001192092896,
				1,
				1.0000001192092896
			],
			"translation":[
				0.0034275054931640625,
				6.8976731300354,
				-8.064508438110352e-05
			]
		},
		{
			"children":[
				11
			],
			"name":"mixamorig:LeftHandMiddle3",
			"rotation":[
				0.00175650289747864,
				-7.246864441867729e-09,
				1.2083928879746964e-07,
				0.9999984502792358
			],
			"scale":[
				1,
				1.0000001192092896,
				1.0000001192092896
			],
			"translation":[
				0.0036940574645996094,
				7.849349498748779,
				1.6808509826660156e-05
			]
		},
		{
			"children":[
				12
			],
			"name":"mixamorig:LeftHandMiddle2",
			"rotation":[
				0.07870656996965408,
				-4.349965276873036e-09,
				-4.3207708522174926e-09,
				0.99689781665802
			],
			"scale":[
				1,
				1.0000001192092896,
				1.000000238418579
			],
			"translation":[
				-0.007122039794921875,
				8.32097053527832,
				3.129243850708008e-06
			]
		},
		{
			"children":[
				13
			],
			"name":"mixamorig:LeftHandMiddle1",
			"rotation":[
				-0.025538241490721703,
				-0.0008263638010248542,
				0.03232913091778755,
				0.9991506338119507
			],
			"scale":[
				0.9999999403953552,
				0.9999998807907104,
				0.9999998211860657
			],
			"translation":[
				-2.3286232948303223,
				25.15668487548828,
				-0.19125890731811523
			]
		},
		{
			"name":"mixamorig:LeftHandRing4",
			"rotation":[
				5.122274604474342e-09,
				3.2596294552433847e-09,
				-1.25728565336658e-08,
				1
			],
			"scale":[
				0.9999998807907104,
				0.9999999403953552,
				0.9999998807907104
			],
			"translation":[
				0.014540672302246094,
				6.161365032196045,
				7.939338684082031e-05
			]
		},
		{
			"children":[
				15
			],
			"name":"mixamorig:LeftHandRing3",
			"rotation":[
				0.06811582297086716,
				9.918338150782802e-09,
				-7.631285825482337e-08,
				0.9976774454116821
			],
			"translation":[
				-0.00046253204345703125,
				6.917440891265869,
				-3.5762786865234375e-06
			]
		},
		{
			"children":[
				16
			],
			"name":"mixamorig:LeftHandRing2",
			"rotation":[
				0.05840544030070305,
				-2.1748583378666808e-08,
				2.6588081070144653e-08,
				0.9982929825782776
			],
			"scale":[
				1,
				0.9999999403953552,
				0.9999998807907104
			],
			"translation":[
				-0.014066696166992188,
				7.357778072357178,
				2.753734588623047e-05
			]
		},
		{
			"children":[
				17
			],
			"name":"mixamorig:LeftHandRing1",
			"rotation":[
				-0.014750595204532146,
				0.0007013421854935586,
				-0.04747788980603218,
				0.9987631440162659
			],
			"scale":[
				0.9999998211860657,
				0.9999998211860657,
				0.9999997615814209
			],
			"translation":[
				2.6473007202148438,
				25.527427673339844,
				-0.2395724058151245
			]
		},
		{
			"name":"mixamorig:LeftHandPinky4",
			"rotation":[
				1.3969840839678227e-09,
				-2.3283066585833012e-09,
				-1.862645371275562e-09,
				1
			],
			"scale":[
				0.9999999403953552,
				0.9999999403953552,
				0.9999999403953552
			],
			"translation":[
				0.0073871612548828125,
				4.971241474151611,
				2.6464462280273438e-05
			]
		},
		{
			"children":[
				19
			],
			"name":"mixamorig:LeftHandPinky3",
			"rotation":[
				0.037620909512043,
				-3.0988413612931254e-08,
				4.9045567607208795e-08,
				0.9992921352386475
			],
			"scale":[
				0.9999999403953552,
				1,
				0.9999998807907104
			],
			"translation":[
				-0.0001201629638671875,
				5.569289684295654,
				8.618831634521484e-05
			]
		},
		{
			"children":[
				20
			],
			"name":"mixamorig:LeftHandPinky2",
			"rotation":[
				0.02978087030351162,
				9.56776275984339e-08,
				3.913290669288472e-08,
				0.9995564222335815
			],
			"scale":[
				1,
				1.0000001192092896,
				1.0000001192092896
			],
			"translation":[
				-0.007269859313964844,
				6.918452262878418,
				9.059906005859375e-06
			]
		},
		{
			"children":[
				21
			],
			"name":"mixamorig:LeftHandPinky1",
			"rotation":[
				0.01108590979129076,
				-0.0009589277324266732,
				-0.08620037883520126,
				0.9962157011032104
			],
			"scale":[
				0.9999999403953552,
				0.9999997615814209,
				0.9999998807907104
			],
			"translation":[
				7.602120399475098,
				24.21580696105957,
				0.3207881450653076
			]
		},
		{
			"children":[
				6,
				10,
				14,
				18,
				22
			],
			"name":"mixamorig:LeftHand",
			"rotation":[
				-0.035705044865608215,
				-0.008921104483306408,
				-0.0192301943898201,
				0.9991375207901001
			],
			"scale":[
				1.0000001192092896,
				1,
				0.9999999403953552
			],
			"translation":[
				-5.364418029785156e-07,
				67.24732971191406,
				-1.4901161193847656e-06
			]
		},
		{
			"children":[
				23
			],
			"name":"mixamorig:LeftForeArm",
			"rotation":[
				-0.004184025805443525,
				-4.783359599969117e-06,
				0.0011734174331650138,
				0.9999905824661255
			],
			"scale":[
				0.9999999403953552,
				1,
				1
			],
			"translation":[
				6.686896085739136e-07,
				68.47341918945312,
				-4.941225051879883e-05
			]
		},
		{
			"children":[
				24
			],
			"name":"mixamorig:LeftArm",
			"rotation":[
				-0.07776188850402832,
				-0.0004916344187222421,
				0.006303240079432726,
				0.9969519376754761
			],
			"scale":[
				1,
				1.0000001192092896,
				1
			],
			"translation":[
				-2.2649765014648438e-06,
				38.8294563293457,
				5.7220458984375e-06
			]
		},
		{
			"children":[
				25
			],
			"name":"mixamorig:LeftShoulder",
			"rotation":[
				0.5375638604164124,
				0.4581722021102905,
				-0.5444472432136536,
				0.45241639018058777
			],
			"scale":[
				0.9999998211860657,
				0.9999999403953552,
				0.9999998807907104
			],
			"translation":[
				19.13437843322754,
				39.84699630737305,
				-0.24440813064575195
			]
		},
		{
			"name":"mixamorig:RightHandThumb4",
			"rotation":[
				-1.4901162970204496e-08,
				-7.450581485102248e-09,
				-7.427298953643913e-08,
				1
			],
			"scale":[
				0.9999999403953552,
				0.9999998807907104,
				0.9999998807907104
			],
			"translation":[
				0.13992595672607422,
				7.064765930175781,
				2.110004425048828e-05
			]
		},
		{
			"children":[
				27
			],
			"name":"mixamorig:RightHandThumb3",
			"rotation":[
				0.009987331926822662,
				-2.840675676907267e-07,
				-5.4252257797315906e-08,
				0.999950110912323
			],
			"scale":[
				0.9999999403953552,
				1.0000001192092896,
				1.0000001192092896
			],
			"translation":[
				0.2198781967163086,
				8.803462028503418,
				4.172325134277344e-05
			]
		},
		{
			"children":[
				28
			],
			"name":"mixamorig:RightHandThumb2",
			"rotation":[
				-0.017365343868732452,
				-3.539559401133374e-08,
				-8.988617850036462e-08,
				0.9998492002487183
			],
			"scale":[
				1,
				1,
				0.9999998807907104
			],
			"translation":[
				-0.35978269577026367,
				9.788649559020996,
				1.0609626770019531e-05
			]
		},
		{
			"children":[
				29
			],
			"name":"mixamorig:RightHandThumb1",
			"rotation":[
				0.16949589550495148,
				-0.059187859296798706,
				-0.3243170380592346,
				0.9287553429603577
			],
			"scale":[
				1,
				1.0000001192092896,
				1.0000001192092896
			],
			"translation":[
				6.7735981941223145,
				9.238702774047852,
				4.321959495544434
			]
		},
		{
			"name":"mixamorig:RightHandIndex4",
			"rotation":[
				5.122273272206712e-09,
				-1.1641531072470457e-09,
				1.6298142835324825e-09,
				1
			],
			"scale":[
				1.0000001192092896,
				1.0000001192092896,
				1.0000001192092896
			],
			"translation":[
				-0.005921840667724609,
				6.4037580490112305,
				7.897615432739258e-05
			]
		},
		{
			"children":[
				31
			],
			"name":"mixamorig:RightHandIndex3",
			"rotation":[
				0.01797041855752468,
				-9.303087011858224e-08,
				-3.9121864858771005e-08,
				0.9998385310173035
			],
			"scale":[
				1,
				0.9999999403953552,
				0.9999999403953552
			],
			"translation":[
				-0.004400014877319336,
				7.256043910980225,
				1.039355993270874e-05
			]
		},
		{
			"children":[
				32
			],
			"name":"mixamorig:RightHandIndex2",
			"rotation":[
				0.06048649549484253,
				-2.71380784511166e-08,
				4.326930636011639e-08,
				0.9981690645217896
			],
			"scale":[
				1,
				0.9999998807907104,
				1
			],
			"translation":[
				0.0103224515914917,
				7.783572673797607,
				4.0553510189056396e-05
			]
		},
		{
			"children":[
				33
			],
			"name":"mixamorig:RightHandIndex1",
			"rotation":[
				0.022531215101480484,
				-0.0006734274211339653,
				-0.02986707165837288,
				0.9992997050285339
			],
			"scale":[
				1,
				1.0000001192092896,
				1
			],
			"translation":[
				7.9271368980407715,
				24.532426834106445,
				0.48165202140808105
			]
		},
		{
			"name":"mixamorig:RightHandMiddle4",
			"rotation":[
				6.938893903907228e-18,
				-5.59521211584979e-08,
				-7.203198038041592e-10,
				1
			],
			"scale":[
				0.9999999403953552,
				1,
				0.9999999403953552
			],
			"translation":[
				-0.0003962516784667969,
				6.648047924041748,
				4.023313522338867e-06
			]
		},
		{
			"children":[
				35
			],
			"name":"mixamorig:RightHandMiddle3",
			"rotation":[
				-0.003751854645088315,
				-8.492557412864699e-08,
				1.086453735865689e-07,
				0.9999929666519165
			],
			"scale":[
				1,
				0.9999999403953552,
				1.0000001192092896
			],
			"translation":[
				-0.0011606216430664062,
				7.686507701873779,
				3.2335519790649414e-05
			]
		},
		{
			"children":[
				36
			],
			"name":"mixamorig:RightHandMiddle2",
			"rotation":[
				0.01372905820608139,
				9.456000071850212e-08,
				-1.269337985831953e-07,
				0.9999057650566101
			],
			"scale":[
				0.9999999403953552,
				0.9999998211860657,
				0.9999997615814209
			],
			"translation":[
				0.0015611648559570312,
				8.375385284423828,
				1.5407800674438477e-05
			]
		},
		{
			"children":[
				37
			],
			"name":"mixamorig:RightHandMiddle1",
			"rotation":[
				0.027028430253267288,
				-0.0007935198373161256,
				-0.029330836609005928,
				0.9992039203643799
			],
			"scale":[
				1.0000001192092896,
				1.0000001192092896,
				1.0000001192092896
			],
			"translation":[
				2.514737129211426,
				25.637170791625977,
				-0.8224520087242126
			]
		},
		{
			"name":"mixamorig:RightHandRing4",
			"rotation":[
				5.820766091346741e-09,
				8.731149137020111e-09,
				1.7753337688830584e-09,
				1
			],
			"scale":[
				0.9999999403953552,
				1,
				1
			],
			"translation":[
				-0.00048065185546875,
				5.954344749450684,
				9.059906005859375e-06
			]
		},
		{
			"children":[
				39
			],
			"name":"mixamorig:RightHandRing3",
			"rotation":[
				-0.038697920739650726,
				4.3630219437318374e-08,
				-8.711480603551536e-08,
				0.9992509484291077
			],
			"scale":[
				1,
				0.9999999403953552,
				1
			],
			"translation":[
				-0.0117340087890625,
				6.85521125793457,
				-2.5033950805664062e-05
			]
		},
		{
			"children":[
				40
			],
			"name":"mixamorig:RightHandRing2",
			"rotation":[
				0.0807114690542221,
				-1.280088213206909e-07,
				1.9271400475417977e-08,
				0.996737539768219
			],
			"translation":[
				0.012225151062011719,
				7.240455150604248,
				7.414817810058594e-05
			]
		},
		{
			"children":[
				41
			],
			"name":"mixamorig:RightHandRing1",
			"rotation":[
				-0.019141552969813347,
				-0.0006354096112772822,
				0.033175960183143616,
				0.9992660284042358
			],
			"scale":[
				1.0000001192092896,
				1,
				1.0000001192092896
			],
			"translation":[
				-2.5518131256103516,
				25.950538635253906,
				-0.14977943897247314
			]
		},
		{
			"name":"mixamorig:RightHandPinky4",
			"rotation":[
				-3.725290742551124e-09,
				6.984919864727601e-10,
				1.1641534958251043e-10,
				1
			],
			"scale":[
				0.9999999403953552,
				0.9999999403953552,
				0.9999998807907104
			],
			"translation":[
				0.0042209625244140625,
				4.382797718048096,
				3.7550926208496094e-05
			]
		},
		{
			"children":[
				43
			],
			"name":"mixamorig:RightHandPinky3",
			"rotation":[
				-0.04741411283612251,
				-1.452168163496026e-07,
				-1.8705698323628894e-07,
				0.9988753199577332
			],
			"scale":[
				1,
				0.9999998807907104,
				1
			],
			"translation":[
				-0.00711822509765625,
				5.566699028015137,
				1.800060272216797e-05
			]
		},
		{
			"children":[
				44
			],
			"name":"mixamorig:RightHandPinky2",
			"rotation":[
				0.0362691693007946,
				1.2301552487770095e-07,
				2.4987526714426167e-08,
				0.9993420243263245
			],
			"translation":[
				0.002902984619140625,
				6.801458358764648,
				-3.62396240234375e-05
			]
		},
		{
			"children":[
				45
			],
			"name":"mixamorig:RightHandPinky1",
			"rotation":[
				0.016536016017198563,
				0.000849155941978097,
				0.05127677321434021,
				0.9985471963882446
			],
			"scale":[
				1.000000238418579,
				1.0000001192092896,
				1
			],
			"translation":[
				-7.890046119689941,
				24.63241195678711,
				0.37753570079803467
			]
		},
		{
			"children":[
				30,
				34,
				38,
				42,
				46
			],
			"name":"mixamorig:RightHand",
			"rotation":[
				-0.03723777458071709,
				0.008577737025916576,
				0.021722877398133278,
				0.999033510684967
			],
			"scale":[
				1,
				1.0000001192092896,
				0.9999999403953552
			],
			"translation":[
				-2.9802322387695312e-06,
				67.24761962890625,
				1.4126300811767578e-05
			]
		},
		{
			"children":[
				47
			],
			"name":"mixamorig:RightForeArm",
			"rotation":[
				-0.004122610203921795,
				8.061422704486176e-06,
				-0.0019531541038304567,
				0.9999896287918091
			],
			"scale":[
				1,
				1,
				1.000000238418579
			],
			"translation":[
				-2.1830201148986816e-06,
				68.4734115600586,
				4.589557647705078e-05
			]
		},
		{
			"children":[
				48
			],
			"name":"mixamorig:RightArm",
			"rotation":[
				-0.07772012054920197,
				0.0005327261169441044,
				-0.006832724437117577,
				0.996951699256897
			],
			"scale":[
				1.0000001192092896,
				0.9999999403953552,
				1.0000001192092896
			],
			"translation":[
				-2.384185791015625e-06,
				38.829444885253906,
				1.233816146850586e-05
			]
		},
		{
			"children":[
				49
			],
			"name":"mixamorig:RightShoulder",
			"rotation":[
				0.5371829867362976,
				-0.45849722623825073,
				0.5447776317596436,
				0.45214176177978516
			],
			"scale":[
				0.9999998211860657,
				0.9999998807907104,
				0.9999998211860657
			],
			"translation":[
				-19.134376525878906,
				39.848934173583984,
				-0.2695798873901367
			]
		},
		{
			"children":[
				2,
				26,
				50
			],
			"name":"mixamorig:Spine2",
			"rotation":[
				2.6077035641947077e-08,
				1.8211439182445584e-15,
				-4.738443930849337e-14,
				1
			],
			"scale":[
				1,
				0.9999998807907104,
				0.9999999403953552
			],
			"translation":[
				-3.731907578102822e-12,
				38.38792419433594,
				2.1457672119140625e-06
			]
		},
		{
			"children":[
				51
			],
			"name":"mixamorig:Spine1",
			"rotation":[
				3.725290742551124e-09,
				-1.821145400552216e-15,
				4.738443930849337e-14,
				1
			],
			"scale":[
				1,
				0.9999998807907104,
				0.9999999403953552
			],
			"translation":[
				-3.637978807091713e-12,
				33.58941650390625,
				5.960464477539062e-07
			]
		},
		{
			"children":[
				52
			],
			"name":"mixamorig:Spine",
			"rotation":[
				-0.03840505704283714,
				0,
				0,
				0.9992622137069702
			],
			"scale":[
				1,
				0.9999998807907104,
				1
			],
			"translation":[
				0,
				28.706024169921875,
				-2.2098019123077393
			]
		},
		{
			"name":"mixamorig:LeftToe_End",
			"rotation":[
				1.1059455573558807e-07,
				1.9674189388751984e-08,
				2.2118911147117615e-09,
				1
			],
			"scale":[
				0.9999999403953552,
				1,
				1
			],
			"translation":[
				2.5331974029541016e-07,
				11.833906173706055,
				-2.384185791015625e-07
			]
		},
		{
			"children":[
				54
			],
			"name":"mixamorig:LeftToeBase",
			"rotation":[
				0.3036883473396301,
				-0.036689355969429016,
				0.011703956872224808,
				0.9519928097724915
			],
			"scale":[
				1,
				1.0000001192092896,
				1.000000238418579
			],
			"translation":[
				9.313225746154785e-08,
				31.567262649536133,
				6.67572021484375e-06
			]
		},
		{
			"children":[
				55
			],
			"name":"mixamorig:LeftFoot",
			"rotation":[
				0.450472891330719,
				0.07081442326307297,
				-0.035872653126716614,
				0.8892539739608765
			],
			"translation":[
				1.9470317056402564e-06,
				80.11432647705078,
				-3.67872416973114e-08
			]
		},
		{
			"children":[
				56
			],
			"name":"mixamorig:LeftLeg",
			"rotation":[
				0.0027082241140305996,
				3.902896060026251e-05,
				0.0140041159465909,
				0.9998982548713684
			],
			"scale":[
				1.000000238418579,
				1.0000001192092896,
				1
			],
			"translation":[
				-1.9774306565523148e-06,
				88.00408172607422,
				-9.025097824633121e-08
			]
		},
		{
			"children":[
				57
			],
			"name":"mixamorig:LeftUpLeg",
			"rotation":[
				0.00030949446954764426,
				-0.015645312145352364,
				0.9996827840805054,
				0.019735753536224365
			],
			"scale":[
				1.0000008344650269,
				0.9999998807907104,
				1.0000004768371582
			],
			"translation":[
				31.032875061035156,
				-15.953201293945312,
				-0.12916040420532227
			]
		},
		{
			"name":"mixamorig:RightToe_End",
			"rotation":[
				-3.2596294552433847e-09,
				-9.313227167240257e-08,
				-6.63567405467802e-08,
				1
			],
			"scale":[
				0.9999999403953552,
				0.9999998807907104,
				0.9999998807907104
			],
			"translation":[
				1.475214958190918e-06,
				11.611695289611816,
				-2.384185791015625e-07
			]
		},
		{
			"children":[
				59
			],
			"name":"mixamorig:RightToeBase",
			"rotation":[
				0.30375126004219055,
				0.03438734635710716,
				-0.01097103115171194,
				0.9520673751831055
			],
			"scale":[
				0.9999998211860657,
				0.9999998807907104,
				1
			],
			"translation":[
				-1.3299286365509033e-06,
				31.52619743347168,
				-6.318092346191406e-06
			]
		},
		{
			"children":[
				60
			],
			"name":"mixamorig:RightFoot",
			"rotation":[
				0.45362716913223267,
				-0.07043829560279846,
				0.03599591180682182,
				0.8876740336418152
			],
			"scale":[
				1,
				1.0000001192092896,
				1
			],
			"translation":[
				3.2068928703665733e-06,
				80.13404083251953,
				-1.9854633137583733e-07
			]
		},
		{
			"children":[
				61
			],
			"name":"mixamorig:RightLeg",
			"rotation":[
				0.0009171090205200016,
				-1.3324444807949476e-05,
				-0.014002563431859016,
				0.999901533126831
			],
			"scale":[
				1,
				1.0000001192092896,
				0.9999999403953552
			],
			"translation":[
				-1.3459939509630203e-06,
				88.01762390136719,
				5.256879376247525e-08
			]
		},
		{
			"children":[
				62
			],
			"name":"mixamorig:RightUpLeg",
			"rotation":[
				0.0003553250862751156,
				0.01794997975230217,
				-0.9996441006660461,
				0.0197319183498621
			],
			"scale":[
				1.000001072883606,
				0.9999997019767761,
				1.0000009536743164
			],
			"translation":[
				-31.032875061035156,
				-15.953201293945312,
				0.5098457336425781
			]
		},
		{
			"children":[
				53,
				58,
				63
			],
			"name":"mixamorig:Hips",
			"rotation":[
				-0.7071067690849304,
				0,
				0,
				0.7071067690849304
			],
			"translation":[
				-3.306071084807627e-05,
				4.6491379737854,
				-205.5225372314453
			]
		},
		{
			"mesh":0,
			"name":"Object_11",
			"skin":0
		},
		{
			"mesh":1,
			"name":"Object_7",
			"skin":0
		},
		{
			"mesh":2,
			"name":"Object_9",
			"skin":0
		},
		{
			"children":[
				65,
				66,
				67,
				64
			],
			"name":"Armature",
			"rotation":[
				0.7071068286895752,
				0,
				0,
				0.7071068286895752
			],
			"scale":[
				0.009999999776482582,
				0.009999999776482582,
				0.009999999776482582
			]
		}
	],
	"animations":[
		{
			"channels":[
				{
					"sampler":0,
					"target":{
						"node":64,
						"path":"translation"
					}
				},
				{
					"sampler":1,
					"target":{
						"node":64,
						"path":"rotation"
					}
				},
				{
					"sampler":2,
					"target":{
						"node":64,
						"path":"scale"
					}
				},
				{
					"sampler":3,
					"target":{
						"node":53,
						"path":"translation"
					}
				},
				{
					"sampler":4,
					"target":{
						"node":53,
						"path":"rotation"
					}
				},
				{
					"sampler":5,
					"target":{
						"node":53,
						"path":"scale"
					}
				},
				{
					"sampler":6,
					"target":{
						"node":52,
						"path":"translation"
					}
				},
				{
					"sampler":7,
					"target":{
						"node":52,
						"path":"rotation"
					}
				},
				{
					"sampler":8,
					"target":{
						"node":52,
						"path":"scale"
					}
				},
				{
					"sampler":9,
					"target":{
						"node":51,
						"path":"translation"
					}
				},
				{
					"sampler":10,
					"target":{
						"node":51,
						"path":"rotation"
					}
				},
				{
					"sampler":11,
					"target":{
						"node":51,
						"path":"scale"
					}
				},
				{
					"sampler":12,
					"target":{
						"node":2,
						"path":"translation"
					}
				},
				{
					"sampler":13,
					"target":{
						"node":2,
						"path":"rotation"
					}
				},
				{
					"sampler":14,
					"target":{
						"node":2,
						"path":"scale"
					}
				},
				{
					"sampler":15,
					"target":{
						"node":1,
						"path":"translation"
					}
				},
				{
					"sampler":16,
					"target":{
						"node":1,
						"path":"rotation"
					}
				},
				{
					"sampler":17,
					"target":{
						"node":1,
						"path":"scale"
					}
				},
				{
					"sampler":18,
					"target":{
						"node":0,
						"path":"translation"
					}
				},
				{
					"sampler":19,
					"target":{
						"node":0,
						"path":"rotation"
					}
				},
				{
					"sampler":20,
					"target":{
						"node":0,
						"path":"scale"
					}
				},
				{
					"sampler":21,
					"target":{
						"node":26,
						"path":"translation"
					}
				},
				{
					"sampler":22,
					"target":{
						"node":26,
						"path":"rotation"
					}
				},
				{
					"sampler":23,
					"target":{
						"node":26,
						"path":"scale"
					}
				},
				{
					"sampler":24,
					"target":{
						"node":25,
						"path":"translation"
					}
				},
				{
					"sampler":25,
					"target":{
						"node":25,
						"path":"rotation"
					}
				},
				{
					"sampler":26,
					"target":{
						"node":25,
						"path":"scale"
					}
				},
				{
					"sampler":27,
					"target":{
						"node":24,
						"path":"translation"
					}
				},
				{
					"sampler":28,
					"target":{
						"node":24,
						"path":"rotation"
					}
				},
				{
					"sampler":29,
					"target":{
						"node":24,
						"path":"scale"
					}
				},
				{
					"sampler":30,
					"target":{
						"node":23,
						"path":"translation"
					}
				},
				{
					"sampler":31,
					"target":{
						"node":23,
						"path":"rotation"
					}
				},
				{
					"sampler":32,
					"target":{
						"node":23,
						"path":"scale"
					}
				},
				{
					"sampler":33,
					"target":{
						"node":6,
						"path":"translation"
					}
				},
				{
					"sampler":34,
					"target":{
						"node":6,
						"path":"rotation"
					}
				},
				{
					"sampler":35,
					"target":{
						"node":6,
						"path":"scale"
					}
				},
				{
					"sampler":36,
					"target":{
						"node":5,
						"path":"translation"
					}
				},
				{
					"sampler":37,
					"target":{
						"node":5,
						"path":"rotation"
					}
				},
				{
					"sampler":38,
					"target":{
						"node":5,
						"path":"scale"
					}
				},
				{
					"sampler":39,
					"target":{
						"node":4,
						"path":"translation"
					}
				},
				{
					"sampler":40,
					"target":{
						"node":4,
						"path":"rotation"
					}
				},
				{
					"sampler":41,
					"target":{
						"node":4,
						"path":"scale"
					}
				},
				{
					"sampler":42,
					"target":{
						"node":3,
						"path":"translation"
					}
				},
				{
					"sampler":43,
					"target":{
						"node":3,
						"path":"rotation"
					}
				},
				{
					"sampler":44,
					"target":{
						"node":3,
						"path":"scale"
					}
				},
				{
					"sampler":45,
					"target":{
						"node":10,
						"path":"translation"
					}
				},
				{
					"sampler":46,
					"target":{
						"node":10,
						"path":"rotation"
					}
				},
				{
					"sampler":47,
					"target":{
						"node":10,
						"path":"scale"
					}
				},
				{
					"sampler":48,
					"target":{
						"node":9,
						"path":"translation"
					}
				},
				{
					"sampler":49,
					"target":{
						"node":9,
						"path":"rotation"
					}
				},
				{
					"sampler":50,
					"target":{
						"node":9,
						"path":"scale"
					}
				},
				{
					"sampler":51,
					"target":{
						"node":8,
						"path":"translation"
					}
				},
				{
					"sampler":52,
					"target":{
						"node":8,
						"path":"rotation"
					}
				},
				{
					"sampler":53,
					"target":{
						"node":8,
						"path":"scale"
					}
				},
				{
					"sampler":54,
					"target":{
						"node":7,
						"path":"translation"
					}
				},
				{
					"sampler":55,
					"target":{
						"node":7,
						"path":"rotation"
					}
				},
				{
					"sampler":56,
					"target":{
						"node":7,
						"path":"scale"
					}
				},
				{
					"sampler":57,
					"target":{
						"node":14,
						"path":"translation"
					}
				},
				{
					"sampler":58,
					"target":{
						"node":14,
						"path":"rotation"
					}
				},
				{
					"sampler":59,
					"target":{
						"node":14,
						"path":"scale"
					}
				},
				{
					"sampler":60,
					"target":{
						"node":13,
						"path":"translation"
					}
				},
				{
					"sampler":61,
					"target":{
						"node":13,
						"path":"rotation"
					}
				},
				{
					"sampler":62,
					"target":{
						"node":13,
						"path":"scale"
					}
				},
				{
					"sampler":63,
					"target":{
						"node":12,
						"path":"translation"
					}
				},
				{
					"sampler":64,
					"target":{
						"node":12,
						"path":"rotation"
					}
				},
				{
					"sampler":65,
					"target":{
						"node":12,
						"path":"scale"
					}
				},
				{
					"sampler":66,
					"target":{
						"node":11,
						"path":"translation"
					}
				},
				{
					"sampler":67,
					"target":{
						"node":11,
						"path":"rotation"
					}
				},
				{
					"sampler":68,
					"target":{
						"node":11,
						"path":"scale"
					}
				},
				{
					"sampler":69,
					"target":{
						"node":18,
						"path":"translation"
					}
				},
				{
					"sampler":70,
					"target":{
						"node":18,
						"path":"rotation"
					}
				},
				{
					"sampler":71,
					"target":{
						"node":18,
						"path":"scale"
					}
				},
				{
					"sampler":72,
					"target":{
						"node":17,
						"path":"translation"
					}
				},
				{
					"sampler":73,
					"target":{
						"node":17,
						"path":"rotation"
					}
				},
				{
					"sampler":74,
					"target":{
						"node":17,
						"path":"scale"
					}
				},
				{
					"sampler":75,
					"target":{
						"node":16,
						"path":"translation"
					}
				},
				{
					"sampler":76,
					"target":{
						"node":16,
						"path":"rotation"
					}
				},
				{
					"sampler":77,
					"target":{
						"node":16,
						"path":"scale"
					}
				},
				{
					"sampler":78,
					"target":{
						"node":15,
						"path":"translation"
					}
				},
				{
					"sampler":79,
					"target":{
						"node":15,
						"path":"rotation"
					}
				},
				{
					"sampler":80,
					"target":{
						"node":15,
						"path":"scale"
					}
				},
				{
					"sampler":81,
					"target":{
						"node":22,
						"path":"translation"
					}
				},
				{
					"sampler":82,
					"target":{
						"node":22,
						"path":"rotation"
					}
				},
				{
					"sampler":83,
					"target":{
						"node":22,
						"path":"scale"
					}
				},
				{
					"sampler":84,
					"target":{
						"node":21,
						"path":"translation"
					}
				},
				{
					"sampler":85,
					"target":{
						"node":21,
						"path":"rotation"
					}
				},
				{
					"sampler":86,
					"target":{
						"node":21,
						"path":"scale"
					}
				},
				{
					"sampler":87,
					"target":{
						"node":20,
						"path":"translation"
					}
				},
				{
					"sampler":88,
					"target":{
						"node":20,
						"path":"rotation"
					}
				},
				{
					"sampler":89,
					"target":{
						"node":20,
						"path":"scale"
					}
				},
				{
					"sampler":90,
					"target":{
						"node":19,
						"path":"translation"
					}
				},
				{
					"sampler":91,
					"target":{
						"node":19,
						"path":"rotation"
					}
				},
				{
					"sampler":92,
					"target":{
						"node":19,
						"path":"scale"
					}
				},
				{
					"sampler":93,
					"target":{
						"node":50,
						"path":"translation"
					}
				},
				{
					"sampler":94,
					"target":{
						"node":50,
						"path":"rotation"
					}
				},
				{
					"sampler":95,
					"target":{
						"node":50,
						"path":"scale"
					}
				},
				{
					"sampler":96,
					"target":{
						"node":49,
						"path":"translation"
					}
				},
				{
					"sampler":97,
					"target":{
						"node":49,
						"path":"rotation"
					}
				},
				{
					"sampler":98,
					"target":{
						"node":49,
						"path":"scale"
					}
				},
				{
					"sampler":99,
					"target":{
						"node":48,
						"path":"translation"
					}
				},
				{
					"sampler":100,
					"target":{
						"node":48,
						"path":"rotation"
					}
				},
				{
					"sampler":101,
					"target":{
						"node":48,
						"path":"scale"
					}
				},
				{
					"sampler":102,
					"target":{
						"node":47,
						"path":"translation"
					}
				},
				{
					"sampler":103,
					"target":{
						"node":47,
						"path":"rotation"
					}
				},
				{
					"sampler":104,
					"target":{
						"node":47,
						"path":"scale"
					}
				},
				{
					"sampler":105,
					"target":{
						"node":30,
						"path":"translation"
					}
				},
				{
					"sampler":106,
					"target":{
						"node":30,
						"path":"rotation"
					}
				},
				{
					"sampler":107,
					"target":{
						"node":30,
						"path":"scale"
					}
				},
				{
					"sampler":108,
					"target":{
						"node":29,
						"path":"translation"
					}
				},
				{
					"sampler":109,
					"target":{
						"node":29,
						"path":"rotation"
					}
				},
				{
					"sampler":110,
					"target":{
						"node":29,
						"path":"scale"
					}
				},
				{
					"sampler":111,
					"target":{
						"node":28,
						"path":"translation"
					}
				},
				{
					"sampler":112,
					"target":{
						"node":28,
						"path":"rotation"
					}
				},
				{
					"sampler":113,
					"target":{
						"node":28,
						"path":"scale"
					}
				},
				{
					"sampler":114,
					"target":{
						"node":27,
						"path":"translation"
					}
				},
				{
					"sampler":115,
					"target":{
						"node":27,
						"path":"rotation"
					}
				},
				{
					"sampler":116,
					"target":{
						"node":27,
						"path":"scale"
					}
				},
				{
					"sampler":117,
					"target":{
						"node":34,
						"path":"translation"
					}
				},
				{
					"sampler":118,
					"target":{
						"node":34,
						"path":"rotation"
					}
				},
				{
					"sampler":119,
					"target":{
						"node":34,
						"path":"scale"
					}
				},
				{
					"sampler":120,
					"target":{
						"node":33,
						"path":"translation"
					}
				},
				{
					"sampler":121,
					"target":{
						"node":33,
						"path":"rotation"
					}
				},
				{
					"sampler":122,
					"target":{
						"node":33,
						"path":"scale"
					}
				},
				{
					"sampler":123,
					"target":{
						"node":32,
						"path":"translation"
					}
				},
				{
					"sampler":124,
					"target":{
						"node":32,
						"path":"rotation"
					}
				},
				{
					"sampler":125,
					"target":{
						"node":32,
						"path":"scale"
					}
				},
				{
					"sampler":126,
					"target":{
						"node":31,
						"path":"translation"
					}
				},
				{
					"sampler":127,
					"target":{
						"node":31,
						"path":"rotation"
					}
				},
				{
					"sampler":128,
					"target":{
						"node":31,
						"path":"scale"
					}
				},
				{
					"sampler":129,
					"target":{
						"node":38,
						"path":"translation"
					}
				},
				{
					"sampler":130,
					"target":{
						"node":38,
						"path":"rotation"
					}
				},
				{
					"sampler":131,
					"target":{
						"node":38,
						"path":"scale"
					}
				},
				{
					"sampler":132,
					"target":{
						"node":37,
						"path":"translation"
					}
				},
				{
					"sampler":133,
					"target":{
						"node":37,
						"path":"rotation"
					}
				},
				{
					"sampler":134,
					"target":{
						"node":37,
						"path":"scale"
					}
				},
				{
					"sampler":135,
					"target":{
						"node":36,
						"path":"translation"
					}
				},
				{
					"sampler":136,
					"target":{
						"node":36,
						"path":"rotation"
					}
				},
				{
					"sampler":137,
					"target":{
						"node":36,
						"path":"scale"
					}
				},
				{
					"sampler":138,
					"target":{
						"node":35,
						"path":"translation"
					}
				},
				{
					"sampler":139,
					"target":{
						"node":35,
						"path":"rotation"
					}
				},
				{
					"sampler":140,
					"target":{
						"node":35,
						"path":"scale"
					}
				},
				{
					"sampler":141,
					"target":{
						"node":42,
						"path":"translation"
					}
				},
				{
					"sampler":142,
					"target":{
						"node":42,
						"path":"rotation"
					}
				},
				{
					"sampler":143,
					"target":{
						"node":42,
						"path":"scale"
					}
				},
				{
					"sampler":144,
					"target":{
						"node":41,
						"path":"translation"
					}
				},
				{
					"sampler":145,
					"target":{
						"node":41,
						"path":"rotation"
					}
				},
				{
					"sampler":146,
					"target":{
						"node":41,
						"path":"scale"
					}
				},
				{
					"sampler":147,
					"target":{
						"node":40,
						"path":"translation"
					}
				},
				{
					"sampler":148,
					"target":{
						"node":40,
						"path":"rotation"
					}
				},
				{
					"sampler":149,
					"target":{
						"node":40,
						"path":"scale"
					}
				},
				{
					"sampler":150,
					"target":{
						"node":39,
						"path":"translation"
					}
				},
				{
					"sampler":151,
					"target":{
						"node":39,
						"path":"rotation"
					}
				},
				{
					"sampler":152,
					"target":{
						"node":39,
						"path":"scale"
					}
				},
				{
					"sampler":153,
					"target":{
						"node":46,
						"path":"translation"
					}
				},
				{
					"sampler":154,
					"target":{
						"node":46,
						"path":"rotation"
					}
				},
				{
					"sampler":155,
					"target":{
						"node":46,
						"path":"scale"
					}
				},
				{
					"sampler":156,
					"target":{
						"node":45,
						"path":"translation"
					}
				},
				{
					"sampler":157,
					"target":{
						"node":45,
						"path":"rotation"
					}
				},
				{
					"sampler":158,
					"target":{
						"node":45,
						"path":"scale"
					}
				},
				{
					"sampler":159,
					"target":{
						"node":44,
						"path":"translation"
					}
				},
				{
					"sampler":160,
					"target":{
						"node":44,
						"path":"rotation"
					}
				},
				{
					"sampler":161,
					"target":{
						"node":44,
						"path":"scale"
					}
				},
				{
					"sampler":162,
					"target":{
						"node":43,
						"path":"translation"
					}
				},
				{
					"sampler":163,
					"target":{
						"node":43,
						"path":"rotation"
					}
				},
				{
					"sampler":164,
					"target":{
						"node":43,
						"path":"scale"
					}
				},
				{
					"sampler":165,
					"target":{
						"node":58,
						"path":"translation"
					}
				},
				{
					"sampler":166,
					"target":{
						"node":58,
						"path":"rotation"
					}
				},
				{
					"sampler":167,
					"target":{
						"node":58,
						"path":"scale"
					}
				},
				{
					"sampler":168,
					"target":{
						"node":57,
						"path":"translation"
					}
				},
				{
					"sampler":169,
					"target":{
						"node":57,
						"path":"rotation"
					}
				},
				{
					"sampler":170,
					"target":{
						"node":57,
						"path":"scale"
					}
				},
				{
					"sampler":171,
					"target":{
						"node":56,
						"path":"translation"
					}
				},
				{
					"sampler":172,
					"target":{
						"node":56,
						"path":"rotation"
					}
				},
				{
					"sampler":173,
					"target":{
						"node":56,
						"path":"scale"
					}
				},
				{
					"sampler":174,
					"target":{
						"node":55,
						"path":"translation"
					}
				},
				{
					"sampler":175,
					"target":{
						"node":55,
						"path":"rotation"
					}
				},
				{
					"sampler":176,
					"target":{
						"node":55,
						"path":"scale"
					}
				},
				{
					"sampler":177,
					"target":{
						"node":54,
						"path":"translation"
					}
				},
				{
					"sampler":178,
					"target":{
						"node":54,
						"path":"rotation"
					}
				},
				{
					"sampler":179,
					"target":{
						"node":54,
						"path":"scale"
					}
				},
				{
					"sampler":180,
					"target":{
						"node":63,
						"path":"translation"
					}
				},
				{
					"sampler":181,
					"target":{
						"node":63,
						"path":"rotation"
					}
				},
				{
					"sampler":182,
					"target":{
						"node":63,
						"path":"scale"
					}
				},
				{
					"sampler":183,
					"target":{
						"node":62,
						"path":"translation"
					}
				},
				{
					"sampler":184,
					"target":{
						"node":62,
						"path":"rotation"
					}
				},
				{
					"sampler":185,
					"target":{
						"node":62,
						"path":"scale"
					}
				},
				{
					"sampler":186,
					"target":{
						"node":61,
						"path":"translation"
					}
				},
				{
					"sampler":187,
					"target":{
						"node":61,
						"path":"rotation"
					}
				},
				{
					"sampler":188,
					"target":{
						"node":61,
						"path":"scale"
					}
				},
				{
					"sampler":189,
					"target":{
						"node":60,
						"path":"translation"
					}
				},
				{
					"sampler":190,
					"target":{
						"node":60,
						"path":"rotation"
					}
				},
				{
					"sampler":191,
					"target":{
						"node":60,
						"path":"scale"
					}
				},
				{
					"sampler":192,
					"target":{
						"node":59,
						"path":"translation"
					}
				},
				{
					"sampler":193,
					"target":{
						"node":59,
						"path":"rotation"
					}
				},
				{
					"sampler":194,
					"target":{
						"node":59,
						"path":"scale"
					}
				}
			],
			"name":"Armature|mixamo.com|Layer0",
			"samplers":[
				{
					"input":19,
					"interpolation":"LINEAR",
					"output":20
				},
				{
					"input":19,
					"interpolation":"LINEAR",
					"output":21
				},
				{
					"input":22,
					"interpolation":"STEP",
					"output":23
				},
				{
					"input":19,
					"interpolation":"LINEAR",
					"output":24
				},
				{
					"input":19,
					"interpolation":"LINEAR",
					"output":25
				},
				{
					"input":22,
					"interpolation":"STEP",
					"output":26
				},
				{
					"input":22,
					"interpolation":"LINEAR",
					"output":27
				},
				{
					"input":19,
					"interpolation":"LINEAR",
					"output":28
				},
				{
					"input":22,
					"interpolation":"LINEAR",
					"output":29
				},
				{
					"input":19,
					"interpolation":"LINEAR",
					"output":30
				},
				{
					"input":19,
					"interpolation":"LINEAR",
					"output":31
				},
				{
					"input":22,
					"interpolation":"LINEAR",
					"output":32
				},
				{
					"input":19,
					"interpolation":"LINEAR",
					"output":33
				},
				{
					"input":19,
					"interpolation":"LINEAR",
					"output":34
				},
				{
					"input":22,
					"interpolation":"LINEAR",
					"output":35
				},
				{
					"input":19,
					"interpolation":"LINEAR",
					"output":36
				},
				{
					"input":19,
					"interpolation":"LINEAR",
					"output":37
				},
				{
					"input":22,
					"interpolation":"STEP",
					"output":38
				},
				{
					"input":19,
					"interpolation":"LINEAR",
					"output":39
				},
				{
					"input":22,
					"interpolation":"STEP",
					"output":40
				},
				{
					"input":22,
					"interpolation":"STEP",
					"output":41
				},
				{
					"input":19,
					"interpolation":"LINEAR",
					"output":42
				},
				{
					"input":19,
					"interpolation":"LINEAR",
					"output":43
				},
				{
					"input":22,
					"interpolation":"STEP",
					"output":44
				},
				{
					"input":19,
					"interpolation":"LINEAR",
					"output":45
				},
				{
					"input":19,
					"interpolation":"LINEAR",
					"output":46
				},
				{
					"input":22,
					"interpolation":"LINEAR",
					"output":47
				},
				{
					"input":19,
					"interpolation":"LINEAR",
					"output":48
				},
				{
					"input":19,
					"interpolation":"LINEAR",
					"output":49
				},
				{
					"input":22,
					"interpolation":"LINEAR",
					"output":50
				},
				{
					"input":19,
					"interpolation":"LINEAR",
					"output":51
				},
				{
					"input":19,
					"interpolation":"LINEAR",
					"output":52
				},
				{
					"input":22,
					"interpolation":"STEP",
					"output":53
				},
				{
					"input":19,
					"interpolation":"LINEAR",
					"output":54
				},
				{
					"input":22,
					"interpolation":"LINEAR",
					"output":55
				},
				{
					"input":22,
					"interpolation":"STEP",
					"output":56
				},
				{
					"input":19,
					"interpolation":"LINEAR",
					"output":57
				},
				{
					"input":22,
					"interpolation":"LINEAR",
					"output":58
				},
				{
					"input":22,
					"interpolation":"STEP",
					"output":59
				},
				{
					"input":19,
					"interpolation":"LINEAR",
					"output":60
				},
				{
					"input":22,
					"interpolation":"LINEAR",
					"output":61
				},
				{
					"input":22,
					"interpolation":"STEP",
					"output":62
				},
				{
					"input":19,
					"interpolation":"LINEAR",
					"output":63
				},
				{
					"input":22,
					"interpolation":"STEP",
					"output":64
				},
				{
					"input":22,
					"interpolation":"STEP",
					"output":65
				},
				{
					"input":19,
					"interpolation":"LINEAR",
					"output":66
				},
				{
					"input":22,
					"interpolation":"LINEAR",
					"output":67
				},
				{
					"input":22,
					"interpolation":"LINEAR",
					"output":68
				},
				{
					"input":19,
					"interpolation":"LINEAR",
					"output":69
				},
				{
					"input":22,
					"interpolation":"LINEAR",
					"output":70
				},
				{
					"input":22,
					"interpolation":"LINEAR",
					"output":71
				},
				{
					"input":19,
					"interpolation":"LINEAR",
					"output":72
				},
				{
					"input":22,
					"interpolation":"LINEAR",
					"output":73
				},
				{
					"input":22,
					"interpolation":"STEP",
					"output":74
				},
				{
					"input":19,
					"interpolation":"LINEAR",
					"output":75
				},
				{
					"input":22,
					"interpolation":"STEP",
					"output":76
				},
				{
					"input":22,
					"interpolation":"STEP",
					"output":77
				},
				{
					"input":19,
					"interpolation":"LINEAR",
					"output":78
				},
				{
					"input":22,
					"interpolation":"LINEAR",
					"output":79
				},
				{
					"input":22,
					"interpolation":"LINEAR",
					"output":80
				},
				{
					"input":19,
					"interpolation":"LINEAR",
					"output":81
				},
				{
					"input":22,
					"interpolation":"LINEAR",
					"output":82
				},
				{
					"input":22,
					"interpolation":"LINEAR",
					"output":83
				},
				{
					"input":19,
					"interpolation":"LINEAR",
					"output":84
				},
				{
					"input":22,
					"interpolation":"LINEAR",
					"output":85
				},
				{
					"input":22,
					"interpolation":"STEP",
					"output":86
				},
				{
					"input":19,
					"interpolation":"LINEAR",
					"output":87
				},
				{
					"input":22,
					"interpolation":"STEP",
					"output":88
				},
				{
					"input":22,
					"interpolation":"STEP",
					"output":89
				},
				{
					"input":19,
					"interpolation":"LINEAR",
					"output":90
				},
				{
					"input":22,
					"interpolation":"LINEAR",
					"output":91
				},
				{
					"input":22,
					"interpolation":"STEP",
					"output":92
				},
				{
					"input":19,
					"interpolation":"LINEAR",
					"output":93
				},
				{
					"input":22,
					"interpolation":"LINEAR",
					"output":94
				},
				{
					"input":22,
					"interpolation":"LINEAR",
					"output":95
				},
				{
					"input":19,
					"interpolation":"LINEAR",
					"output":96
				},
				{
					"input":22,
					"interpolation":"LINEAR",
					"output":97
				},
				{
					"input":22,
					"interpolation":"LINEAR",
					"output":98
				},
				{
					"input":19,
					"interpolation":"LINEAR",
					"output":99
				},
				{
					"input":22,
					"interpolation":"STEP",
					"output":100
				},
				{
					"input":22,
					"interpolation":"STEP",
					"output":101
				},
				{
					"input":19,
					"interpolation":"LINEAR",
					"output":102
				},
				{
					"input":22,
					"interpolation":"LINEAR",
					"output":103
				},
				{
					"input":22,
					"interpolation":"STEP",
					"output":104
				},
				{
					"input":19,
					"interpolation":"LINEAR",
					"output":105
				},
				{
					"input":22,
					"interpolation":"LINEAR",
					"output":106
				},
				{
					"input":22,
					"interpolation":"STEP",
					"output":107
				},
				{
					"input":19,
					"interpolation":"LINEAR",
					"output":108
				},
				{
					"input":22,
					"interpolation":"LINEAR",
					"output":109
				},
				{
					"input":22,
					"interpolation":"LINEAR",
					"output":110
				},
				{
					"input":22,
					"interpolation":"STEP",
					"output":111
				},
				{
					"input":22,
					"interpolation":"STEP",
					"output":112
				},
				{
					"input":22,
					"interpolation":"STEP",
					"output":113
				},
				{
					"input":19,
					"interpolation":"LINEAR",
					"output":114
				},
				{
					"input":19,
					"interpolation":"LINEAR",
					"output":115
				},
				{
					"input":22,
					"interpolation":"LINEAR",
					"output":116
				},
				{
					"input":19,
					"interpolation":"LINEAR",
					"output":117
				},
				{
					"input":19,
					"interpolation":"LINEAR",
					"output":118
				},
				{
					"input":22,
					"interpolation":"LINEAR",
					"output":119
				},
				{
					"input":19,
					"interpolation":"LINEAR",
					"output":120
				},
				{
					"input":19,
					"interpolation":"LINEAR",
					"output":121
				},
				{
					"input":22,
					"interpolation":"LINEAR",
					"output":122
				},
				{
					"input":19,
					"interpolation":"LINEAR",
					"output":123
				},
				{
					"input":19,
					"interpolation":"LINEAR",
					"output":124
				},
				{
					"input":22,
					"interpolation":"LINEAR",
					"output":125
				},
				{
					"input":22,
					"interpolation":"LINEAR",
					"output":126
				},
				{
					"input":22,
					"interpolation":"LINEAR",
					"output":127
				},
				{
					"input":22,
					"interpolation":"STEP",
					"output":128
				},
				{
					"input":19,
					"interpolation":"LINEAR",
					"output":129
				},
				{
					"input":22,
					"interpolation":"LINEAR",
					"output":130
				},
				{
					"input":22,
					"interpolation":"STEP",
					"output":131
				},
				{
					"input":19,
					"interpolation":"LINEAR",
					"output":132
				},
				{
					"input":22,
					"interpolation":"LINEAR",
					"output":133
				},
				{
					"input":22,
					"interpolation":"STEP",
					"output":134
				},
				{
					"input":22,
					"interpolation":"STEP",
					"output":135
				},
				{
					"input":22,
					"interpolation":"STEP",
					"output":136
				},
				{
					"input":22,
					"interpolation":"STEP",
					"output":137
				},
				{
					"input":22,
					"interpolation":"LINEAR",
					"output":138
				},
				{
					"input":22,
					"interpolation":"LINEAR",
					"output":139
				},
				{
					"input":22,
					"interpolation":"STEP",
					"output":140
				},
				{
					"input":19,
					"interpolation":"LINEAR",
					"output":141
				},
				{
					"input":22,
					"interpolation":"LINEAR",
					"output":142
				},
				{
					"input":22,
					"interpolation":"STEP",
					"output":143
				},
				{
					"input":19,
					"interpolation":"LINEAR",
					"output":144
				},
				{
					"input":22,
					"interpolation":"LINEAR",
					"output":145
				},
				{
					"input":22,
					"interpolation":"STEP",
					"output":146
				},
				{
					"input":22,
					"interpolation":"STEP",
					"output":147
				},
				{
					"input":22,
					"interpolation":"STEP",
					"output":148
				},
				{
					"input":22,
					"interpolation":"STEP",
					"output":149
				},
				{
					"input":22,
					"interpolation":"LINEAR",
					"output":150
				},
				{
					"input":22,
					"interpolation":"LINEAR",
					"output":151
				},
				{
					"input":22,
					"interpolation":"STEP",
					"output":152
				},
				{
					"input":19,
					"interpolation":"LINEAR",
					"output":153
				},
				{
					"input":22,
					"interpolation":"LINEAR",
					"output":154
				},
				{
					"input":22,
					"interpolation":"STEP",
					"output":155
				},
				{
					"input":19,
					"interpolation":"LINEAR",
					"output":156
				},
				{
					"input":22,
					"interpolation":"LINEAR",
					"output":157
				},
				{
					"input":22,
					"interpolation":"LINEAR",
					"output":158
				},
				{
					"input":22,
					"interpolation":"STEP",
					"output":159
				},
				{
					"input":22,
					"interpolation":"STEP",
					"output":160
				},
				{
					"input":22,
					"interpolation":"STEP",
					"output":161
				},
				{
					"input":19,
					"interpolation":"LINEAR",
					"output":162
				},
				{
					"input":22,
					"interpolation":"LINEAR",
					"output":163
				},
				{
					"input":22,
					"interpolation":"STEP",
					"output":164
				},
				{
					"input":19,
					"interpolation":"LINEAR",
					"output":165
				},
				{
					"input":22,
					"interpolation":"LINEAR",
					"output":166
				},
				{
					"input":22,
					"interpolation":"LINEAR",
					"output":167
				},
				{
					"input":19,
					"interpolation":"LINEAR",
					"output":168
				},
				{
					"input":22,
					"interpolation":"LINEAR",
					"output":169
				},
				{
					"input":22,
					"interpolation":"STEP",
					"output":170
				},
				{
					"input":19,
					"interpolation":"LINEAR",
					"output":171
				},
				{
					"input":22,
					"interpolation":"STEP",
					"output":172
				},
				{
					"input":22,
					"interpolation":"STEP",
					"output":173
				},
				{
					"input":19,
					"interpolation":"LINEAR",
					"output":174
				},
				{
					"input":22,
					"interpolation":"LINEAR",
					"output":175
				},
				{
					"input":22,
					"interpolation":"STEP",
					"output":176
				},
				{
					"input":19,
					"interpolation":"LINEAR",
					"output":177
				},
				{
					"input":22,
					"interpolation":"LINEAR",
					"output":178
				},
				{
					"input":22,
					"interpolation":"STEP",
					"output":179
				},
				{
					"input":22,
					"interpolation":"LINEAR",
					"output":180
				},
				{
					"input":22,
					"interpolation":"LINEAR",
					"output":181
				},
				{
					"input":22,
					"interpolation":"STEP",
					"output":182
				},
				{
					"input":19,
					"interpolation":"LINEAR",
					"output":183
				},
				{
					"input":22,
					"interpolation":"STEP",
					"output":184
				},
				{
					"input":22,
					"interpolation":"STEP",
					"output":185
				},
				{
					"input":19,
					"interpolation":"LINEAR",
					"output":186
				},
				{
					"input":19,
					"interpolation":"LINEAR",
					"output":187
				},
				{
					"input":22,
					"interpolation":"LINEAR",
					"output":188
				},
				{
					"input":19,
					"interpolation":"LINEAR",
					"output":189
				},
				{
					"input":19,
					"interpolation":"LINEAR",
					"output":190
				},
				{
					"input":22,
					"interpolation":"STEP",
					"output":191
				},
				{
					"input":22,
					"interpolation":"LINEAR",
					"output":192
				},
				{
					"input":19,
					"interpolation":"LINEAR",
					"output":193
				},
				{
					"input":22,
					"interpolation":"STEP",
					"output":194
				},
				{
					"input":22,
					"interpolation":"LINEAR",
					"output":195
				},
				{
					"input":19,
					"interpolation":"LINEAR",
					"output":196
				},
				{
					"input":22,
					"interpolation":"LINEAR",
					"output":197
				},
				{
					"input":22,
					"interpolation":"STEP",
					"output":198
				},
				{
					"input":22,
					"interpolation":"STEP",
					"output":199
				},
				{
					"input":22,
					"interpolation":"STEP",
					"output":200
				},
				{
					"input":19,
					"interpolation":"LINEAR",
					"output":201
				},
				{
					"input":19,
					"interpolation":"LINEAR",
					"output":202
				},
				{
					"input":22,
					"interpolation":"STEP",
					"output":203
				},
				{
					"input":19,
					"interpolation":"LINEAR",
					"output":204
				},
				{
					"input":19,
					"interpolation":"LINEAR",
					"output":205
				},
				{
					"input":22,
					"interpolation":"LINEAR",
					"output":206
				},
				{
					"input":19,
					"interpolation":"LINEAR",
					"output":207
				},
				{
					"input":19,
					"interpolation":"LINEAR",
					"output":208
				},
				{
					"input":22,
					"interpolation":"LINEAR",
					"output":209
				},
				{
					"input":19,
					"interpolation":"LINEAR",
					"output":210
				},
				{
					"input":19,
					"interpolation":"LINEAR",
					"output":211
				},
				{
					"input":22,
					"interpolation":"LINEAR",
					"output":212
				},
				{
					"input":19,
					"interpolation":"LINEAR",
					"output":213
				},
				{
					"input":22,
					"interpolation":"STEP",
					"output":214
				},
				{
					"input":22,
					"interpolation":"STEP",
					"output":215
				}
			]
		}
	],
	"materials":[
		{
			"doubleSided":true,
			"name":"5_hair_1_0_0",
			"pbrMetallicRoughness":{
				"baseColorTexture":{
					"index":0
				}
			}
		},
		{
			"doubleSided":true,
			"name":"5_body_1_0_0",
			"pbrMetallicRoughness":{
				"baseColorTexture":{
					"index":1
				}
			}
		},
		{
			"doubleSided":true,
			"name":"5_face_1_0_0",
			"pbrMetallicRoughness":{
				"baseColorTexture":{
					"index":2
				}
			}
		}
	],
	"meshes":[
		{
			"name":"Object_2",
			"primitives":[
				{
					"attributes":{
						"POSITION":0,
						"NORMAL":1,
						"TEXCOORD_0":2,
						"JOINTS_0":3,
						"WEIGHTS_0":4
					},
					"indices":5,
					"material":0
				}
			]
		},
		{
			"name":"Object_0",
			"primitives":[
				{
					"attributes":{
						"POSITION":7,
						"NORMAL":8,
						"TEXCOORD_0":9,
						"JOINTS_0":10,
						"WEIGHTS_0":11
					},
					"indices":12,
					"material":1
				}
			]
		},
		{
			"name":"Object_1",
			"primitives":[
				{
					"attributes":{
						"POSITION":13,
						"NORMAL":14,
						"TEXCOORD_0":15,
						"JOINTS_0":16,
						"WEIGHTS_0":17
					},
					"indices":18,
					"material":2
				}
			]
		}
	],
	"textures":[
		{
			"sampler":0,
			"source":0
		},
		{
			"sampler":0,
			"source":1
		},
		{
			"sampler":0,
			"source":2
		}
	],
	"images":[
		{
			"mimeType":"image/png",
			"name":"5_hair_1_0_0_baseColor",
			"uri":"5_hair_1_0_0_baseColor.png"
		},
		{
			"mimeType":"image/png",
			"name":"5_body_1_0_0_baseColor",
			"uri":"5_body_1_0_0_baseColor.png"
		},
		{
			"mimeType":"image/png",
			"name":"5_face_1_0_0_baseColor",
			"uri":"5_face_1_0_0_baseColor.png"
		}
	],
	"skins":[
		{
			"inverseBindMatrices":6,
			"joints":[
				64,
				53,
				52,
				51,
				2,
				1,
				0,
				26,
				25,
				24,
				23,
				6,
				5,
				4,
				3,
				10,
				9,
				8,
				7,
				14,
				13,
				12,
				11,
				18,
				17,
				16,
				15,
				22,
				21,
				20,
				19,
				50,
				49,
				48,
				47,
				30,
				29,
				28,
				27,
				34,
				33,
				32,
				31,
				38,
				37,
				36,
				35,
				42,
				41,
				40,
				39,
				46,
				45,
				44,
				43,
				58,
				57,
				56,
				55,
				54,
				63,
				62,
				61,
				60,
				59
			],
			"name":"Armature"
		}
	],
	"accessors":[
		{
			"bufferView":0,
			"componentType":5126,
			"count":3386,
			"max":[
				0.2495252639055252,
				4.233094215393066,
				0.2967641353607178
			],
			"min":[
				-0.24952517449855804,
				3.707517147064209,
				-0.25855061411857605
			],
			"type":"VEC3"
		},
		{
			"bufferView":1,
			"componentType":5126,
			"count":3386,
			"type":"VEC3"
		},
		{
			"bufferView":2,
			"componentType":5126,
			"count":3386,
			"type":"VEC2"
		},
		{
			"bufferView":3,
			"componentType":5121,
			"count":3386,
			"type":"VEC4"
		},
		{
			"bufferView":4,
			"componentType":5126,
			"count":3386,
			"type":"VEC4"
		},
		{
			"bufferView":5,
			"componentType":5123,
			"count":10044,
			"type":"SCALAR"
		},
		{
			"bufferView":6,
			"componentType":5126,
			"count":65,
			"type":"MAT4"
		},
		{
			"bufferView":7,
			"componentType":5126,
			"count":5870,
			"max":[
				2.41607928276062,
				3.7632389068603516,
				0.7377939224243164
			],
			"min":[
				-2.4160799980163574,
				0.0004123197286389768,
				-0.3834623098373413
			],
			"type":"VEC3"
		},
		{
			"bufferView":8,
			"componentType":5126,
			"count":5870,
			"type":"VEC3"
		},
		{
			"bufferView":9,
			"componentType":5126,
			"count":5870,
			"type":"VEC2"
		},
		{
			"bufferView":10,
			"componentType":5121,
			"count":5870,
			"type":"VEC4"
		},
		{
			"bufferView":11,
			"componentType":5126,
			"count":5870,
			"type":"VEC4"
		},
		{
			"bufferView":12,
			"componentType":5123,
			"count":28482,
			"type":"SCALAR"
		},
		{
			"bufferView":13,
			"componentType":5126,
			"count":3131,
			"max":[
				0.2410089671611786,
				4.076084136962891,
				0.3399103283882141
			],
			"min":[
				-0.24100887775421143,
				3.5218849182128906,
				-0.18047073483467102
			],
			"type":"VEC3"
		},
		{
			"bufferView":14,
			"componentType":5126,
			"count":3131,
			"type":"VEC3"
		},
		{
			"bufferView":15,
			"componentType":5126,
			"count":3131,
			"type":"VEC2"
		},
		{
			"bufferView":16,
			"componentType":5121,
			"count":3131,
			"type":"VEC4"
		},
		{
			"bufferView":17,
			"componentType":5126,
			"count":3131,
			"type":"VEC4"
		},
		{
			"bufferView":18,
			"componentType":5123,
			"count":14790,
			"type":"SCALAR"
		},
		{
			"bufferView":19,
			"componentType":5126,
			"count":59,
			"max":[
				1.9666666666666666
			],
			"min":[
				0.03333333333333333
			],
			"type":"SCALAR"
		},
		{
			"bufferView":20,
			"componentType":5126,
			"count":59,
			"type":"VEC3"
		},
		{
			"bufferView":21,
			"componentType":5126,
			"count":59,
			"type":"VEC4"
		},
		{
			"bufferView":22,
			"componentType":5126,
			"count":2,
			"max":[
				1.9666666666666666
			],
			"min":[
				0.03333333333333333
			],
			"type":"SCALAR"
		},
		{
			"bufferView":23,
			"componentType":5126,
			"count":2,
			"type":"VEC3"
		},
		{
			"bufferView":24,
			"componentType":5126,
			"count":59,
			"type":"VEC3"
		},
		{
			"bufferView":25,
			"componentType":5126,
			"count":59,
			"type":"VEC4"
		},
		{
			"bufferView":26,
			"componentType":5126,
			"count":2,
			"type":"VEC3"
		},
		{
			"bufferView":27,
			"componentType":5126,
			"count":2,
			"type":"VEC3"
		},
		{
			"bufferView":28,
			"componentType":5126,
			"count":59,
			"type":"VEC4"
		},
		{
			"bufferView":29,
			"componentType":5126,
			"count":2,
			"type":"VEC3"
		},
		{
			"bufferView":30,
			"componentType":5126,
			"count":59,
			"type":"VEC3"
		},
		{
			"bufferView":31,
			"componentType":5126,
			"count":59,
			"type":"VEC4"
		},
		{
			"bufferView":32,
			"componentType":5126,
			"count":2,
			"type":"VEC3"
		},
		{
			"bufferView":33,
			"componentType":5126,
			"count":59,
			"type":"VEC3"
		},
		{
			"bufferView":34,
			"componentType":5126,
			"count":59,
			"type":"VEC4"
		},
		{
			"bufferView":35,
			"componentType":5126,
			"count":2,
			"type":"VEC3"
		},
		{
			"bufferView":36,
			"componentType":5126,
			"count":59,
			"type":"VEC3"
		},
		{
			"bufferView":37,
			"componentType":5126,
			"count":59,
			"type":"VEC4"
		},
		{
			"bufferView":38,
			"componentType":5126,
			"count":2,
			"type":"VEC3"
		},
		{
			"bufferView":39,
			"componentType":5126,
			"count":59,
			"type":"VEC3"
		},
		{
			"bufferView":40,
			"componentType":5126,
			"count":2,
			"type":"VEC4"
		},
		{
			"bufferView":41,
			"componentType":5126,
			"count":2,
			"type":"VEC3"
		},
		{
			"bufferView":42,
			"componentType":5126,
			"count":59,
			"type":"VEC3"
		},
		{
			"bufferView":43,
			"componentType":5126,
			"count":59,
			"type":"VEC4"
		},
		{
			"bufferView":44,
			"componentType":5126,
			"count":2,
			"type":"VEC3"
		},
		{
			"bufferView":45,
			"componentType":5126,
			"count":59,
			"type":"VEC3"
		},
		{
			"bufferView":46,
			"componentType":5126,
			"count":59,
			"type":"VEC4"
		},
		{
			"bufferView":47,
			"componentType":5126,
			"count":2,
			"type":"VEC3"
		},
		{
			"bufferView":48,
			"componentType":5126,
			"count":59,
			"type":"VEC3"
		},
		{
			"bufferView":49,
			"componentType":5126,
			"count":59,
			"type":"VEC4"
		},
		{
			"bufferView":50,
			"componentType":5126,
			"count":2,
			"type":"VEC3"
		},
		{
			"bufferView":51,
			"componentType":5126,
			"count":59,
			"type":"VEC3"
		},
		{
			"bufferView":52,
			"componentType":5126,
			"count":59,
			"type":"VEC4"
		},
		{
			"bufferView":53,
			"componentType":5126,
			"count":2,
			"type":"VEC3"
		},
		{
			"bufferView":54,
			"componentType":5126,
			"count":59,
			"type":"VEC3"
		},
		{
			"bufferView":55,
			"componentType":5126,
			"count":2,
			"type":"VEC4"
		},
		{
			"bufferView":56,
			"componentType":5126,
			"count":2,
			"type":"VEC3"
		},
		{
			"bufferView":57,
			"componentType":5126,
			"count":59,
			"type":"VEC3"
		},
		{
			"bufferView":58,
			"componentType":5126,
			"count":2,
			"type":"VEC4"
		},
		{
			"bufferView":59,
			"componentType":5126,
			"count":2,
			"type":"VEC3"
		},
		{
			"bufferView":60,
			"componentType":5126,
			"count":59,
			"type":"VEC3"
		},
		{
			"bufferView":61,
			"componentType":5126,
			"count":2,
			"type":"VEC4"
		},
		{
			"bufferView":62,
			"componentType":5126,
			"count":2,
			"type":"VEC3"
		},
		{
			"bufferView":63,
			"componentType":5126,
			"count":59,
			"type":"VEC3"
		},
		{
			"bufferView":64,
			"componentType":5126,
			"count":2,
			"type":"VEC4"
		},
		{
			"bufferView":65,
			"componentType":5126,
			"count":2,
			"type":"VEC3"
		},
		{
			"bufferView":66,
			"componentType":5126,
			"count":59,
			"type":"VEC3"
		},
		{
			"bufferView":67,
			"componentType":5126,
			"count":2,
			"type":"VEC4"
		},
		{
			"bufferView":68,
			"componentType":5126,
			"count":2,
			"type":"VEC3"
		},
		{
			"bufferView":69,
			"componentType":5126,
			"count":59,
			"type":"VEC3"
		},
		{
			"bufferView":70,
			"componentType":5126,
			"count":2,
			"type":"VEC4"
		},
		{
			"bufferView":71,
			"componentType":5126,
			"count":2,
			"type":"VEC3"
		},
		{
			"bufferView":72,
			"componentType":5126,
			"count":59,
			"type":"VEC3"
		},
		{
			"bufferView":73,
			"componentType":5126,
			"count":2,
			"type":"VEC4"
		},
		{
			"bufferView":74,
			"componentType":5126,
			"count":2,
			"type":"VEC3"
		},
		{
			"bufferView":75,
			"componentType":5126,
			"count":59,
			"type":"VEC3"
		},
		{
			"bufferView":76,
			"componentType":5126,
			"count":2,
			"type":"VEC4"
		},
		{
			"bufferView":77,
			"componentType":5126,
			"count":2,
			"type":"VEC3"
		},
		{
			"bufferView":78,
			"componentType":5126,
			"count":59,
			"type":"VEC3"
		},
		{
			"bufferView":79,
			"componentType":5126,
			"count":2,
			"type":"VEC4"
		},
		{
			"bufferView":80,
			"componentType":5126,
			"count":2,
			"type":"VEC3"
		},
		{
			"bufferView":81,
			"componentType":5126,
			"count":59,
			"type":"VEC3"
		},
		{
			"bufferView":82,
			"componentType":5126,
			"count":2,
			"type":"VEC4"
		},
		{
			"bufferView":83,
			"componentType":5126,
			"count":2,
			"type":"VEC3"
		},
		{
			"bufferView":84,
			"componentType":5126,
			"count":59,
			"type":"VEC3"
		},
		{
			"bufferView":85,
			"componentType":5126,
			"count":2,
			"type":"VEC4"
		},
		{
			"bufferView":86,
			"componentType":5126,
			"count":2,
			"type":"VEC3"
		},
		{
			"bufferView":87,
			"componentType":5126,
			"count":59,
			"type":"VEC3"
		},
		{
			"bufferView":88,
			"componentType":5126,
			"count":2,
			"type":"VEC4"
		},
		{
			"bufferView":89,
			"componentType":5126,
			"count":2,
			"type":"VEC3"
		},
		{
			"bufferView":90,
			"componentType":5126,
			"count":59,
			"type":"VEC3"
		},
		{
			"bufferView":91,
			"componentType":5126,
			"count":2,
			"type":"VEC4"
		},
		{
			"bufferView":92,
			"componentType":5126,
			"count":2,
			"type":"VEC3"
		},
		{
			"bufferView":93,
			"componentType":5126,
			"count":59,
			"type":"VEC3"
		},
		{
			"bufferView":94,
			"componentType":5126,
			"count":2,
			"type":"VEC4"
		},
		{
			"bufferView":95,
			"componentType":5126,
			"count":2,
			"type":"VEC3"
		},
		{
			"bufferView":96,
			"componentType":5126,
			"count":59,
			"type":"VEC3"
		},
		{
			"bufferView":97,
			"componentType":5126,
			"count":2,
			"type":"VEC4"
		},
		{
			"bufferView":98,
			"componentType":5126,
			"count":2,
			"type":"VEC3"
		},
		{
			"bufferView":99,
			"componentType":5126,
			"count":59,
			"type":"VEC3"
		},
		{
			"bufferView":100,
			"componentType":5126,
			"count":2,
			"type":"VEC4"
		},
		{
			"bufferView":101,
			"componentType":5126,
			"count":2,
			"type":"VEC3"
		},
		{
			"bufferView":102,
			"componentType":5126,
			"count":59,
			"type":"VEC3"
		},
		{
			"bufferView":103,
			"componentType":5126,
			"count":2,
			"type":"VEC4"
		},
		{
			"bufferView":104,
			"componentType":5126,
			"count":2,
			"type":"VEC3"
		},
		{
			"bufferView":105,
			"componentType":5126,
			"count":59,
			"type":"VEC3"
		},
		{
			"bufferView":106,
			"componentType":5126,
			"count":2,
			"type":"VEC4"
		},
		{
			"bufferView":107,
			"componentType":5126,
			"count":2,
			"type":"VEC3"
		},
		{
			"bufferView":108,
			"componentType":5126,
			"count":59,
			"type":"VEC3"
		},
		{
			"bufferView":109,
			"componentType":5126,
			"count":2,
			"type":"VEC4"
		},
		{
			"bufferView":110,
			"componentType":5126,
			"count":2,
			"type":"VEC3"
		},
		{
			"bufferView":111,
			"componentType":5126,
			"count":2,
			"type":"VEC3"
		},
		{
			"bufferView":112,
			"componentType":5126,
			"count":2,
			"type":"VEC4"
		},
		{
			"bufferView":113,
			"componentType":5126,
			"count":2,
			"type":"VEC3"
		},
		{
			"bufferView":114,
			"componentType":5126,
			"count":59,
			"type":"VEC3"
		},
		{
			"bufferView":115,
			"componentType":5126,
			"count":59,
			"type":"VEC4"
		},
		{
			"bufferView":116,
			"componentType":5126,
			"count":2,
			"type":"VEC3"
		},
		{
			"bufferView":117,
			"componentType":5126,
			"count":59,
			"type":"VEC3"
		},
		{
			"bufferView":118,
			"componentType":5126,
			"count":59,
			"type":"VEC4"
		},
		{
			"bufferView":119,
			"componentType":5126,
			"count":2,
			"type":"VEC3"
		},
		{
			"bufferView":120,
			"componentType":5126,
			"count":59,
			"type":"VEC3"
		},
		{
			"bufferView":121,
			"componentType":5126,
			"count":59,
			"type":"VEC4"
		},
		{
			"bufferView":122,
			"componentType":5126,
			"count":2,
			"type":"VEC3"
		},
		{
			"bufferView":123,
			"componentType":5126,
			"count":59,
			"type":"VEC3"
		},
		{
			"bufferView":124,
			"componentType":5126,
			"count":59,
			"type":"VEC4"
		},
		{
			"bufferView":125,
			"componentType":5126,
			"count":2,
			"type":"VEC3"
		},
		{
			"bufferView":126,
			"componentType":5126,
			"count":2,
			"type":"VEC3"
		},
		{
			"bufferView":127,
			"componentType":5126,
			"count":2,
			"type":"VEC4"
		},
		{
			"bufferView":128,
			"componentType":5126,
			"count":2,
			"type":"VEC3"
		},
		{
			"bufferView":129,
			"componentType":5126,
			"count":59,
			"type":"VEC3"
		},
		{
			"bufferView":130,
			"componentType":5126,
			"count":2,
			"type":"VEC4"
		},
		{
			"bufferView":131,
			"componentType":5126,
			"count":2,
			"type":"VEC3"
		},
		{
			"bufferView":132,
			"componentType":5126,
			"count":59,
			"type":"VEC3"
		},
		{
			"bufferView":133,
			"componentType":5126,
			"count":2,
			"type":"VEC4"
		},
		{
			"bufferView":134,
			"componentType":5126,
			"count":2,
			"type":"VEC3"
		},
		{
			"bufferView":135,
			"componentType":5126,
			"count":2,
			"type":"VEC3"
		},
		{
			"bufferView":136,
			"componentType":5126,
			"count":2,
			"type":"VEC4"
		},
		{
			"bufferView":137,
			"componentType":5126,
			"count":2,
			"type":"VEC3"
		},
		{
			"bufferView":138,
			"componentType":5126,
			"count":2,
			"type":"VEC3"
		},
		{
			"bufferView":139,
			"componentType":5126,
			"count":2,
			"type":"VEC4"
		},
		{
			"bufferView":140,
			"componentType":5126,
			"count":2,
			"type":"VEC3"
		},
		{
			"bufferView":141,
			"componentType":5126,
			"count":59,
			"type":"VEC3"
		},
		{
			"bufferView":142,
			"componentType":5126,
			"count":2,
			"type":"VEC4"
		},
		{
			"bufferView":143,
			"componentType":5126,
			"count":2,
			"type":"VEC3"
		},
		{
			"bufferView":144,
			"componentType":5126,
			"count":59,
			"type":"VEC3"
		},
		{
			"bufferView":145,
			"componentType":5126,
			"count":2,
			"type":"VEC4"
		},
		{
			"bufferView":146,
			"componentType":5126,
			"count":2,
			"type":"VEC3"
		},
		{
			"bufferView":147,
			"componentType":5126,
			"count":2,
			"type":"VEC3"
		},
		{
			"bufferView":148,
			"componentType":5126,
			"count":2,
			"type":"VEC4"
		},
		{
			"bufferView":149,
			"componentType":5126,
			"count":2,
			"type":"VEC3"
		},
		{
			"bufferView":150,
			"componentType":5126,
			"count":2,
			"type":"VEC3"
		},
		{
			"bufferView":151,
			"componentType":5126,
			"count":2,
			"type":"VEC4"
		},
		{
			"bufferView":152,
			"componentType":5126,
			"count":2,
			"type":"VEC3"
		},
		{
			"bufferView":153,
			"componentType":5126,
			"count":59,
			"type":"VEC3"
		},
		{
			"bufferView":154,
			"componentType":5126,
			"count":2,
			"type":"VEC4"
		},
		{
			"bufferView":155,
			"componentType":5126,
			"count":2,
			"type":"VEC3"
		},
		{
			"bufferView":156,
			"componentType":5126,
			"count":59,
			"type":"VEC3"
		},
		{
			"bufferView":157,
			"componentType":5126,
			"count":2,
			"type":"VEC4"
		},
		{
			"bufferView":158,
			"componentType":5126,
			"count":2,
			"type":"VEC3"
		},
		{
			"bufferView":159,
			"componentType":5126,
			"count":2,
			"type":"VEC3"
		},
		{
			"bufferView":160,
			"componentType":5126,
			"count":2,
			"type":"VEC4"
		},
		{
			"bufferView":161,
			"componentType":5126,
			"count":2,
			"type":"VEC3"
		},
		{
			"bufferView":162,
			"componentType":5126,
			"count":59,
			"type":"VEC3"
		},
		{
			"bufferView":163,
			"componentType":5126,
			"count":2,
			"type":"VEC4"
		},
		{
			"bufferView":164,
			"componentType":5126,
			"count":2,
			"type":"VEC3"
		},
		{
			"bufferView":165,
			"componentType":5126,
			"count":59,
			"type":"VEC3"
		},
		{
			"bufferView":166,
			"componentType":5126,
			"count":2,
			"type":"VEC4"
		},
		{
			"bufferView":167,
			"componentType":5126,
			"count":2,
			"type":"VEC3"
		},
		{
			"bufferView":168,
			"componentType":5126,
			"count":59,
			"type":"VEC3"
		},
		{
			"bufferView":169,
			"componentType":5126,
			"count":2,
			"type":"VEC4"
		},
		{
			"bufferView":170,
			"componentType":5126,
			"count":2,
			"type":"VEC3"
		},
		{
			"bufferView":171,
			"componentType":5126,
			"count":59,
			"type":"VEC3"
		},
		{
			"bufferView":172,
			"componentType":5126,
			"count":2,
			"type":"VEC4"
		},
		{
			"bufferView":173,
			"componentType":5126,
			"count":2,
			"type":"VEC3"
		},
		{
			"bufferView":174,
			"componentType":5126,
			"count":59,
			"type":"VEC3"
		},
		{
			"bufferView":175,
			"componentType":5126,
			"count":2,
			"type":"VEC4"
		},
		{
			"bufferView":176,
			"componentType":5126,
			"count":2,
			"type":"VEC3"
		},
		{
			"bufferView":177,
			"componentType":5126,
			"count":59,
			"type":"VEC3"
		},
		{
			"bufferView":178,
			"componentType":5126,
			"count":2,
			"type":"VEC4"
		},
		{
			"bufferView":179,
			"componentType":5126,
			"count":2,
			"type":"VEC3"
		},
		{
			"bufferView":180,
			"componentType":5126,
			"count":2,
			"type":"VEC3"
		},
		{
			"bufferView":181,
			"componentType":5126,
			"count":2,
			"type":"VEC4"
		},
		{
			"bufferView":182,
			"componentType":5126,
			"count":2,
			"type":"VEC3"
		},
		{
			"bufferView":183,
			"componentType":5126,
			"count":59,
			"type":"VEC3"
		},
		{
			"bufferView":184,
			"componentType":5126,
			"count":2,
			"type":"VEC4"
		},
		{
			"bufferView":185,
			"componentType":5126,
			"count":2,
			"type":"VEC3"
		},
		{
			"bufferView":186,
			"componentType":5126,
			"count":59,
			"type":"VEC3"
		},
		{
			"bufferView":187,
			"componentType":5126,
			"count":59,
			"type":"VEC4"
		},
		{
			"bufferView":188,
			"componentType":5126,
			"count":2,
			"type":"VEC3"
		},
		{
			"bufferView":189,
			"componentType":5126,
			"count":59,
			"type":"VEC3"
		},
		{
			"bufferView":190,
			"componentType":5126,
			"count":59,
			"type":"VEC4"
		},
		{
			"bufferView":191,
			"componentType":5126,
			"count":2,
			"type":"VEC3"
		},
		{
			"bufferView":192,
			"componentType":5126,
			"count":2,
			"type":"VEC3"
		},
		{
			"bufferView":193,
			"componentType":5126,
			"count":59,
			"type":"VEC4"
		},
		{
			"bufferView":194,
			"componentType":5126,
			"count":2,
			"type":"VEC3"
		},
		{
			"bufferView":195,
			"componentType":5126,
			"count":2,
			"type":"VEC3"
		},
		{
			"bufferView":196,
			"componentType":5126,
			"count":59,
			"type":"VEC4"
		},
		{
			"bufferView":197,
			"componentType":5126,
			"count":2,
			"type":"VEC3"
		},
		{
			"bufferView":198,
			"componentType":5126,
			"count":2,
			"type":"VEC3"
		},
		{
			"bufferView":199,
			"componentType":5126,
			"count":2,
			"type":"VEC4"
		},
		{
			"bufferView":200,
			"componentType":5126,
			"count":2,
			"type":"VEC3"
		},
		{
			"bufferView":201,
			"componentType":5126,
			"count":59,
			"type":"VEC3"
		},
		{
			"bufferView":202,
			"componentType":5126,
			"count":59,
			"type":"VEC4"
		},
		{
			"bufferView":203,
			"componentType":5126,
			"count":2,
			"type":"VEC3"
		},
		{
			"bufferView":204,
			"componentType":5126,
			"count":59,
			"type":"VEC3"
		},
		{
			"bufferView":205,
			"componentType":5126,
			"count":59,
			"type":"VEC4"
		},
		{
			"bufferView":206,
			"componentType":5126,
			"count":2,
			"type":"VEC3"
		},
		{
			"bufferView":207,
			"componentType":5126,
			"count":59,
			"type":"VEC3"
		},
		{
			"bufferView":208,
			"componentType":5126,
			"count":59,
			"type":"VEC4"
		},
		{
			"bufferView":209,
			"componentType":5126,
			"count":2,
			"type":"VEC3"
		},
		{
			"bufferView":210,
			"componentType":5126,
			"count":59,
			"type":"VEC3"
		},
		{
			"bufferView":211,
			"componentType":5126,
			"count":59,
			"type":"VEC4"
		},
		{
			"bufferView":212,
			"componentType":5126,
			"count":2,
			"type":"VEC3"
		},
		{
			"bufferView":213,
			"componentType":5126,
			"count":59,
			"type":"VEC3"
		},
		{
			"bufferView":214,
			"componentType":5126,
			"count":2,
			"type":"VEC4"
		},
		{
			"bufferView":215,
			"componentType":5126,
			"count":2,
			"type":"VEC3"
		}
	],
	"bufferViews":[
		{
			"buffer":0,
			"byteLength":40632,
			"byteOffset":0,
			"target":34962
		},
		{
			"buffer":0,
			"byteLength":40632,
			"byteOffset":40632,
			"target":34962
		},
		{
			"buffer":0,
			"byteLength":27088,
			"byteOffset":81264,
			"target":34962
		},
		{
			"buffer":0,
			"byteLength":13544,
			"byteOffset":108352,
			"target":34962
		},
		{
			"buffer":0,
			"byteLength":54176,
			"byteOffset":121896,
			"target":34962
		},
		{
			"buffer":0,
			"byteLength":20088,
			"byteOffset":176072,
			"target":34963
		},
		{
			"buffer":0,
			"byteLength":4160,
			"byteOffset":196160
		},
		{
			"buffer":0,
			"byteLength":70440,
			"byteOffset":200320,
			"target":34962
		},
		{
			"buffer":0,
			"byteLength":70440,
			"byteOffset":270760,
			"target":34962
		},
		{
			"buffer":0,
			"byteLength":46960,
			"byteOffset":341200,
			"target":34962
		},
		{
			"buffer":0,
			"byteLength":23480,
			"byteOffset":388160,
			"target":34962
		},
		{
			"buffer":0,
			"byteLength":93920,
			"byteOffset":411640,
			"target":34962
		},
		{
			"buffer":0,
			"byteLength":56964,
			"byteOffset":505560,
			"target":34963
		},
		{
			"buffer":0,
			"byteLength":37572,
			"byteOffset":562524,
			"target":34962
		},
		{
			"buffer":0,
			"byteLength":37572,
			"byteOffset":600096,
			"target":34962
		},
		{
			"buffer":0,
			"byteLength":25048,
			"byteOffset":637668,
			"target":34962
		},
		{
			"buffer":0,
			"byteLength":12524,
			"byteOffset":662716,
			"target":34962
		},
		{
			"buffer":0,
			"byteLength":50096,
			"byteOffset":675240,
			"target":34962
		},
		{
			"buffer":0,
			"byteLength":29580,
			"byteOffset":725336,
			"target":34963
		},
		{
			"buffer":0,
			"byteLength":236,
			"byteOffset":754916
		},
		{
			"buffer":0,
			"byteLength":708,
			"byteOffset":755152
		},
		{
			"buffer":0,
			"byteLength":944,
			"byteOffset":755860
		},
		{
			"buffer":0,
			"byteLength":8,
			"byteOffset":756804
		},
		{
			"buffer":0,
			"byteLength":24,
			"byteOffset":756812
		},
		{
			"buffer":0,
			"byteLength":708,
			"byteOffset":756836
		},
		{
			"buffer":0,
			"byteLength":944,
			"byteOffset":757544
		},
		{
			"buffer":0,
			"byteLength":24,
			"byteOffset":758488
		},
		{
			"buffer":0,
			"byteLength":24,
			"byteOffset":758512
		},
		{
			"buffer":0,
			"byteLength":944,
			"byteOffset":758536
		},
		{
			"buffer":0,
			"byteLength":24,
			"byteOffset":759480
		},
		{
			"buffer":0,
			"byteLength":708,
			"byteOffset":759504
		},
		{
			"buffer":0,
			"byteLength":944,
			"byteOffset":760212
		},
		{
			"buffer":0,
			"byteLength":24,
			"byteOffset":761156
		},
		{
			"buffer":0,
			"byteLength":708,
			"byteOffset":761180
		},
		{
			"buffer":0,
			"byteLength":944,
			"byteOffset":761888
		},
		{
			"buffer":0,
			"byteLength":24,
			"byteOffset":762832
		},
		{
			"buffer":0,
			"byteLength":708,
			"byteOffset":762856
		},
		{
			"buffer":0,
			"byteLength":944,
			"byteOffset":763564
		},
		{
			"buffer":0,
			"byteLength":24,
			"byteOffset":764508
		},
		{
			"buffer":0,
			"byteLength":708,
			"byteOffset":764532
		},
		{
			"buffer":0,
			"byteLength":32,
			"byteOffset":765240
		},
		{
			"buffer":0,
			"byteLength":24,
			"byteOffset":765272
		},
		{
			"buffer":0,
			"byteLength":708,
			"byteOffset":765296
		},
		{
			"buffer":0,
			"byteLength":944,
			"byteOffset":766004
		},
		{
			"buffer":0,
			"byteLength":24,
			"byteOffset":766948
		},
		{
			"buffer":0,
			"byteLength":708,
			"byteOffset":766972
		},
		{
			"buffer":0,
			"byteLength":944,
			"byteOffset":767680
		},
		{
			"buffer":0,
			"byteLength":24,
			"byteOffset":768624
		},
		{
			"buffer":0,
			"byteLength":708,
			"byteOffset":768648
		},
		{
			"buffer":0,
			"byteLength":944,
			"byteOffset":769356
		},
		{
			"buffer":0,
			"byteLength":24,
			"byteOffset":770300
		},
		{
			"buffer":0,
			"byteLength":708,
			"byteOffset":770324
		},
		{
			"buffer":0,
			"byteLength":944,
			"byteOffset":771032
		},
		{
			"buffer":0,
			"byteLength":24,
			"byteOffset":771976
		},
		{
			"buffer":0,
			"byteLength":708,
			"byteOffset":772000
		},
		{
			"buffer":0,
			"byteLength":32,
			"byteOffset":772708
		},
		{
			"buffer":0,
			"byteLength":24,
			"byteOffset":772740
		},
		{
			"buffer":0,
			"byteLength":708,
			"byteOffset":772764
		},
		{
			"buffer":0,
			"byteLength":32,
			"byteOffset":773472
		},
		{
			"buffer":0,
			"byteLength":24,
			"byteOffset":773504
		},
		{
			"buffer":0,
			"byteLength":708,
			"byteOffset":773528
		},
		{
			"buffer":0,
			"byteLength":32,
			"byteOffset":774236
		},
		{
			"buffer":0,
			"byteLength":24,
			"byteOffset":774268
		},
		{
			"buffer":0,
			"byteLength":708,
			"byteOffset":774292
		},
		{
			"buffer":0,
			"byteLength":32,
			"byteOffset":775000
		},
		{
			"buffer":0,
			"byteLength":24,
			"byteOffset":775032
		},
		{
			"buffer":0,
			"byteLength":708,
			"byteOffset":775056
		},
		{
			"buffer":0,
			"byteLength":32,
			"byteOffset":775764
		},
		{
			"buffer":0,
			"byteLength":24,
			"byteOffset":775796
		},
		{
			"buffer":0,
			"byteLength":708,
			"byteOffset":775820
		},
		{
			"buffer":0,
			"byteLength":32,
			"byteOffset":776528
		},
		{
			"buffer":0,
			"byteLength":24,
			"byteOffset":776560
		},
		{
			"buffer":0,
			"byteLength":708,
			"byteOffset":776584
		},
		{
			"buffer":0,
			"byteLength":32,
			"byteOffset":777292
		},
		{
			"buffer":0,
			"byteLength":24,
			"byteOffset":777324
		},
		{
			"buffer":0,
			"byteLength":708,
			"byteOffset":777348
		},
		{
			"buffer":0,
			"byteLength":32,
			"byteOffset":778056
		},
		{
			"buffer":0,
			"byteLength":24,
			"byteOffset":778088
		},
		{
			"buffer":0,
			"byteLength":708,
			"byteOffset":778112
		},
		{
			"buffer":0,
			"byteLength":32,
			"byteOffset":778820
		},
		{
			"buffer":0,
			"byteLength":24,
			"byteOffset":778852
		},
		{
			"buffer":0,
			"byteLength":708,
			"byteOffset":778876
		},
		{
			"buffer":0,
			"byteLength":32,
			"byteOffset":779584
		},
		{
			"buffer":0,
			"byteLength":24,
			"byteOffset":779616
		},
		{
			"buffer":0,
			"byteLength":708,
			"byteOffset":779640
		},
		{
			"buffer":0,
			"byteLength":32,
			"byteOffset":780348
		},
		{
			"buffer":0,
			"byteLength":24,
			"byteOffset":780380
		},
		{
			"buffer":0,
			"byteLength":708,
			"byteOffset":780404
		},
		{
			"buffer":0,
			"byteLength":32,
			"byteOffset":781112
		},
		{
			"buffer":0,
			"byteLength":24,
			"byteOffset":781144
		},
		{
			"buffer":0,
			"byteLength":708,
			"byteOffset":781168
		},
		{
			"buffer":0,
			"byteLength":32,
			"byteOffset":781876
		},
		{
			"buffer":0,
			"byteLength":24,
			"byteOffset":781908
		},
		{
			"buffer":0,
			"byteLength":708,
			"byteOffset":781932
		},
		{
			"buffer":0,
			"byteLength":32,
			"byteOffset":782640
		},
		{
			"buffer":0,
			"byteLength":24,
			"byteOffset":782672
		},
		{
			"buffer":0,
			"byteLength":708,
			"byteOffset":782696
		},
		{
			"buffer":0,
			"byteLength":32,
			"byteOffset":783404
		},
		{
			"buffer":0,
			"byteLength":24,
			"byteOffset":783436
		},
		{
			"buffer":0,
			"byteLength":708,
			"byteOffset":783460
		},
		{
			"buffer":0,
			"byteLength":32,
			"byteOffset":784168
		},
		{
			"buffer":0,
			"byteLength":24,
			"byteOffset":784200
		},
		{
			"buffer":0,
			"byteLength":708,
			"byteOffset":784224
		},
		{
			"buffer":0,
			"byteLength":32,
			"byteOffset":784932
		},
		{
			"buffer":0,
			"byteLength":24,
			"byteOffset":784964
		},
		{
			"buffer":0,
			"byteLength":708,
			"byteOffset":784988
		},
		{
			"buffer":0,
			"byteLength":32,
			"byteOffset":785696
		},
		{
			"buffer":0,
			"byteLength":24,
			"byteOffset":785728
		},
		{
			"buffer":0,
			"byteLength":708,
			"byteOffset":785752
		},
		{
			"buffer":0,
			"byteLength":32,
			"byteOffset":786460
		},
		{
			"buffer":0,
			"byteLength":24,
			"byteOffset":786492
		},
		{
			"buffer":0,
			"byteLength":24,
			"byteOffset":786516
		},
		{
			"buffer":0,
			"byteLength":32,
			"byteOffset":786540
		},
		{
			"buffer":0,
			"byteLength":24,
			"byteOffset":786572
		},
		{
			"buffer":0,
			"byteLength":708,
			"byteOffset":786596
		},
		{
			"buffer":0,
			"byteLength":944,
			"byteOffset":787304
		},
		{
			"buffer":0,
			"byteLength":24,
			"byteOffset":788248
		},
		{
			"buffer":0,
			"byteLength":708,
			"byteOffset":788272
		},
		{
			"buffer":0,
			"byteLength":944,
			"byteOffset":788980
		},
		{
			"buffer":0,
			"byteLength":24,
			"byteOffset":789924
		},
		{
			"buffer":0,
			"byteLength":708,
			"byteOffset":789948
		},
		{
			"buffer":0,
			"byteLength":944,
			"byteOffset":790656
		},
		{
			"buffer":0,
			"byteLength":24,
			"byteOffset":791600
		},
		{
			"buffer":0,
			"byteLength":708,
			"byteOffset":791624
		},
		{
			"buffer":0,
			"byteLength":944,
			"byteOffset":792332
		},
		{
			"buffer":0,
			"byteLength":24,
			"byteOffset":793276
		},
		{
			"buffer":0,
			"byteLength":24,
			"byteOffset":793300
		},
		{
			"buffer":0,
			"byteLength":32,
			"byteOffset":793324
		},
		{
			"buffer":0,
			"byteLength":24,
			"byteOffset":793356
		},
		{
			"buffer":0,
			"byteLength":708,
			"byteOffset":793380
		},
		{
			"buffer":0,
			"byteLength":32,
			"byteOffset":794088
		},
		{
			"buffer":0,
			"byteLength":24,
			"byteOffset":794120
		},
		{
			"buffer":0,
			"byteLength":708,
			"byteOffset":794144
		},
		{
			"buffer":0,
			"byteLength":32,
			"byteOffset":794852
		},
		{
			"buffer":0,
			"byteLength":24,
			"byteOffset":794884
		},
		{
			"buffer":0,
			"byteLength":24,
			"byteOffset":794908
		},
		{
			"buffer":0,
			"byteLength":32,
			"byteOffset":794932
		},
		{
			"buffer":0,
			"byteLength":24,
			"byteOffset":794964
		},
		{
			"buffer":0,
			"byteLength":24,
			"byteOffset":794988
		},
		{
			"buffer":0,
			"byteLength":32,
			"byteOffset":795012
		},
		{
			"buffer":0,
			"byteLength":24,
			"byteOffset":795044
		},
		{
			"buffer":0,
			"byteLength":708,
			"byteOffset":795068
		},
		{
			"buffer":0,
			"byteLength":32,
			"byteOffset":795776
		},
		{
			"buffer":0,
			"byteLength":24,
			"byteOffset":795808
		},
		{
			"buffer":0,
			"byteLength":708,
			"byteOffset":795832
		},
		{
			"buffer":0,
			"byteLength":32,
			"byteOffset":796540
		},
		{
			"buffer":0,
			"byteLength":24,
			"byteOffset":796572
		},
		{
			"buffer":0,
			"byteLength":24,
			"byteOffset":796596
		},
		{
			"buffer":0,
			"byteLength":32,
			"byteOffset":796620
		},
		{
			"buffer":0,
			"byteLength":24,
			"byteOffset":796652
		},
		{
			"buffer":0,
			"byteLength":24,
			"byteOffset":796676
		},
		{
			"buffer":0,
			"byteLength":32,
			"byteOffset":796700
		},
		{
			"buffer":0,
			"byteLength":24,
			"byteOffset":796732
		},
		{
			"buffer":0,
			"byteLength":708,
			"byteOffset":796756
		},
		{
			"buffer":0,
			"byteLength":32,
			"byteOffset":797464
		},
		{
			"buffer":0,
			"byteLength":24,
			"byteOffset":797496
		},
		{
			"buffer":0,
			"byteLength":708,
			"byteOffset":797520
		},
		{
			"buffer":0,
			"byteLength":32,
			"byteOffset":798228
		},
		{
			"buffer":0,
			"byteLength":24,
			"byteOffset":798260
		},
		{
			"buffer":0,
			"byteLength":24,
			"byteOffset":798284
		},
		{
			"buffer":0,
			"byteLength":32,
			"byteOffset":798308
		},
		{
			"buffer":0,
			"byteLength":24,
			"byteOffset":798340
		},
		{
			"buffer":0,
			"byteLength":708,
			"byteOffset":798364
		},
		{
			"buffer":0,
			"byteLength":32,
			"byteOffset":799072
		},
		{
			"buffer":0,
			"byteLength":24,
			"byteOffset":799104
		},
		{
			"buffer":0,
			"byteLength":708,
			"byteOffset":799128
		},
		{
			"buffer":0,
			"byteLength":32,
			"byteOffset":799836
		},
		{
			"buffer":0,
			"byteLength":24,
			"byteOffset":799868
		},
		{
			"buffer":0,
			"byteLength":708,
			"byteOffset":799892
		},
		{
			"buffer":0,
			"byteLength":32,
			"byteOffset":800600
		},
		{
			"buffer":0,
			"byteLength":24,
			"byteOffset":800632
		},
		{
			"buffer":0,
			"byteLength":708,
			"byteOffset":800656
		},
		{
			"buffer":0,
			"byteLength":32,
			"byteOffset":801364
		},
		{
			"buffer":0,
			"byteLength":24,
			"byteOffset":801396
		},
		{
			"buffer":0,
			"byteLength":708,
			"byteOffset":801420
		},
		{
			"buffer":0,
			"byteLength":32,
			"byteOffset":802128
		},
		{
			"buffer":0,
			"byteLength":24,
			"byteOffset":802160
		},
		{
			"buffer":0,
			"byteLength":708,
			"byteOffset":802184
		},
		{
			"buffer":0,
			"byteLength":32,
			"byteOffset":802892
		},
		{
			"buffer":0,
			"byteLength":24,
			"byteOffset":802924
		},
		{
			"buffer":0,
			"byteLength":24,
			"byteOffset":802948
		},
		{
			"buffer":0,
			"byteLength":32,
			"byteOffset":802972
		},
		{
			"buffer":0,
			"byteLength":24,
			"byteOffset":803004
		},
		{
			"buffer":0,
			"byteLength":708,
			"byteOffset":803028
		},
		{
			"buffer":0,
			"byteLength":32,
			"byteOffset":803736
		},
		{
			"buffer":0,
			"byteLength":24,
			"byteOffset":803768
		},
		{
			"buffer":0,
			"byteLength":708,
			"byteOffset":803792
		},
		{
			"buffer":0,
			"byteLength":944,
			"byteOffset":804500
		},
		{
			"buffer":0,
			"byteLength":24,
			"byteOffset":805444
		},
		{
			"buffer":0,
			"byteLength":708,
			"byteOffset":805468
		},
		{
			"buffer":0,
			"byteLength":944,
			"byteOffset":806176
		},
		{
			"buffer":0,
			"byteLength":24,
			"byteOffset":807120
		},
		{
			"buffer":0,
			"byteLength":24,
			"byteOffset":807144
		},
		{
			"buffer":0,
			"byteLength":944,
			"byteOffset":807168
		},
		{
			"buffer":0,
			"byteLength":24,
			"byteOffset":808112
		},
		{
			"buffer":0,
			"byteLength":24,
			"byteOffset":808136
		},
		{
			"buffer":0,
			"byteLength":944,
			"byteOffset":808160
		},
		{
			"buffer":0,
			"byteLength":24,
			"byteOffset":809104
		},
		{
			"buffer":0,
			"byteLength":24,
			"byteOffset":809128
		},
		{
			"buffer":0,
			"byteLength":32,
			"byteOffset":809152
		},
		{
			"buffer":0,
			"byteLength":24,
			"byteOffset":809184
		},
		{
			"buffer":0,
			"byteLength":708,
			"byteOffset":809208
		},
		{
			"buffer":0,
			"byteLength":944,
			"byteOffset":809916
		},
		{
			"buffer":0,
			"byteLength":24,
			"byteOffset":810860
		},
		{
			"buffer":0,
			"byteLength":708,
			"byteOffset":810884
		},
		{
			"buffer":0,
			"byteLength":944,
			"byteOffset":811592
		},
		{
			"buffer":0,
			"byteLength":24,
			"byteOffset":812536
		},
		{
			"buffer":0,
			"byteLength":708,
			"byteOffset":812560
		},
		{
			"buffer":0,
			"byteLength":944,
			"byteOffset":813268
		},
		{
			"buffer":0,
			"byteLength":24,
			"byteOffset":814212
		},
		{
			"buffer":0,
			"byteLength":708,
			"byteOffset":814236
		},
		{
			"buffer":0,
			"byteLength":944,
			"byteOffset":814944
		},
		{
			"buffer":0,
			"byteLength":24,
			"byteOffset":815888
		},
		{
			"buffer":0,
			"byteLength":708,
			"byteOffset":815912
		},
		{
			"buffer":0,
			"byteLength":32,
			"byteOffset":816620
		},
		{
			"buffer":0,
			"byteLength":24,
			"byteOffset":816652
		}
	],
	"samplers":[
		{
			"magFilter":9729,
			"minFilter":9987
		}
	],
	"buffers":[
		{
			"byteLength":816676,
			"uri":"fat_titan.bin"
		}
	]
}
